<mxfile host="Electron" agent="Mozilla/5.0 (Windows NT 10.0; Win64; x64) AppleWebKit/537.36 (KHTML, like Gecko) draw.io/24.7.5 Chrome/126.0.6478.183 Electron/31.3.0 Safari/537.36" version="24.7.5">
  <diagram name="第 1 页" id="MjwIlD62QKyO8fjrJlJ5">
    <mxGraphModel dx="1941" dy="656" grid="1" gridSize="10" guides="1" tooltips="1" connect="1" arrows="1" fold="1" page="1" pageScale="1" pageWidth="827" pageHeight="1169" math="0" shadow="0">
      <root>
        <mxCell id="0" />
        <mxCell id="1" parent="0" />
        <mxCell id="-ubOXBx0BQUR7QONxQG7-7" style="edgeStyle=orthogonalEdgeStyle;rounded=0;orthogonalLoop=1;jettySize=auto;html=1;" parent="1" source="-ubOXBx0BQUR7QONxQG7-1" target="-ubOXBx0BQUR7QONxQG7-6" edge="1">
          <mxGeometry relative="1" as="geometry" />
        </mxCell>
        <mxCell id="-ubOXBx0BQUR7QONxQG7-1" value="1、查询订单" style="rounded=0;whiteSpace=wrap;html=1;fontSize=16;fillColor=#d5e8d4;strokeColor=#82b366;" parent="1" vertex="1">
          <mxGeometry x="280" y="100" width="120" height="40" as="geometry" />
        </mxCell>
        <mxCell id="-ubOXBx0BQUR7QONxQG7-3" style="edgeStyle=orthogonalEdgeStyle;rounded=0;orthogonalLoop=1;jettySize=auto;html=1;entryX=0.5;entryY=0;entryDx=0;entryDy=0;" parent="1" source="-ubOXBx0BQUR7QONxQG7-2" target="-ubOXBx0BQUR7QONxQG7-1" edge="1">
          <mxGeometry relative="1" as="geometry" />
        </mxCell>
        <mxCell id="-ubOXBx0BQUR7QONxQG7-2" value="订单&lt;div&gt;客户&lt;/div&gt;&lt;div&gt;其他单&lt;/div&gt;" style="ellipse;whiteSpace=wrap;html=1;aspect=fixed;" parent="1" vertex="1">
          <mxGeometry x="60" y="20" width="80" height="80" as="geometry" />
        </mxCell>
        <mxCell id="-ubOXBx0BQUR7QONxQG7-10" style="edgeStyle=orthogonalEdgeStyle;rounded=0;orthogonalLoop=1;jettySize=auto;html=1;entryX=0.5;entryY=0;entryDx=0;entryDy=0;" parent="1" source="-ubOXBx0BQUR7QONxQG7-4" target="-ubOXBx0BQUR7QONxQG7-9" edge="1">
          <mxGeometry relative="1" as="geometry" />
        </mxCell>
        <mxCell id="-ubOXBx0BQUR7QONxQG7-4" value="" style="shape=image;verticalLabelPosition=bottom;labelBackgroundColor=default;verticalAlign=top;aspect=fixed;imageAspect=0;image=data:image/png,iVBORw0KGgoAAAANSUhEUgAAA7QAAAFECAIAAACYqOXJAAAgAElEQVR4AeydB0wUyx/HN+bCxUAkatyHGiWiscV2UbHEXqKH+mxgz1PsiIo+sR8oiAUVK3AooIiiPuT5lC5VERRERfydAhZsWBAU9bDg8n/3z9ZbuLvlPPq9MRucvZ2d8pnZme/97jezmAr9QwQQAUQAEUAEEAFEABFABBABigCGOCACiAAigAggAogAIoAIIAKIAE0AiWPUExABRAARQAQQAUQAEUAEEAGGABLHqCsgAogAIoAIIAKIACKACCACDAEkjlFXQAQQAUQAEUAEEAFEABFABBgCSByjroAIIAKIACKACCACiAAigAgwBAwUx0fz8gSOjOJidHAEGmZfGyxph6F/iMAvEhgsadcw+zMqFSKACCACiAAiUFMEkDiudR1fU01Vs+lgGFaucEUHIvBLBDDMwBGjZnsvSg0RQAQQAUQAEag9AgZOdQJm46N5eZzRFAUyiotrr/GqkzISx78kClFkmgASx9V56NC9iAAigAggAo2CABLHyHKM7MeIgL4EkDhuFMM6KiQigAggAohAdQggcYzEsb7CCFlPEQEkjqsz2qJ7EQFEABFABBoFASSOkThG4hgR0JcAEseNYlhHhUQEEAFEABGoDgEkjhuQOP7xuez9t3+r05z634t8jpEZ2AACSBzr/4gZQcwfpe8Ky8qNoCI1UgVEo0YwokQQgUZBAInjBiOOXxSOmwgWswuul9VFz0Hi2ABpiG5B4rguHs4Gkkeh3xBX3GTPpqs/G0iB6rUYiEa94keZIwJ1TMCoxPHf8gSsbwRzSKL+SCrSul1GbDI4+eReKKxwNb3o9ab54U36RbR0eXyjiLwUE5wsso5sMuCmD3WqNSl9PtS3Rd99tJ/7oOuqd/cI4Tu+7p4Plgc/C0dir348dQIXuW9KIc/5YRUtjn+kLPKZ1alfe9MWeKsh44aEhm80TP8RsNSlA2Y2e65ht1e6qyxtWZB914EdzZo3b95vaD/v02t/gEulOAafvj0zef+GmTnZNZagwSXhbvyWMM9zWoduLU3MmjcfbDMsLHITd4kO1EaZ3+7qwu1x3ETctGPvbpv3OZRQnAlYKx+MiURNWv/xRxn1yWuPziZikci0PyuO+X2JH2b7XVX/F0Gxz18lj/9XVby6u86vBT9cdyUwLKf3+WcPJsfk1cYPTh/DZnpatfE5cKcx2I7f3pwhks0IVhpGkbyrCpK1QKP6ZTa8toJ3EspMeZjdAM/OrXYNHB7sHvbOYKzZ2/fh5mGJgrnpeZH/VPLDet6OoiECv0bAqMRxYkauazCQx+6rZrrF8fkj8Zgkdb82cdxpVkLzcZnBRUXpRW89VkYOsk/G6kwc69twvySOS88H46JdLjfJxPlhUhwT2Ss8+zTBWlo6OEl9Nw2b1cUEa94j9JohqrEGxTGRvcp7sAlmZjHXYbzv1lEO1maYyMLtwuZKetHgU/izDYb1vtRgxDGRuWhj5yZN8A4r19r4bBj8u6UIw3uEXq3QCrVRZkocWyzZOvnkrsknto1zHtVSjDWduGP1T3ChxXGvfu1btR+WSZ5uOCsVjR/aEVOLY35f4of17cS5Zx/h0hcxDUh18WvBD+tbo/qK9zBxlEi2IrIBfc2oHxLVF5p1T7L6Za4V1v/L2+fdRrRzgmOCv9+1XXMOdhDtWBT2xbCsalAc859KftiwgqG7EIEqCNSwOD6ck3M4N1cfe2qtxklPutXCIHHcbnvmpEHxTreL0gtyJw5IcDyY0sjFcdnFEFzk6XGb7Ab8MCmOywIHNMfMnU4wdkoiebKNCTZwg6MBurMmxfHZoe0x8dyDznQxiNv2f1pi4ikzvtaQ8bg2hKYBxLhbSn0kpliL9acZ9V8WZzOiSeVWqI0yU+K408nrjAon7jv5DhZh7YZmsOK404KhC81a741wITJnLTC13LWmO08c8/sSP1zFcMNdbnjimF8LfpgrcgMN1L2ka5ggKKE5M7jU8NLVPcnql9nw2uq+8395m1rKeq199JWJ8unsJFd8SPJj3XcIXKlBccx/KvlhMvfy8gb0PVsAB7rUiAjUmDg+nJXguO2PLjO9PClxnP4YBkvCB5/MP+x5rdOIyObj4kfuzvnntdqTIS338Zr1iR2GRzQdHNN9Wca2tLc3We+F9KL3kXFZk+ZewQdFYNZR7WxTFoW9SGGvXjqeiEmueTxnkkover5icjjmXEGRaxXH6Rl3rCThar8LzgFj6t0LpKmYdKswc8nZvTrSOrAgNeamuV3W8aCrfHF89W7uMqdEq1GRZsNiuy26uTH5Ne2AkVFcHBV0FZNcdcl4tMwhvtVgssxLI1+lUmWuujc8emsthd9sFL/ZKHCpYhOlZPl3KfM/bNyQ13Pag35OL4MfKT3t9XerUEX+ZSHa75lNJccPYxj2YntHDOt2LoOVR7BiVzfMdMYc+pd04vpkGwyzcV8SvaJrL1zcql2bactmPLmjtmiWXJqyeqhFO/Omnfr1OR5mv82qglvFj+QFXrZW3VuamJmb9x89KOjC+p+suhVOucizG4Z18EvkSrU1w32A07q5b6nb82UdMKzb2XTuqsPOrhg2bSajpEH24uTYhQNatTNrgolNO/XutvWwo5K6kbg4qgfnRsAP9BiTwxbsW8Lc3VMtu7YwaWrWrM/IAYEX1rPJzl0mwuw3Tv2js2mbPoOuJCw7NLJ5K4u2y71W0azKFa4G1/e1R2cM6xpyk6vRurvyGeFhf5YrXPUps0C+Be6dMKzTiYt/uI1t3dacpLFN7sR9x6gkjssVrtlrLOj+QFuOm8+dETpRNMbV6VuAdcveY1PcO/HEsc5+xe+3WsJP3w1iuzrd4Zluv7yQnHv/93W3PbTd+uED784nfz3GJ+SHUO/SKYzMx6X5IU+/7HV91GPaw36OzzxvlvFd9Ikipe/epwPtFJbTckZvLTiXR+jvbsB/Ovhhuiz/K70fHD5v6P7uLXdI+h9bfSjv1Q9eIcs+Jnmen9Tdw9LMrWe/E5uCXpWwFxMdXPFFVy8s8OrcztsloURx9ERfi91jV2Q903MyLy2M9giZ2GtPxxYe/QcEOB/LL2RufO3VS4abuPxW6RAdPpzH5l1a+Ldz4EirHR07ejvIX6Ru34e3+ucaffF56u8i2R9/fWejqnL3HMRFf8Uw5wV7u7GJi2SWa7gU2eiGp8ymoO1/QVb/Zm/fj5uePM9/qdKj5HEiF7tTlIsZJTRnB7+55nFqZHv3zl2P2nvkFPD7huEkq6Dxv4JH3ovlgyzdWou2de5ydIFr9qNv2qqn+VmVZSY+pR0KndJzp6W5e5+BJ12CX5Xw+7POGqlUVMozggoSXE4MbevepZv34j25r/V0HS+4MV0kmx+q7ht5nofwZmEJzI8TyrOTZPikm/fiYuZKdllZeI6yjYrM5yX95c1fTv7DLd07dZGvCiy46b6/gluFUI2qSpn/VPLDKpXqjudEO9eQzHf8BtfkjT5BBH6BQA2IY0YWtzNt2tZ62L7IAzxx3Hv+tb5rM9cF3Fu6LqGZJLz7wee0mkwvyLf/PcJkXPKcI9kb5bcnz4zCBiauv/ueNienZ2f3tw5vMevGygBwDbq30CFWJImZl1BIXzVcHD/J3xGQvSkge6lDNCZJsKXCmwKyN13IT2DFscmm3LiQaybLFft2RHc99ILMi3WrSH+aO2lUuNmUlEU+2ZuP354+OwqzTnBmy0yJ44SByxJsPO9tlN+eZBuJ9Y1flUnWqOrWKCm9FF18Nrr47Mn8zpri+OvnP2dDmzn5W86+D/yrYOaafFueOC77VlhQ8rryoSzlfmWND7MUHTqQQxWCH8YwLGdDWwzrGXaXk2Wr9vfGsIm2pbSapMTxkMFdh08efthVun1a2xYY1n/NckY635rn0BozadvJ6U8bnw2DJlh3Ht9RLY6JzEWbuzQRt++8dp2NfMuIxRJTzLSDd6SM0ZqCKdOSjrNo0rdwf6sQx1cmjmqKWfTrt2fb7yfdpVvGtjTBmjsHk0ZZInVxyLYJ8m0Tto01x7C2jq5kmDy8lhTR9b27dFs3rAlu6biGdDKZ002MmXc9k0zCIYAUx50GDti1ZagNjvXo3dPBefzagaaYuSTyNhWhGvUtCxnSHmtqt9tJ06+66jIL5kuRbD9udPt5juN9t4yw790Ua9LG8/JWGmYlcUzA5nDbpphp//j7jFuFeMacQs9u4jGT/1lkLlnrQJJXu1Wo+H2JH66it5eUhl0uOnm5yNMlB5c+dv6HDJNHUiktJ/POPsJtnp4u4pL5cXSFWi5T4vjx9K2Pl58oDAx7u9LxAW7z6HA+Kxi+l+5YDG3n5cvOvj8R9nb1qof45CcBL5mrBj8pZFGI7J2H24rcRsyPlvulHnI63lvsMsD5Mev3T2S7H7Iw2TVpFfUz9LxDViL3uec+0VUgBV+XY1s8r3tM2oX39l7qmHTM2a+LyH11rD7zeGnc4j14i0OLXa+e9E/1cpR3F22b5EvL49I759NOHk876X6qt0g2blUqGSaPrCxGmJelrvHERTsnrkzwlye7/C7/faSn3uK4NCvs1tngW2eDY+dYaIrj6qTMNayWQBWschLHiFymn2TAqlSqp15H1XKZkoMTJ56Szo/180vZu+hoJ5HLmAPv2O8g1SEpTKM4aOw2vI3vn3vTzgTfPO5yakBTWd+NT9XSUktF2Y+qKHNZpuxga1PPWc6JAcdS9i716SJy+13OfjlSCdSIEcdSm5Pj50X7ya/tsN3fTuQqPfSuiuUsdLnykseJZEsvqfVu/kFvXHTmEvNtkJKww4/PHXXO0zv1+I7z41rJLAYmPGBA/0h23IM39bT7MzGA6nUzJ/DFsXCNhFNWCY05b+O32XQxF7fohSQy27nQ/9UlUC1xzMli0/aDR24/se1uLv1a6YziYtpy3GzVwzjKeppe9Gb78khs4u0Q6jThwnWRJGHtPVYNv3pkOzrcYscTWv4mh6ZgkoT1wNqGC5/v9rq9LragmuKYvj2juFjA5xhzzr2Zd3/AgCtW42KXphWF+SZw4vhG5oMFO+4czmFL9TxnbP/w7kde0MlS4jhy3IU39Gl6/sPRA8Pb7cnXSxxzjZjzRqIhjr+nvLCQ5no8YOb48ueFY23UluPMGOtKpiMTl99EJ85+5NLUEdBTHLewmV5Ia0dYFzxGhHUacY86VR7u3QRrueXcFlpplUWMHdBELY4/ePU0wdodiGLVcOYfjm2w9ovs6ci05VhXytURxyVePTCsvXccK/ezHUKdRhwOWMNp63KFqy4XhS9HeouxllvZGhGptnbNsB6rl3LieOjmVeUK13SHFtiwSW/B5WfQwBZY2wNRZF7VqS8Ba/6aaI5hTXuO7Oe2fcaNBC1rInWVWThfimTT2V7rGOyptnamWGeHxfQpJY47HLjo9CLB6Xns8rhtvbuJsE72C0pZtwps2syfVyeNNW3Vo13L7Rdccje244tjHd1K3491ulW8ez/RBib9zSrHF4UjpYrFicykTonjB0uS2Hn7c4n9ZOgfwPyU/jnpeRvpY/krVit/++I8G3rJmbVEBj8pKpXq+wMnc1m3ZQrWHlx+3+0gbhIcRif99b6jqWyA63PWlFz6z0x3vHfcfYoFKfhGpOSrVKrM6P6igOD3KtW/j7e2ko05/L5qVuVvwrZGHLzCZqv6fnm2Kz4wsYIhV5czQJlidVNZ7z9ZI2b5uyMDZHqLY65oL3Z30hDHNZMyl4U6UBWrj4GjXPDR118wdxR6W8vazWG/C1BCs+PcLPZ7Vek/M93w7rFZdOTqkFQXUBsNZdZikcxGzv3Y8b/csPi93nlv1HfpDgmX+VPWkqay8Yffs/q+7NqqPXiHiHR9akSlbDXrTiEd+d9i/5EuuCReobss6iv6iONWpy+yNS4+E9RO5LWX7u7fsleYyKxdnjPPb/k778EuasuxcI1UlDjWlbK6fLpC3wtST26a3L05ksi6CKHPf4mA4eLYw39Zl3amZlbDR3sEu2czsriSOO577BUnSc94xWH90w5Ty+CC98ViQ9M8cwoimOPFnwvDsWWKBEo6p0XeaCqJmhDyKrnimjk6KYMtx1xJhMTxmpzUooI/Z4VjY26dKCy64KMWx/TtNwreRjNlzps9NtxM9oj+nBLHiZs46Vz00ml6eBMyNXaw1qdZtInj/AuPcenzcHbmValKXWeqxfGn9xlJedcqH6+q/gVNT3E8YutqTllmOVlgIkkUtZQtb1N7DOtxgbKbUvJxoTOuFseZK1thzfuGJZDCizpWHBqKYaOnFNM6m7Ic60q5OuL4x7F+Zliz+Z4rS3Svt9MlNMnPxX2j2RsJcDpqjTWZaKskxSJpOR67zalc4XrPyQIbO/UjuBBnh7bDLDzDSXFcnfqS9LLWJG8bbNfb3BTDMJHp0IUzX7DFoOHrKrNwvhTJDvIE9qsCrNzbC2vyux3tWUGJY75/iUk3mwlZmWRk2q0C+93uOzgd6odhbQffyHYhf2fgWY716c4CcXSKY9XPkM0KfEXhU+pmMtrk51GsIykljp+cZGZ8lUpF2pUtdpXQU3F2UC4+/WVkYdlr5vjutwHwrR9oU6PBT4pKpcpPmVDRCUH1riApPv8pLY5JebrNKY7V5CpVga8cNzlzifptnRR80rTXKpXqfsIw0alQ0tr8bIelbNi+twJ4KlwqLyt5x/w6lPCnJ97iYjL/si5xTDlO2Iex3zJUqsyNu2pGHNdMyvw6MOEqWb0/daKN6OhR2vuVrLjb8nDWREvJwd+Pc18kKLuyydkINQCVyjCS6pJqE8dEzjpzWQ/7zHylugOo7xAOCZf57pWBoh1Ol9Q/DOYd9cdFJ8+rq6i7RlTKE/3UNpLsbXvxphfihctDX9VHHKu/oqhU2fFDRa5OV6jqP7kmFckWX1RDJ3sdt1tFFTWixLGulPUpORmn7M3N0y7TerUgJbLvbbZ36Hs3iocIcAQMF8frV3c27ThhxoUbB3MrKOOjeXmc5Xhw0GtOkiZk5u0Oexr+nrS8Bu6K0eL7u+h+LG1mfvd87dworG9EkwHRHWyTRm/K3BxfQPvvZhQX1644Xv3welFRct7LCznvbhRVEMfpb17tdEnE+1fwWm66haws53Ps+pi1Kxe9IhX2ygdXqy2ONWTEL+1WwTV05YCe4tjGfS0njosvzwk9sPD5fVI/VZJrlRbkpS1rzpddTJgyuJLai/Fm1p5ydcQxkbX8wABSYTYxNeveu6PdjGF+QU7fKEXO1aJSybnPyTKbD0hiIxOwzn8YRhuJqxTH1akvVwACXL4kL/3HqUs7rMkoGWml5g6hMmuCZjlXIknQSlc67TNVR0oct91w+I/4wNnbBomw9kPSWUXOiGPKwebT1ZU5CevLoM7Esaok6Xl7aZ4XqY6/H1gGHT0/cR6ctM/xWbU6KPNbDfj2j/TSoczjuXw/ZsabeWPxr3w9rfyY0OcacqFCtIwoCbtbIv150YkAnDYSq1RVCr4KSVU++Zkf+s9ES9cKvsWc1KAj6xLHGmUml0bp63PMlUObHKyZlLks1IGqWZVkLWkmG7Ln9b8qFekI2+qvWHbVGONly9vK7eVRX1wUHMZ8saoGSXUBtdFQlT84LO9M/ny3vVvPo9Nmhu3yf1zB11l9u0aIkrD87ecqlDkjSqLlV0HqxwcyJcEaaaRc0adcoyT8DzTaV4tbxaSb6m+oJW8Twu7don+w0eiNFRbkVVEjShzrSplfwirDP1/Hy0a2EU8LVn87qPIeFAERqEjAcHHsGeE1ZnQnM3GLdhNW2f+dxpfIWsUxp5IZcTwsxfnKIx/+kapWwOnv3oYm5LoHZi3bcXPcrOgmkugZ0e/oFOpAHHNF5SzH6UVF547EN5FEDdoNXtF0sbNtRobXuziu0pOyYnOrzwwQx5xW00sct+hxNPCPeP5xgVkNpimO+SlXknT8S+UKV2GfY1J5Zzk/CJ55evs4t0X9Z/U1F2Hmq/wrOCoICc3qiGND61upggRsCJ1ogvUck8vKdE3a3C2kKNedbyWS2sQxs1tFibxvS8zUwY/dt4Ta55jzPqezqyvLsUr1/dOqaWAdUPq//HdDpQ/XZ3L+86oqxTFu+9z/9pdr/COXWbFn8JOiUqk05IL6OVKpVLUmjv9VJI4Wy7pPiDobmUv/OhS0YLfaDkcXQkOOMGV7fFUqki35h/VAUamyXPT3Oebqp00O1kzKXBbqQNXiWFUWv8Qd7x59539vDkpknVfnqi2DGnKQLzSrRVJdQG00yKvlH3Ofxpy94esR4TzHt5dY1sspl3HmUd+rLSRYZqpfeSz2rfTD4CtaeVdRI42Ua1Ec82um0Rsri2ORzhqpaLcKvjjmp6xnuOzNrTOuM3q3FLcZsMAz7oW6++t5P4qGCLAEDBfHR/PyjuTe9zjnSUnk5u3GOywIvX6AsiJXKY5Jt4pBN30pKzKnRHUF0gufL58cLt6Qy76b4yomSXZR22jzF44Lb+bCuDfQiWjdrYJLX8itgrIcczF54rhg3exwbF52JGXbJitYlG8/tpI4rhW3iqehQm4VBntS6r1bhdq+y2mycoUr6YEq7FZh1j+BsjHz76LDwuJYY7eKLalbJYtWzn5DicU3O7uQOzCkcK4CS7a0w1rM+0MzF1IoZy9374o1tZvN7SkhIDRJ0VwdtwqD6kvAxoQ/e893nE3vxUHXImNFS6zFwGt6iGPSrUJ3vpQ41uJWQZvS+QvyiOzFmzpgTUdOfk1lyrccc2DrThyr/k05moPPfR0UnIfPLEjjzW9Vu1VMeZVC/bzLjm/q/w1+Uli3innnOQu26t+C55GXcnPpFXmkIKgVt4pX3nJc5BdYoK7EXZmnvuL4852FItmoA5yB72vYdBe15bgwY7ZIZndKLeEqSGd1htrkYM2krM6DC+khjlVlyf/0FHlu948bLtq1+TrrjqtilqDpcquoFkmufCptNNRX6dC/D3cexM0uxPGKVjkKd05JWF1lVpFOCG7rk7X35ypqVB1xrN9uFVzH4mpDBqgvToJuFTprVF1x/I10OZ7SvTkli/95UKJPA1QoOzpBBCoQqJY4pj2MeRLZvO2ik/t4u1Xw3So4xZlRXJwQmiKSxC64ymxAkf42f8P667ZnmMVt4WdSu01LP/BC7aLgZBcu+pP03yVVadKtlpLICX+/pRO8cSerhyTcOoBZrkd/mH7jdntJhF00s+CPn3VGcfFFeSImub67gEmfuYXayg3TKY7fyBaHY9PuhrJu0Km3s3pJKonjyPFhFRbkWXrWxIK8axUX5L0oHCOtGZ9jZp/jQNZeSO1zPGjDSn0krPJwrwoL8iLHWmNqn+Nirx4mWMtNIczevcTdpT62PR33rNAnZYLa53jOAfU+x2vaY+KpM2lPWeL04NZY0/mHmatlkWMHYNhoV9IbuFzh+mxP7349B0SoN6dbua83ZlJxj+THWywxrHso5VzLKb9yheuXo33EvCWG9IK8nk7LSJFdlc+xwfUlQJZs3wwz7RzEeQZnLd/RE8P6S5/xxLGuMgvnS4lj8ZwDFRbkdXVcQteaL47LFa55my0xrDXtQl0H4vhZ2BNc+uyS2vBXYVQqf/imn/RhVzuQyJX8OY4Sxw+WVlyQZ32C+eX8U+LzNtJcdwVraf75NXDvc+dYJo/q+BzTC/KWqhfkZW87gItP/01n/PX+SlPZAJeKC/L6xAFVJX0En0r1Myfw/JQRJ7bFqrdiUKlUxScDcdGRQ7msPCp7d3SorLI4pvyhF/J8i1mSH4LGuuJtj3tGvnr86HWyT4jUaqdaHKvyt7WVdbLPZjxUygu9B8vwcak8HU4no1UOVj9l7fXVi1X5851dZF3b7MQ7RaTz+wYlB63mZrG7A1EL8rrF3KXqUT2SLFGt4vhl5ooBRzZHq3ty/gFvvOm5SLXbLekCobV9aVcQXWVWlWQtbiqz3vqMTZrIlocuXZX5SJ8a6SWOdZSK3ud4TR7rsULtczz06hMGg4bzA4dHpVJ9y3aosCCv0HsQr8cK1qha4jg/ZE7nZkgW85sChatLoAbEcQWJvN6/wj7HPJ9jvkJNL3g6f2IENjxhmlf2puN3bOdEY/3jHVIZrZyWdrtTv/DW89OdyK3cspf9GW8miRx9lnFfTi985TwvAhscP8nr3gafW0PGRWCjUg89q6h0Cx7bjQo3s01bE0S9MC8Y5PfVEVKTbrWWRHZbd3cDvZvb5ecp7FZuusRxRnHx5eBkU0lER8dbawOz1+5Lk8xIHiCtJI4TBy5PmLD33kY/aiu3fvFOt/Xayu19Tgm5jxu7lds0PyocXZzwnJrmv35eOxvazM3fSm7l9nq209OJ89Ti2OD2596Q16SV5Qpq87JZXak35HFGWQ3PYL6UJG7NXU5t5bZmnY3vhsGT+lsNb68Wx0Tmwg2dm2At2y93ksploxytm2EmrXeEMltbCFuOyTfkDTLBzFrPcxjvKyPfkNdEZOF+gb03e9WRgSZYs7YLV0t9Ngye0K4J1loSeYMxJP+4MLKnCLMcPGAvuZWbjduUNs0xsa1nBeP399ODO2CiftNG+9Bbufk4MFvXZS1z70G+qY7cym3zsLndxVjzbueoN9VVKY6rU9+yqAljmmHith2d1kh9t4xc2s8Mw8yX+jKKlmaus8yCnClxbDluTLv51FZuC3s3xURt94UzW4hUEsdE6vTppliH+fO/crtVsJv60WWoWcvxz/uv+0gVozzfBdJbuaV+YyUA1aP//bZ/CeDS3N30HoRsL6ctx9Nlj1ecZLdym/DI+zkrHr+Xbl8EuN3jtcHvT15857wmB5+Ytz+X1cpsIob8T2R7HG4rcie3cjtGbuXWR+wyYMNj9qVh5bDzcGuTXb+TW7ml7P7jkJVox3xq5Z1KX5/jZ+7tqX2F6aV7XAlfZMxqLmvfO9j9SNqJI1fWjPS2lWq8jPdn/vaOsnYDzh+S01u5KThXgx8PMn6o5CkAACAASURBVJb2oPyVRbJOYxIC1+3lieN/83382ovcxyyOOy5Pdv3ds41oz2rOgbfwxSVyHzdmK7e20kgqfOvslXe08dzwlJmqaa+vXuJY9W/OroO4SNZ/+4sKLUvJwbEj/cfbxx7zu753MbWVm9dbRj9Xh6QwDeLVvj4uuNXxLV7kVm4BHudGt5RZzbj9jmtEMqC9vrQ41llmVVnmZq/Wop02K+L9j6d6rZL3FLmO2PWSWZotXCO9xLGOUqmoN+SZUJsAcm/I+5v7kUFQHKt+JK2gtnJblxjol7xtinzKKP5vHYI1qo5bxYPgzZ7IWlyhz6GT6hKoMXFMS+RKu1XoshxnFBen5T52ck60HBbRdGhM18U3NyS+5r0EpDDs0u1xs2JbDYzA+ke2npxse/xpLM8H42Z+/haXq93GRZmNuCJZfdvrPqOq+fo77nr2pFmx5uz6ud8vqa3I6UVvT8hTe46JbEK/E2QJxOshjtMLX/vL0/pPjDIbFG01/4ZL+tNlEyuJ46vb0nMXLo2jXwKyLJJxoa6yie4GallI9JuNYgZrfVDmf9i0Ia/n1Ad9Vj73f/hl9/yaEcfkqytSFnnP6tS3nWlzvOXgcUP+Cle75wpL2HKFa8mlKU5DLdo1a9qhT6+j5/5w6aAWx2TKSX/sndahawsTs+bN+w7v7xO8lvNtqDLlsrSlJ+27DrAya968ed+h/Y6eXsvfA7gsdcmxuZ37kWVuNWzCiMux6jdLE7Alz2fE7L6t2pg2wUyaduja0VG28G1F7w4C1t/Y0ntgW7GIXso2cvJ71kb7PWHenqmWXZqbiE3Jl4CcCKvwEhCB3SqqWd9P0bN2TrHq297UvEWLfkP7Hg5aU2kRoUCZBThT4rhL0N9ztoyyaNOMfAmIm596eWJlcQybr8xphpl2D01j9jmuVZ9jlYrIDHsxbs6D1tQ7QfAtxepVduQDU37RXYEvestuYMg8Q5Q4zj/3+LPH1rzuU8mXgOxNr/QSkC9HPZ9Y2yosp+eO3PQqMLusgoCq8lHUHeF/pdmnwucO2d+t5Y4+/TReAvKz5Ore85O67Whv6taj34nNpwo4C7B+gu9b6lbvbq085wRU2on23/c3UpzGevVo4dat1/F1pwpueXhVthyrVCUZKY5DPK3ElLyutI3j99Jn955lZn34/D8V6ZKB/5PCVfF/pfcCLs4c4Nm55a5BI894Rharv55odUExcfmN7w9qWMpM7trrqx8rVemF023JvcPY70R0mrQcPPkybgv52gvyZRwVXgJSDZJV0fjxBDzn+g5s59Za5Nqp40HbVam33lcsm0p7fZlFhDrLrFIRn657/TW5u0d78x0S68D18qfv1P1ZsEZ6iWMdpSL39VZmysPsrMm+MWBYsHvYO04aV23f/fLmrzX+wyzdO3b0Xu77/Pr2il/nhGokLLu5josCiECdEKgtcczXqf+FMP2GvG1P1PZprtZ10o6/nAmGYXxLMAobHwFKHHcOSmXM6jVSQQwzcMT4tQ76+eP8STAqRO3kS9/OiOOKOvrXUv7Pxv52cYYrPjiZ/lG+RinUXspai1n6t902fEBCrtaL6ENEABFABGqEgIFTHd9OrBnmdOF/J0CLY24rN37Fa6SdajwRJI5rRCw25EQocczsR1FT5awbcVwYnd9a+kiu4QFLi2PeVm41/lgYV4KfM89T3hGnbhx18usu2mZzlHu/WjUrWnspV1WwwltzxLKxR/R4hUpVKaHriAAigAjoJIDEMblLcfUPJI5rSn6hdGqKQKMVx2Un1gG+5r2GNtbcyk3nuGYcF76WfU19evVrGbk0yoDw9dSFrSlfCxO37p0OTfd8+JQwKB0tZcjfxqXcW77S8+HTq0+SqyxnTTTK22PHLERy/5c1kRZKAxFABBABXQSQOK4BZSysrXWhr9/PkeW4pjTofyqdurEc1++j0UByLyp9n/r0qvBfWjELx2k4VxsIWFQMRAARQASqJIDEMRLH6jex/ad0HqqsAQSQOK5ySK2pCFrstRp237svM6u01+qTTp3FqSk4KB1EABFABGqVABLHSBwjcYwI6EsAieNaHY5R4ogAIoAIIAINgQASx0gc6yuMDDA0oluMjAASxw1h1EZlQAQQAUQAEahVAkgc/0fF8WBJO3qfX/QXEdCfwGBJu1odj1DiiAAigAggAohAvRP4NXG8MCKifktcXqpAByKACCAClQjU77iEckcEEAFEABEwJgJIHCO1jQggAo2egDENyqguiAAigAggAvVLAInjRi8LKpnQ0Cki8B8kUL/DKModEUAEEAFEwJgIIHGMxDEigAg0egLGNCijuiACiAAigAjULwEkjhu9LPgPmglRlRGBSgTqdxhFuSMCiAAigAgYEwEkjpE4RgQQgUZPwJgGZVQXRAARQAQQgfolYLTiuPT1vTfvoZJ5CZ0aQKC08Nqbj9kG3IhuqTMCDbmNCOXlnX3EZlM8C5UVnseafULrdxhFuSMCiAAigAgYEwHjFMcEpA7sH95kdFJCcYX5uM7EitFkRORvH+yKm+xemliCSDZQ82oDb6OfN5x6ic3mBKfxH4oaf0KNaVBGdUEEEAFEABGoXwJGKo4fp9mNi7CYnZIpKOkIZaaLTbiZSwZ/2q7x8JMQ+M1GQR+4FFwyGorKJJRpJ/1xkdvSZCXww3wCRMHBGXss2xzdmPlJqNiE8qLrXtz8/An6Xn5q/DA/ZeMLv8uEo8GQ+1kI1K/Wmk+PH+an05DbiFBm39zUWdxi8t9vKmAhavoJrd9hFOWOCCACiAAiYEwEjFMc86WDQLhuxHEJwJl/qMMXrBqWOM48ewIX7VyRSopjdViAmK5LGuJYnVo1U9aVYwP8/GEQ4FKIFPwW8avF5tPjh381nfJSRb20EVESsr6TGLf3+VzRp0LP8uv/hBrToIzqggggAogAIlC/BIxEHP/8lP3z12df/adePedy4WhEBnRtWOI4KywYF3k63SLFsTosXAutVzWElzq1aqasNbuG+WHtiOMaI/lLbVT26Ze9zLU+g99i7S3FrVZevm1Yk1V6QgVKVb/DKModEUAEEAFEwJgINHpx/LMwNubA3BH2nu8pcUzcvtZFEo71jSAPSYRTUoUfc8tLFSXZaasXx7QbHNlpTsLx25nbJvyCW0XZGzhzGMbNB6upMHwNeF+HUp4i/5YPXh5gPR3aTYFhGyA4q3LWusTxs/OkxfFCIROfUMK+RYB7kKeEEpwmgONpWG4P3VdAwjOQb4DOM2FNFJRRWb8OI+8Nzgb3jdBtClg7wL4U+M4rlbAoCT9jIdq7LouKzw+TWT9y7ibDTVx+M3H5TSRr75RduTolT72c/AZYull18Z7r/+jsdp5bRXmpgp8aPyxcnvJSBV2j0wCeW6DHVOjnALuT4StbI6IA7KRgFwZxchhiB53nwjxfyP+gLptAKwinXF6q+PECvHfBQFuwnAqjNkLIPeC+cQnkSwAMkqo9Z9QuNEshVwnEZ9g5H9puBP5ytLxgwCfA6ZfqYgtg4dPjh2u1jTLdR9hu8sx4miVQMO5SpWeQ+5xQ3o1d0Vrcdl4Cr4Gq84QKlMqYBmVUF0QAEUAEEIH6JdCIxTEzJVuamrbv7xBwidZPxKvM0HNpJ8+lnTwQ10pDHBOFtxxGh5uMveLkm+rjlzxhXtz4ifqKY6IEPJcCPgWWycH/PGxYC61tYEsao2+IEti9GCzsYF0g+J+BJYsBnwqhLyqoH4PFcT8n2H8W7GbAIAdYewq2OJGJX6EEBy34pm2EJXI4fgbmzSdVl3cOk+/XopQXr5MqH+8yaWFdXqqIPd9edGCjgpKe/DApvArDLlzfF3R9X1DEJAsNcUx8CFqxG2+6R7omZofvlRWTfCbYVBTH/NT4YU456QpwNVrmB/4h4OgAuA0cfMBypsTx+LUwwR3k52GPB3SUwqhA5quCcCtUkXIxuC2EtnNhSxAEhMAqR8Anw/HcqvMlCuBCKASGwu7N5BeVdefJMHlEQzEFNieIrEIw2xkIJRxerpbLDbONCsJXSDs3E7foIiyRtT6DXMsSRceWW4itnE7xv61V5wkVKFX9DqMod0QAEUAEEAFjItAoxTE3JZtZDXI6ePzxu/vcfMwFiIxrVhriWBmR0EQSteUmE78Mrg/oq684Lk0CSymsTmTVUgnsWgQWMvhECSBlHLSVwo7b7NUCWDAFBvkzp3SpDBbH0hAynUw54M7wTgk/00hF6EPpNlrw2UcyGf18DDY2MCSQOc0I70Obfvl/Rf77aCs7x0o4QOSu7aQhjpW3ZpvI+mzNuUvfW5YvG+SiXpAnnKDwVbpGi6OZKhBvYMFk6C9nTylx3NEVmB8KlHBuE+AL4L4erSCc8sdoaMNSJb8bFMG6WdDriF750jXS5VZB5MMEG5h4jk0qB0ZIYVEUc9pg24goSrwmX/J7N3OtElmfZ7Dkgl1LseXmJO0eGoY9obpKZUyDMqoLIoAIIAKIQP0SaHzi+OXFJSMsTc07D1t79ES+7p2MtU69ef6xmCT+Aru/G6HMdB6przh+GlLB+YF0AMiG+AxGHJPCaBLEsTsVEEo4thostlXwuzBYHE8NJYXU/QDAN0OJEohM6CmFgw/JD2nB55/PCi8leMyDNnuY0w/PzyVkn6p85CXxLXnCUpWUidrEcV78cJHMNozdDIRQ/rV+Z02K48Bn6hodXg4W7oxnBe3ewAnN8lJFdiBpLKfJC7cCzUpXynePAz4NLj+DV+whXwf4RvhAyW7hfKsQx0o4vQHw5fCISoos5GSIYL1oGngbER+SUwMcpvZoTkrkg6G0H5E+zyChzAib01zczSGTfSgq9bTqPKGaparfYRTljgggAogAImBMBBqfOL61tbNZF6n31RRhhad16gXfGEyScIndT6DScp9Kk3el09xgUhxf/siItkpXM3xIV4cUSv2QglIJp5wZQy8Xs/bE8ZkCtZTk/JW5fKsZ0CqOIWaQSDb7Mqt7Ki32qk6OtITl10juCLgMvvBEql2YuhU+PICL0fDyC/mJcCsIp5zho81vmDLVkw3K+jpzVePnS3+oy3JcXqoojob2UtgHQChh/xLouBOUbFfhEqxOoLbb6Ptj/y3DcPHkPbTBXp9nkHh1YIa5uPe2MM5vu1IFq/+E8ktlTIMyqgsigAggAohA/RJofOL4Q/pe5wkdzcXNe09fEZJy9ZsOkVH9qbfSXN4YxXGV/qyV6qj1tLaFV6VMhSWspkjl315NcYxPh2OpkMQ/sipYrPminJ8vHRYQx0QxrJwK1nIoU8AQKTinqMV9A2+jr0/OB2+S9m4pbtN/yp7L8fQ3Un2ewTeB48zE3T1ZRyNNXNV5QjVLVb/DKModEUAEEAFEwJgIND5xTNll775M2ElL5F6TlwUnJ3G7GXBzsNapN/d4jblVEEp4dRsup5B+DuWlCuEf9OlS6bIcv71I2qRP86y/7nOhoxeZLL1bRZVuFXw7K99yXHv+rLlxde1WQX8LEhbHwq2gy62CTpl0q5gCyZQFmutFXEA4XzqakDhWQvIBwOfAiQDAZ8B11h2FtHbXml94NdtImXc68M/R3ZtTsvjc5SL29xamMyuFnkFCeS3AxlQ8YH2uju+uZN/WtiqgyidUV6mMaVBGdUEEEAFEABGoXwKNUhxrTM/mPZz86YVxajWjbepVhldekGct0dfnmF6QtyqBsfkRJeCxEFq7AP12A2U8uSDPPZO9Si3IGxzAnDIFzgbrilZD5vMM6CYFhzgmclkOjJHC5PPkaTXFce35syozZlVakDdQVpM+x0sqLsiz9lODpbdy4xqaHxBuBVoc60r5QxS5IG8714Il4L8L1l3WK1+6DLRX+kXWo51fsPJSRdlt6CeFrrYgOcLsrUFHaJht9OTExM7NtMtifr0ItUSu8AwSj9zHNhWP8IrlR64U1iqOhZ9QgVLV7zCKckcEEAFEABEwJgKNWBzTcy0zPe+Q0wun3mTcIPdxY7ZyCx+7mwqfS4sCcsk8UZixfHS4ybgra3xTff2SJ82NHT5eX3HM38ot4C9mK7etN1jxRG30ZjGD2sotBJYuIV2QwypuZEsUg/MssHIA7zDmnXkpTygF/Bn8nEizpaM/+AfDjLmAz4Irb6lL1D7HBluOK8mRXzp9k3uU3MeN2cqtzfiLVPj6vuh88oUOxIeTDtRWbmtjPORXHCd7jxnpWZPieNomcDgG/meprdwmwBF2czphCy7dRrpagRbHOlMuBld7wG1hTSAEnod1qwGfCHvvsu2r4XOsCfP7LegjhZEe4E9v5ZZQcTnmF9i7iPyJYOcdJk3NFH71k9pro/v+S/ZoWIt1Fa/SM1heqnh6cKBYPMiP3QiPf2N1nlCBUhnToIzqggggAogAIlC/BBq9OObPu+SP1PujmDeA0O8BYf/anLlHxyzJTnNaHN1ucGSHWQlH02+52Ogrjknj3xs4fRjGUi8BGabxEpDv+XDAA6ynQdvJ5EtATmu8NaO8VPH+Njg6QqeJzNqvlawduuwNnNwPI+eC1QywcYWox6wmqz9xrPXnfhOX3yZeTWFIki8BsbZ069DxyCzvnGDXivscV2oX/U9pCRtCvdak+xTyJSCeV4HzLBcWx+WlCoFWEE6ZfgnIYeo1LpbTYMR68E9Xm3irzJc282eEwNjZ0Jp6Jwi+EYp4TgWEEsJcAbeH+zo8N/RHxMWsrzbiCqA1QChjvAaJm0p3FPCqz8WspSe0fodRlDsigAggAoiAMREwNnHMzcEo0EgJMBKW9cCuwVrUXsr6FJJ4A39MgpEna8xsrE+m9RKHuOPcT2w6LeBaXeZuTIMyqgsigAggAohA/RJA4lhRl1M4yqtKArSE5ZYYVhlf/wi1l7I+ZXjzD2lR9s0zfnF8d3s3cbPx5yr6FOmDqDpx6ncYRbkjAogAIoAIGBMBJI6ROG5YBGpPwtZeylWqOkIJAWsAXw0vtHkaVHk7ilAlAWMalFFdEAFEABFABOqXABLHDUsaVikCUAREABHQJFC/wyjKHRFABBABRMCYCCBxjMQxIoAINHoCxjQoo7ogAogAIoAI1C8BJI4bvSzQtKKhTxCB/xqB+h1GUe6IACKACCACxkQAiWMkjhEBRKDREzCmQRnVBRFABBABRKB+CSBx3OhlwX/NRojqiwhoEqjfYRTljgggAogAImBMBJA4RuIYEUAEEAFEwGgJGNOEjeqCCCACdUMAiWOjnRI0rWvoE0QAEUAE/msE6mYqRbkgAoiAMRFA4hiJY0QAEUAEEAGjJWBMEzaqCyKACNQNASSOjXZK+K/Zh1B9EQFEABHQJFA3UynKBRFABIyJABLHSBwjAogAIoAIGC0BY5qwUV0QAUSgbgggcWy0U4KmBQV9ggggAojAf41A3UylKBdEABEwJgJIHCNxjAggAojAf5oAoby8s4/YbIpnoRKMTzob04SN6oIIIAJ1QwCJ4//0pGh8EyGqESKACPwqgZ83nHqJzeYEp/3qjY0ift1MpSgXRAARMCYCSBzXgDh+FBCL9Y1gDknk+lTt1pe3aWn7/dJzPmu/WuPTzJMQ+M1GQR+4FFwy6ijfKitCKNNO+uMit6XJSuCHq7xRMwKhvOi6Fzc/f0LzUnmpQviq1ltq40N+Hfnh2sir4aT5LhOOBkNujfZ2Pj1+2IBaC/cN4asGZGfYLfw68sOGpabrLkKZfXNTZ3GLyX+/qc8hovZGUWOasFFdEAFEoG4IIHFcA+L4Y1b6yXNp5LE3zly3OAbfGEyScOlTHc1AJQBn/qEOX7BqWOI48+wJXLRzRSopjtVhXZO3wOfCIkb4qkCyNXuJX0d+uGZzaWipPQwCXAqRNdrb+fT4YQPqLtw3hK8akJ1ht/DryA8blpquu4iSkPWdxLi9z+d69amovVG0bqZSlAsigAgYEwEjEcc/P2X/rNeRnZ54iNRkiwYjjrm5kMiArg1LHGeFBeMiT6dbpDhWh7kC6x8QFjHCV/XPpZox+XXkh6uZbAO/vXbEsbq3VJOkcN8Qvlpn5Pl15IfpApR9yv7VkmgdJ7/F2luKW628fPtXU6ul+IaNogI0jGnCRnVBBBCBuiHQ6MXxz8LYmANzR9h7vqfEMfEyzUYSbnP6dvT++F4jI1qNj5m29+aTYrWx9sezW16bYrsPjzAbHNXfITkoU62qCeX9F8nXF/4R3W5wBGYd2WlG/NbwO0pWc+efvIJJ4s++Y5IilHd2TgnHNqTzZwitwzqRldJDEq72u+AcMKan5LCJ8xPRDJe9gTOHYdx8sJoKw9eA93Uo5d34LR+8PMB6OrSbAsM2QHCWurJ0UrrE8bPzpG3vQiFXI9i3CHAP8pRQgtMEcDwNy+2h+wpIeAbyDdB5JqyJgjIq69dh5L3B2eC+EbpNAWsH2JcC33ml0qwF/5PwMxaiveuyqPj8MB3n8zM/9+CRvXZ3aLGjt/WxRfKH1+hM6aslT72c/AZYull18Z7r/+js9opuFQJXiXf7JsrwiVf/jgn/vc9OSwvPQdMvyZ+UqHH9eHPmQMiYnh7tzd16DPBfcSrvJveNi1Bmv8iWLfLpa+nWWrTNqsvhqbKMKK5vCF8tL1Xw68gP85loDdOcTwN4boEeU6GfA+xOhq8sZ6IA7KRgFwZxchhiB53nwjxfyP+grpFA3xBOubxU8eMFeO+CgbZgORVGbYSQe6CmoTtfAmCQVO3Po3bsWQq5SiA+w8750HYj8Bd+5QUDPgFOv1QXWysK+kM+PX6Yvvqf6jmZ7iNsN3lmPM0SwMVdqjROcp8TyruxK1qL285L4HWbxjiKCtCom6kU5YIIIALGRKARi2NmuLc0NW3f3yHgEq0Y6GF9iH38cOerh4Oub18f00IS3v/obVpdEcWZmydHiMfHrfVNlQdcWzw7Eht0xVvBzMpEbuqoAeEWsxP3nEo7eeb6FscoE0mk8/X79ERiuDh+lRlyKlV+KnWbYyQmiXEMIsPk8U9mEatyuLlKM0CUgOdSwKfAMjn4n4cNa6G1DWxJY8tcArsXg4UdrAsE/zOwZDHgUyH0RQWdYbA47ucE+8+C3QwY5ABrT8EWJzLxK9QkSkuraRthiRyOn4F580l9453D5Pu1KOXF66TKx7tMTuPGnm8vOrBRQVWfHyZ1eaH/ot14iwO2sridxxI3rPDuIto2yvsZYyQjPgSt2I033SNdE7PD98qKST4TbHjiuIqrlDgeJv995Ok/jyS6uZ0e2kpmMSDqMtM3SkK3eLU29Zz4Z8wOeYLzkqMdRW6jfbh8X+4asw1vc9TeM8kz6Krb1sA+TWU91yvu0O1FCF4tL1Xw68gPazZ3pU84zsv8wD8EHB0At4GDD9jWp0Tq+LUwwR3k52GPB3SUwqhA5gsMIdg3qki5GNwWQtu5sCUIAkJglSPgk+F4btX5EgVwIRQCQ2H3ZvLr07rzZJg8oqGYau6cILIKwWwXJZRweLlaLqOew+9Xwj2nIHyFtHMzcYsuwhJZ6zjJdTOi6NhyC7GV0yn+N9vGOIoK0DCmCRvVBRFABOqGQKMUx9xwb2Y1yOng8cfvGP1KSivKctzC6SZtmiKU2cErIrBJ1+5RE/OHfxJMJDEHHrJz/PsMxzHh7Xdl0lNFycV4TBLr/Yi9+ulO6JFrhxMZw4zB4pibhwzzOS5NAksprE5kS1UCuxaBhQw+UTVSxkFbKey4zV4tgAVTYJA/c0pnbbA4loaQ6WTKAXeGd0r4mUZqLx9KIdHSyj6SyejnY7CxgSGBzGlGeB8Tl98qHSL/fbR1nwOiNVD29NDmvzdFv2aSIoq9Z7niA2Ii6cjKW7NNZH225tylT8vyZYNc1AvyhK/SluNWQUfYvpEaHNBWtM+Z6Rs37ZrKhh18zqrwj6dW7sY7/H2Ozqjkpq1INsLnFVuqz5EXopyPZCfrc5WOY9hfmvPiaDbfN7BgMvSXs6eUOO7oCszPJko4twnwBXBfj74hnPLHaGjDtjX5WBXBulnQ64he+dI11eVWQeTDBBuYeI5NKgdGSGFRFHOKeg6/X1XZZ4iixGvyJb93M9cqkQXGSS7lkgt2LcWWm5MqeGg00lFUF426mUpRLogAImBMBBqfOH55cckIS1PzzsPWHj2R/56ZU7mxnh7WR5xgxFN5qSLrSDTWPzGKWjWfeTAKG5oYlp/1gjnuHFocjjmk0TatH3GJZpLI+RfulmhbYl9f4vhpSAXnh/JSxetsiM9gxDEpQSZBHFtgQgnHVoPFtgp+FwaL46mhJN77AYBvhhIlEJnQUwoHqa8WtLTyz2cljhI85kGbPczph+fnErJPVT7ykvjWKa7JtAbKSm4UMLbnwDV78BahQXS0vPjhIpltGOsLQSj/Wr9TLY6Fr9LieFRCPJdjVlR/kesf0V/IYmdGSkTu8/9WG7wjD/vhIv/9TN+4u9Bc1mVBamwJFZlLgQ78ELxaKfIvndKcA5+pOR9eDhbujGcF7VbBCc3yUkV2IGnCp/uDcN8QTvnuccCnweVn8Io95OsA3wgfKNktnC9dQZ3iWAmnNwC+HB5RSZHRJkME69uDes4vdQ86MvEhOTXAYWqP5qREPhhK+1wJj5PMjcqMsDnNxd0cMtkBhPmcMjE00lFUk4YxTdioLogAIlA3BBqfOL61tbNZF6n31RStSosWxzZn7nFzTHF2RuilzOeUpknzjNTi+7sk9S095ZfcPvAHGaHJwMjuM67Ybb3qdzXrG3WpvFRRX+I4N5gUx5c/MvKIqxcdyPAhXR1S2EISSjjlzBh6uZi1J47PFKhFG+evzOVrWIAoiT1/YaSlK843PHObtUHMIJFs9mV2Lq+0cEr4KutznMIVrDg/8EL6ebpv3LjUg58jHRYd28P0jU+XD/pYkR9u79zz8LgZ59Ycu5/I9Q1C8CqXnQEBWsLyOcsdAZfBF7rHsr6/XMofHsDFaHhJ9XbhviGccoaPNr9h6gcESoagZgAAIABJREFU0pAsmC9dGF3iuLxUURwN7aWwD4BQwv4l0HEncN7bXEUMCPzHe873x/5bhuHiyXvonxGEx0kaL/HqwAxzce9tYZw3OfM5vXKjMY+ifBp1M5WiXBABRMCYCDQ+cfwhfa/zhI7m4ua9p68ISbnKCRRdwzp/liXF8bD4o0kZ8fwjM0u9wqkk+8H19NPB1912Jc2aHSmSRK5KYH5wROJY03LMF218cVyl5yi/UfhhQnk/O2awWNbF5tK+8Cza9rxr/i61bVhY/gpf1RTH/KxvXOoh2mHrXcngnZek7huf0h4ojp1JdnH/e9Hso93Esm6rs25xKRCCV7lovxoQlrCaIpWffjXFMT4djqVCEv/IqmCxtgvT/oWNLoOAOCaKYeVUsJZDmQKGSME5RZ0O6jmV+hW/QXWFvz45H7xJ2ruluE3/KXsux9NWA+Fxkk7qTeA4M3F3T9Ypi0tf08TAXSovVTTwUVSThjFN2KguiAAiUDcEGp84Jg1XyrsvE3bSErnX5GXByTwFo2Hz4A/rpFvF4KQEbb+M86PRYeLzbfcp4U03p9MLtt6cjcckV06wa+oJZeaW8eEt3DL4N2rdrYKLYJjPcSW3CkIJr27D5RTSz6G8VEFKEEPdKt5eJG3Sp3nWX/e50NGLTJberaJKtwpd4thgz1FCmXDEGxf5erxQ28LDtuxRi+PcOCG3CuGrwuKYdKtwW6xv3/gSvsMLNzvrzy0x5FqZpCd4lR+zyrAu5wf6O6GwOBbuG8Ipk24VUyBZx5MinC9dKSFxrITkA4DPgRMBgM+A66yTTHmpAvUcgX6l2VuUeacD/xzdvTkli89dLqq4q7TAOEk949cCbEzFA9bnss8al76wOG6wo6guGnUzlaJcEAFEwJgINEpxTA/ivKHfvIeTP71ATXhYL74YbyKJ2nSDWcBHfMz02ZTgGMrsOfAsNKGfbTLn/kgo7+6bGW6y/iazD0ZqcmtJ5PwIxpBcBtcHSMJHB1XYR4m4fa2LJGJlgtoSxs035aWKxwGxmCQhtEj7VX5MfphekLeKTZMoAY+F0NoF6B37lfHkgjz3TCZNglqQNzigQhZENlhXtM8xADOgmxQc4pjIZTkwRgqTz5On1RTHBnuOEsrUwOO46NDmh6ws+5a/dYhMLY6VGbMqLcgbqPdVYXFcfNO2qaz35hx2A4qSv31DZqxMjaJZPUudbX1oWSS7JyChjN1/BG96Wk73DeGr/Nb81TAtYZdUXJBn7adubnorN63JCvcN4ZQ/RJEL8rZz/aoE/HfBust65UsXhv5Sd5ElVqmEZbehnxS62oLkCLO3Bh0B9Rx+v6oErdLpkxMTOzfTLov5MbWOk+Qz/sh9bFPxCK9YfmQ63BhHUQEaxjRho7ogAohA3RBoxOKYGcdpK/IOObNUSNByTBRnbpgUgQ2PXX4kVX4yxXFeJNY/ZsctRiv/yLzWs1+4pX3yXnIrt1S39THNJRG2YYz7MvH57pH5EdjgmIWHr/v4XZ0wPhwbnRBZ8YWrRPGtlaPDzWckep2hXph3Li0pj9ET5aWK76nJHSQR/dZf96G3cou+w9+uWHOKYirI28ot4C9mK7etN1iZQl21mEFt5RYCS5eQLshhrHmbSaEYnGeBlQN4hzHvzEt5Qt5OfAY/J9JA6OgP/sEwYy7gs+DKW+oStc+xwZZjXXXR5/P8lInNZe16nVh9KMnjUOSCEUek4z3V4pj4cNKB2sptbYyH/IrjZO8xI/W/yuxzrPY55peHKPlr477WIo8RDlHufokbVvp0FbkO9MhlVnb+yFvf2wW3ki/fR27ltsP99OCWMku7tGt0CsJX+bn8apiWsNM2gcMx8D9LbeU2AY6wW+YJW3DpTQB19Y0qUi4GV3vAbWFNIASeh3WrAZ8Ie++yvU7D51izXt9vQR8pjPQAf3ort4SKi0S/wN5F5A8XO+8waWqm8Kuf/Nd6zn3/JXs0rMW6oDESmR0ny0sVTw8OFIsH+bHb8/FvFBbHDXMUFaBRN1MpygURQASMiUCjF8f8MZ0UfILimHy1Qf6tvRuudB0WYTY0su/SJJ/Ue9wv44Tyfl7Utdmzo9oMisD6R3aYEud4MvMta8IsL1WUFdw+tj2u3/jI5iOjh625djlXvYUcV4zC9NSFs6Na9mfe+sHtUUWZY7NvBCQMHBshot8JsjxNn63NyHzfwOnDMJZ6CcgwjZeAfM+HAx5gPQ3aTiZfAnI6W4vaeH8bHB2h00RmlRVn2y57Ayf3w8i5YDUDbFwh6jGrfupPHBNfrqcmzB+zr0sLt8695AtPPj7vvk8tjstLFdRrPqwt3Tp0PDLLOyfYlbfPsfBVYcsx2TfeBO87M6b7jnbm7j36H1/sq1C/fIRQ3s3LXDfnqKSdW2uRq1VHL+nKxPNc3xC+yvUNAwK0hA2hXrbSfQr5EhDPq8D52QuLY/L7mO6+IZwy/RKQw9TLZSynwYj14J+uNvFWmS/V2yEjBMbOhtbUO0HwjcDf1ZtQQpgr4PZwn/d8GcCHfwvqOXwawmFCGeM1SNxUuqNAw6fC+EZRY5qwUV0QAUSgbggYmzgWnhLQVUSgcRFgJCzrF16Dha+9lPUpJPEG/pgEI09q+SKnz+0oTjUJEHec+4lNpwUwP31UM7UGfnvdTKUoF0QAETAmAkgcKxr4yI6K918mQEtYbuFjDaKovZT1KeSbf0iLsi/P6Uifu1CcmiJwd3s3cbPx5yr6X9VU4g0tHWOasFFdEAFEoG4IIHGMxDEi0HAJ1J6Erb2Uq9RGhBIC1gC+Grg9Saq8BUVABAwmUDdTKcoFEUAEjIkAEscNVxgZPBmgGxEBRAARQARoAsY0YaO6IAKIQN0QQOIYiWNEABFABBABoyVQN1MpygURQASMiQASx0Y7JSC7ESKACCACiIAxTdioLogAIlA3BJA4RuIYEUAEEAFEwGgJ1M1UinJBBBABYyKAxLHRTgnIYoQIIAKIACJgTBM2qgsigAjUDQEkjpE4RgQQAUQAEWjQBOpmOkS5IAKIACJAE0DiuEFPCcjqgwggAogAIoAmbEQAEUAE6pIAEsdIHCMCiAAigAg0aAJ1OSmivBABRAARQOK4QU8JyGKECCACiAAigKZqRAARQATqkgASx0gcIwKIACKACDRoAnU5KaK8EAFEABFA4rhBTwnIYoQIIAKIACKApmpEABFABOqSABLHSBwjAogAItDoCRDKyzv7iM2meBYqwfjEdF1OiigvRAARQASQOG70k6LxTYSoRogAIvCrBH7ecOolNpsTnParNzaK+GiqRgQQAUSgLgkgcVwD4vhRQCzWN4I5JJHrU7Vbbt6mpe33S8/5rP1qjU9RT0LgNxsFfeBScMmoo3yrrAihTDvpj4vcliYrgR+u8sZ6j/D24T6vK8dyvlQmya8FP1zvBa7VArzLhKPBkFuj/ZlPjx+u1YrUSOL12zcIZfbNTZ3FLSb//aZy56yR2umZSO2NhHU5KaK8EAFEABFA4rgGxPHHrPST59LIY2+cuW5xDL4xmCTh0qc6mr1KAM78Qx2+YNWwxHHm2RO4aOeKVFIcq8N6TsD1GA1iBolksy9ryEF+LfjheixqHWT9MAhwKUTWaH/m0+OH66A61cyifvsGURKyvpMYt/f5XK8+FbU3EqKpGhFABBCBuiRgJOL456fsn/U6K9AzK5GabNFgxDE32RMZ0LVhieOssGBc5Ol0ixTH6jBX4AYb0C2A1LVoXDWqDuraEceNlaRhfaPsU/avNoHWse5brL2luNXKy7d/NbVaim/YSChAoy4nRZQXIoAIIAKNXhz/LIyNOTB3hL3ne0ocEy/TbCThNqdvR++P7zUyotX4mGl7bz4pVhtrfzy75bUptvvwCLPBUf0dkoMy1aqaUN5/kXx94R/R7QZHYNaRnWbEbw2/o2Q1d/7JK5gk/uw7JilCeWfnlHBsQzp/dtE6JRBZKT0k4Wq/C84BY3pKDps4PxHNcNkbOHMYxs0Hq6kwfA14X4dS3o3f8sHLA6ynQ7spMGwDBGepK0snpUscPztPWv4uFHI1gn2LAPcgTwklOE0Ax9Ow3B66r4CEZyDfAJ1nwpooKKOyfh1G3hucDe4bodsUsHaAfSnwnVcqzVrwPwk/YyHauy6Lis8P03E+P/NzDx7Za3eHFjt6Wx9bJH94jc6UUJ5Y7oovjDs4f59VuyMr4l5fPuzf02LXUIebcXSE8lLFt4KTe86M6r6jvZlb177+S0/k3eTyzU8cLZJNOcd2BkIZucsLF505RkcouGojktmceBS41b9/W7eO3Y7Y7spKomtEPNnQS4abuPxW6RAd3My1IL8W/DCXu64ATfI0gOcW6DEV+jnA7mT4ypIkCsBOCnZhECeHIXbQeS7M84X8D+omFmh94ZTLSxU/XoD3LhhoC5ZTYdRGCLkH3DdMgXwJgEFStceO2nVnKeQqgfgMO+dD243AXxaWFwz4BDj9Ul1sXTTKSxV8evwwfYuR9Y1M9xG2mzwznmYJAOEuVRrruM8J5d3YFa3Fbecl8DpGYxwJBWigqRoRQAQQgbok0IjFMTNVWJqatu/vEHCJ1hP0lDDEPn6489XDQde3r49pIQnvf/Q2o66KMzdPjhCPj1vrmyoPuLZ4diQ26Iq3glWHuamjBoRbzE7ccyrt5JnrWxyjTCSRztfv05OQ4eL4VWbIqVT5qdRtjpGYJMYxiAyTxz+ZRawG4uY5zQBRAp5LAZ8Cy+Tgfx42rIXWNrAljS1zCexeDBZ2sC4Q/M/AksWAT4XQFxVUiMHiuJ8T7D8LdjNgkAOsPQVbnMjEr1ATMC28pm2EJXI4fgbmzSfVj3cOk+/XopQXr5MqH+8yOQkbe7696MBGBVV9fpjU5YX+i3bjLQ7YyuJ2HkvcsMK7i2jbKO9npIGNFsdd5Mt3JzhN3In3OjJjRazbn74dRW7zokrIrImSi9sPWJjsHLUyyl0ev2buAUuR2+8hrBemHuJ4uNR/2NzL233inabvbStyHX4gn8q38MLZpJ1+STu3B3YXyYauTCTD5HEzjGtBfi34Yc0GrfQJR3KZH/iHgKMD4DZw8AHbvpQ4Hr8WJriD/Dzs8YCOUhgVyHxFIQRbv4qUi8FtIbSdC1uCICAEVjkCPhmO51adL1EAF0IhMBR2bya/IK07T4bJIxqKqQbNCSKrEMx2QkIJh5er5TLqG1zPLy9VFISvkHZuJm7RRVgiax3ruI5EFB1bbiG2cjrF/3baGEdCARp1OSmivBABRAARaJTimJsqzKwGOR08/vgdo19JeURZjls43aQNV4QyO3hFBDbp2j1q2v7wT4KJJObAQ1YBvM9wHBPeflcmPc2UXIzHJLHej9irn+6EHrl2OJEx6hgsjrk5zDCf49IksJTC6kS2VCWwaxFYyOATVSNlHLSVwo7b7NUCWDAFBvkzp3TWBotjaQiZTqYccGd4p4SfaaQy86H0Ey287COZjH4+BhsbGBLInGaE96lkZDVx+U3kv4+27nNAtAbKnh7a/Pem6NdMUkSx9yxXfEBMJCeOhydcKS9VpF/uLTq2560Sft5f3ko25OBzMv6XzDmmsj6ynLtMxQuPzHDDe0X+Q5/qIY4tZ6al0JF/vnQf4YL3ibrML6Sun875cX41TJNcHM3W9w0smAz95ewpJY47ugLzw4gSzm0CfAHc16P1hVP+GA1t2NYk2RbBulnQ64he+dJ11OVWQeTDBBuYeI5NKgdGSGFRFHOK+kalHkIUJV6TL/m9m7lWiSww1nHplFywaym23JxUwUOjkY6EumigqRoRQAQQgbok0PjE8cuLS0ZYmpp3Hrb26In898yMy80T9JQw4gQjj8pLFVlHorH+iVHUIqrMg1HY0MSw/KwXzHHn0OJwzCGNtnj9iEs0k0TOv3C3RGPFVXmpor7E8dOQCs4P5aWK19kQn8GIY1KgTII4tsCEEo6tBottFfwuDBbHU0NJvPcDAN8MJUogMqGnFA5SXy1o4eWfzwogJXjMgzZ7mNMPz88lZJ+qfOQxXgpcYwkEykpuFDC258A1e/AWoUGcOB6flFReqrgXZS0KPPBRCUSOk6XM2pMqCSlet82PYXeTIJRJ3j64yamjtG+MHuJ4pLyAq9HfLp5407MB/ELWnjgOfMblS9pZLdwZzwravYETmuWliuxA0khPt7hw69NtpCvlu8cBnwaXn8Er9pCvA3wjfKBkt3C+NBOd4lgJpzcAvhweUUmR0SZDBOu9g/oGv0dxYeJDcmqAw9QezUmJfDCU9psSHuvoewllRtic5uJuDpnsIMB8TpkJGulIqEmjLidFlBcigAggAo1PHN/a2tmsi9T7agr/N0T1HEP7HJ+5x31SnJ0ReinzOSWY0jwjtfj+Lkl9SwuCktsH/iAjNBkY2X3GFbutV/2uZn2jLtWjOM4NJsXx5Y+MeOLqRQcyfEhXhxS2kIQSTjkzhl4uZu2J4zNqKan2V+byNSxAlMSevzDS0rWCj6/5+RP6iOMbl3rQO8TRWRPK1IBjOG1gJltQD5/jILVPeQWPZDrB2hPHfJJyR8Bl8IXuk6zPMQfzwwO4GA0vqf4s3Pq0ONaVcoaPNr9h6icCErVgvnRhdInj8lJFcTS0l8I+AEIJ+5dAx53A+e5zFTEgYPR94/tj/y3DcPHkPfQPBcJjHQ2QeHVghrm497Ywzl+c+bzxj4R8GmiqRgQQAUSgLgk0PnH8IX2v84SO5uLmvaevCEm5yolXXVMCfw4mxfGw+KNJGfH8IzNLvf6pJPvB9fTTwdfddiXNmh0pkkSuSmB+rKwvy3FjFMdV+pXyG4UfJpT3s2MGi2VdbC7tC8+ibc+75u/CkTjmU+LC1RTH+HQ4lgpJ/COrgsXaLkz7VzK6AALimCiGlVPBWg5lChgiBecUdTqob3DNxw98fXI+eJO0d0txm/5T9lyOp7/5C4919O1vAseZibt7so5VXJr0b2g2PDMBd6m8VNHAR0JNGnU5KaK8EAFEABFofOKYsiDefZmwk5bIvSYvC05OUqtbDXsJf0og3SoGJyWwP7vzL2mGic+33aeEN92cTi8je3M2HpNcOcGuuCeUmVvGh7dwy+DfqHW3Ci6CYT7HldwqCCW8ug2XU0g/h/JSBSlQDHWreHuRtEmf5ll/3edCRy8yWXq3iirdKvhWSW6ni/JShcF+pYQy4Yg3LvL1eKG2hYdt2aOvOBZ2q3iTMkkkk55U24bDtnrirS6cohuI3q2ivizHms4P9Lc+TQsu152qbH1dbhV0yqRbxRRI1vEsCOdLl0FIHCsh+QDgc+BEAOAz4Dq1XJK+C/UNfguWlyqUeacD/xzdvTkli89dLqq4bzSh1DnWUc/ptQAbU/GA9bns88IlLiyOG+xIqIsGmqoRAUQAEahLAo1SHNMTAG/aMO/h5E8vUBOeEoovxptIojbdYBbwER8zfTYlOIbeoRN8FprQzzaZc44klHf3zQw3WX+T2QcjNbm1JHJ+BGNILoPrAyTho4Mq7MFE3L7WRRKxMkFtJ+PmqvJSxeOAWEySEFqk/So/Jj9ML8hbxaZJlIDHQmjtAvRu/8p4ckGeeyaTJkEtyBscUCELIhusK1rv6PSJDOgmBYc4JnJZDoyRwuTz5Gk1xbHBfqWEMjXwOC46tPkhK9q+5W8dItNXHH/JnGsq67O14oK83pGXmPo+cGwrs1pw6wZ9WpYvGyTDxyYm0qf6iOPHCSNEsukXdLi40On86l9awi6puCDP2k/doPRWblqTFW594ZQ/RJEL8rZzPacE/HfBust65UsXhv7adpHdGq9SCctuQz8pdLUFyRFmbw06AuobfFBPTkzs3Ey7LOZH0zrWkc/pI/exTcUjvGL5kelwYxwJBWjU5aSI8kIEEAFEoBGLY2YOoC0rO+TMQiJByzFRnLlhUgQ2PHb5kVT5yRTHeZFY/5gdtxit/CPzWs9+4Zb2yXvJrdxS3dbHNJdE2IYx7svE57tH5kdgg2MWHr7u43d1wvhwbHRCJLtNGFOY4lsrR4ebz0j0OkO9MO9cWlIeozbKSxXfU5M7SCL6rb/uQ2/lFn2Hv12x5vTGpMnbyi3gL2Yrt603WBFDXbWYQW3lFgJLl5AuyGGseZstFTjPAisH8A5j3pmX8oS8nfgMfk6k+dDRH/yDYcZcwGfBlbfUJWqfY4Mtx7rqos/n+SkTm8va9Tqx+lCSx6HIBSOOSMd76iuOiU+XdhxsbbJzNLmVW8LaeQcsRe5TzrNtRHy5ctS3nchtyKJIN98rjpM8W4t2z4ti13TqI46/P1jZUdbW+vRmX3ort9uR+rSgcK1pCTttEzgcA/+z1FZuE+AIuymesAWX3uZPV+tXkXIxuNoDbgtrAiHwPKxbDfhE2HuX7VcaPseatfh+C/pIYaQH+NNbuSVUXAb6BfYuIn+a2HmHSVMzhV/9xPj6xn3/JXs0rMW6sDASmR3ryksVTw8OFIsH+bEb8PFvFBbHDXMkFKCBpmpEABFABOqSQKMXx/z54P/snQdMFOn7x80/G4nx8jN3l5uzxCOnFz2NjdiNWM8o9lPBGj3rqah4J55tQam6NkSQlV5URMVGEaUqgoqoiEMVWQtFUAQULLDo/DN1393ZmV1YUMqTbOCZtzzv837m3ZnvvvPODCn4RMUx+eIDxd39/137fUz4d6YRg9fEH0t6yD18V1n1KDfyxsKFkV1HhrcbGvHr7GhL/9SX7BRmXXVGTeE9zz3RQ6ZEfD/+ypjNNy7nqB4hx4VReidpxcLIH4cyb/3gnmBFTcem3/KJHTEpXEK/E2Rtsj6PNiPbLcZPuOKTqJeAjOG9BOSjAj/siA+bg3ebRb4E5ES6Fi3y6h5uaYn/Np25B4ub264pxv0P4uMX4z0s8Km2eGQeq42+nThWvruZFLvsjwO9f7DrNUC+wj8vxP6AvuKY/AVSGCA7OaGPffeOdr0He//t/1jtLS01pee9zk4bJuvxo9PgcYFbwl4wFw3IJ85SLwERX1ahrLp9K3bRqH3GRtQ7QfR8OB03NrQatIQ9Rb1Ope9s8iUgsus4t5JeXByT/RXe++Ke6ZeAuFKvjzGeg4/binvfUU3x6myXGs94yil80kK8C/VOEGwbzj31mc4NtcWx5fgj5BuklYD+iW1tbIiTUVZFHRpp1MHMoZC3pqL1HQm/5kkR2gICQAAItDZxLH46gVwg0NwIMBKWXfndiOE1nWd9glQW40tn4OP9tfxU06c6lNFJQHnfeohRxzk+N3SWbAUF4FQNBIAAEPiaBEAcZ7SCMwd0oeUSoCUsd2tjI3ak6TzrE2TxRXJG2QNZVqRPLSijP4EHe/oY/W/KafU1VPpXb1klv+ZJEdoCAkAACIA4BnEMBL4lgaaTsE3nWaeuUlbhPptxbBPOPXVEZxUoAARECMCpGggAASDwNQmAOP6WwkjkZABZQAAIAAEgQBP4midFaAsIAAEgAOIYxDEQAAJAAAg0awJwqgYCQAAIfE0CII6b9SkB5o2AABAAAkDga54UoS0gAASAAIhjEMdAAAgAASDQrAnAqRoIAAEg8DUJgDhu1qcEmDECAkAACACBr3lShLaAABAAAiCOQRwDASAABIAAEGgxBEC4AAEg0NQEQBy3mAMizB4BASAABIAAEGhqWQD+gQAQAHEM4hgIAAEgAASAQIshAMIFCACBpiYA4rjFHBBhvgQIAAEgAASAQFPLAvAPBIAAiGMQx0AACAABIAAEWgwBEC5AAAg0NQEQxy3mgAjzJUAACAABIAAEmloWgH8gAARAHIM4BgItgEB16Y3i8nSQBUAACOhDQFl12WmQ0XezZaVVuD7lW1YZEC5AAAg0NQEQxy1AGLWsAzdE2+gElIo9o2yx9nvXxFW0wjN9o+MCh0Cg9pbVAKPvFgUlt0oUTS0LwD8QAAIgjhtBHD/2udpucDjzMYnYmqRdwbxMTj54/E72W+25jX4Qf3IK/3lqBv3BzHCblK/Urs6OKKuS/b0xid2ahCoctXVWbJQCL7MOHLrmmf2uudDQp1PKQheLfcZd3balVoqFray6YLsf6xTiR/tE2aK2Pi223DIlqbhbEJ7TqN8ylB5qfx1KzW3EKh9b95Fi7W1+Rj+zbyZppfFNxqSyKv329l5GP8w6Xyz2fdEacCMmNt15AYQLEAACTU0AxHEjiOPytDv+p5PJz/7oTsLiGPeIamcSe0lU3zTiobkCx09epD4eeI/mJY5Tg/0widP6JFIcq+xG7LuIKzxqpES68HKjiieR5r5mFk+IqNh+fc5fs+NoW1kBOGaGRzTqtwylh9pou01nN7cRqywNPXfzQMBNmZUbJnGa7UjaB6IU97US+CZjUllxautvRtjyY2+/6ZqKpjsvNLUsAP9AAAi0EnFcW5le+02Pg/SJQZmU0LnZiGPuXKVMwX9vXuI4LTQIk8is7pLiWGVzATep0dykRiN2lidEVGy/PudG7Fe9XDWNOP6WJJvniFVWpZ8/gUkOWD8UPfDWa0zWVNZ7Vb3WI/+Hq8uNjX7acPlevUZO0xVu2HlBhAYIFyAABJqaQIsXx7WlV6MOLx63XPaKOkYrXyRPNQmbeuLelYMxA8aH/zQlas7+20/KVBfXPj29e2j71b5jw78bFTl0XUJAqkpVK6sePU+4uWLple6jwtsNi/jNImZX2P0q9tCv8L/WziQmuIRxpay67zQ7rN1/d9BDqtaDoDItsZ9JmGrdBbcAY25iNuscdcK3a4rxk6745GV4jz/xsZtx95t4NVLxgwI/5IgPm4t3n42P+Q8PSlN1lnYlJI6fhpBzbOdKuR7hB1bimCO5qazCrabhlifwtcvxvuvx2Ke4/D+813x8cyReQzVdFErWDUrH7bfhfWbjw9bhBxLxj0hU/F6gKWEnO0v2b0mjyqM2Xaam9GLA+Vmj9/f+0b7fEPmSw+mxXH8VcRMl0tmn2R2qrIpwPoQ/GYwvAAAgAElEQVRJTnoyPa1Kf54uXXlssLFdF8nuHr1d/5SmRNJ7UPnkvwG8a8HtbX6WuOzg9sKHQv99Jyf0dfjlO7vfB3uv8cu9zbr1W2uLrYh2WXagR/ej66OLLrt69+/sbLrudjRNo64641PxycOn/ujv+Esnu37DvdcH5t7mfq0pSw5Ml2LTr5+PCps5yMm4s2zk3EvyJ/qtHkYvYUukv1ila+7civxDVseHG9v16O2+2Ptx8B5kWUVddQbKFrXRfaHVpvfvCRyX7cT7/YkPWYfvTcDfs/tXWYibm+HmoXi0HB9tjvdajC/xwBVvVLGJjElxzyTJ57i7Mz5iHm78Jz5hG37qIa4iKdyuEsdHmqnWEakWFK3Bc6pw5VvcaRnebRuO3p6VG4Rj0/ATL1Rha0VBJ6L0UJvObYMjVkQcN3hMptqPm7ddlpKfJrIjuCyNIz+Xrqx6cHV9F6NuS2KRAdkSzwsiNJpaFoB/IAAEWrA4Zg6Oxh07/jJ0nc8l+sxNHwRHL48Za33dNeDmnq1RP5iEDXW7R4sYZVnqjlnhRlOi//FIkvvcWLUwot3Ia+4ZzNlRmZM0YXhY54Vx+wKT/U/e3GkZ2d4kwvrmI/qw23BxXJB6KjBJHpi02zKinUmUZQBpk5+Lqa9ZtcEd2fmGsgKXrcGx2fjfctw7BP/vH7zLVHxnMhtzBb53Fd7ZHN/ii3ufxFevwrE/8bPP1c73DRbHQ6zwg8G4uQU+ch3+TyC+04p0fo065dASZ842fLUc9zqJL1lG6gz3bKbd968TnxfFa35KUjkpeTXkF8nhbRlU91Gb1OUVFxxcukrsRiy9vFset8NK3tfIZtC/j5gfITrE8QvnP3ZjXd2Wy+JlAdftdvkO6iDtvzWDvOCrLD0XHO90PN5pj29fidR0Qxxpk5/bofReUFZc2HO4c3unCRsi7eUxmxcfNpbYzTxFrVlUVpHiuLd87d5Yq+lO2ICjFuuv2v3r0VNitySS0rjKirM7D3XpKJv+b5SDPNZ6tVtPid3EY0+ZaTBaHI+Rzxx/4t+jcXZ2J0x/knYeHnmZo8Hf6VwKewn7QED4jM48cax8E7B+L9Zhn9nmKAePa+tnHJs2VV0co2xRm/MvZHD79+/juPcp3HIdjk3FXTLZUUeJ1Cn/4NPscXkIvs8R72mGT/BlfjgpRcekDs9luN0KvNtifGcA7nMK32iJY7Nwrxzd7SoL8XNncd+z+N4d5M+2LSGkTX6u4GXUMMsOILsQxH41lFW461qVXIYRW98RKySODRmThWHrzXr9z+iH3uISWeuRnxvJyteeazsb9bAKRH+rt8TzgggNEC5AAAg0NYEWKY65g+N3PUZauXjllTD6ldRA1MzxD1a36SkiZVV60PrwdjNu0Nf+3lyMbW8SdTiLPde+SrH8I+wX51T6wFpxIaadyVX3x2xu5f2zR2+4xjHTGA0Wx9xRu2FrjqvjcWMzfFMcG1UF7rwS7yzFK6lTflU03s0Md7jH5hbif83GR3ozm3TTDRbHZqdIP6lyHLPGS6rw2mRSAx2jlAotcZZHMA3V5uFTp+KjfZnNlLBB6M06tC3xPkDP7nNAtBrV95d1kvZac4+dta28uPsQ1t7/SAXVX3FxXHF7nkQ67lgBE4bybcS5SOuj6QloQ0IXqd+lLuooHSTNfsBAKz1qYYcNiLhIzaOT4nhs7LW66ow7lwdKPPe9rMJrH639STra5RnZ1pvb5h2kY1yesWq4PHDDXuzX86cZV9TM8U8BR9kxmRTk003n9Wg0ZjKGnH9+44njqrsL20sH7WJjrlFIR9qobsjT8FCvTXr/rrrCkizG/5qFD5Wzm5Q47mmLM5drqvDT23HsL/yRHmNS3HP5FbwrO8bIXr/GtyzABxzVq126g0LLKpQKfNpUfPpp1lU2Ps4MXxnJbMKIre+IFRLHBo5J5eu4G/LVM/t00iqRRY783PCuOGf+o5Hxjni1FRot9LwgRKOpZQH4BwJAoOWJ4xcXVo8z7tip15h/3PwUr5hzG3dkpA+C4/wYiVNXnZF29Eq7oXGR1A1YqS6R7UzjQhVpz5nP/SOrwtqtS6bnlj5Fx31nErHs3IMKbXdrfStxnH9KbfFDXXVGUToek8KIY1IKzMCj2YCVVbjnJrzzbrV1Fw0Wx3+eJfE+8sGxHXhFFa5Mxfub4S7UTwta4ngrWKlRhTsuwbvuYzbfPDsdmx6o+cmNR+dyuF2mYeTFjkMXTtRVZxTm+V/NjNJHHH96sKKTtPdfSVcrhB9GISSOyfTdy6LYisqqePdjWPtAtypyYTQpjqfEx9dVZzyMHCbxPVxehSuzrYylw2QUgdQIE4n9svOqyfII1+OYxPsgPa7omeMJsTFcT9Mih0psl15h2+LSRQyt4jg3ZqxEOi+UXaGhrDqz1akxxbHvU9X+dV2Ld7ZnVlbQyyo4oVlXnZHuS146oMeh+JikR46Q5wdeODYHv/wUL2A/8i04tg1/Q8lu8XZpeoLiuAo/8R+OrcUfU67IYrPwcHZNEYzY+o5YIXHcKGNS+SYhyWfdn/2+JyWyy1l6VZX4kZ/e+8qqlNBF3xv1WZfKHhKZdGrSpIWeF/g0QLgAASDQ1ARanji+u6vXd73N3K8nalVatDieevIhpzPK0lPOXkp9RgmRZFmElrW/q5Ne0qfeinuHl5IF/m9ERF+La+a7rh+/nvaByqqrzvhW4jgniBTHl8sZmcL1izZSjpFLHRLZIJVVeKA1M9HLlWw6cXyyUCWeuPXKXLsNM7KvmUqkFudZwafhRHzmWFl52eVYD3Kiek+v/q6TLU5v9nwUx+1B2pWQOL51qR/9dDm6mLIqyccToyeJdYrjW5f6aZkppyaYyelPZs1xIteXMoXvuTsh9JjkEsUNreJYoy8aNz+JOxTPpSUsun/lljgmxd/R3xR27S/n5E0mfuEK/oL6lomPSXHPKce0rRumLlyQJEXbpYMREsd11RllV/BfzPADOK6swg+uxns64dwdBVxHGmC0zRErJI4bcUx+zPPeOQYzmrWPvkAhfuSnd5yy4LBFJ6OBu0O5depMOn0vSks+L6A0mloWgH8gAARanjh+c2e/9bSenYy+Hzh3/anE6xrShy+O0bMdKY7HxLjFp8Sgn9Q01Z1GFemZN++cCLpp5xy/YGGExCRiYyxzeQ7EMX/mGBVPqDjWuYIT3SkatiFSg9RPlcmZGZ4nE2zsz69c6NbHSNpnU9pdtAmNkzeXZaA4ljjMc9eYLM+NZ9bB88Qx16j+RjMXx2hHDBTH2FzcMwmPRz9pajPW5qHafyjSMYiIY2UZvuFPfJgcr8nAR5vh1okqPzBiyes89RmxTSqO3z8JCdpuNvBHo65DZ++7HEPPg4gf+em9X+w7+TujvjJ2mRk3LFv0eYFPA4QLEAACTU2g5YljUgBVPXgR60RL5AGz/g5KYFQImcWbIeCOj+TyWZfIdqPiY/W7nK18e89+dliHHXfoG6eKg2PamVzzY+9tV1al7pwS9oNdCupf69MquAINW3OssaxCWYUX3MMvJ5LrHOqqM0gp0NBlFS8vkHPSJ5DZX/vFeM9DpFv6aRU6l1UIiWNDVnBSyypmBb9mhAv5CJFs+fmHEeVUf4sTZ0ikZv6qZ4aE7pJhP50L5CCjhvJdmMMh7Ltgb/TWNyFxTKYbsqzCbpXQuOLPHKNB6mlrFcc50V97WQX9W5Q/g4v2QnxMCi2roD2Tyypm4wkC31DxdukYxMRxFZ5wGMcW4X4+OGaB30SuTsCIRfegPiNWSBwbOCarck/4/jux7/eULD59+bX686pFjvzUUeuGz9SORsO35rBX0rhOtdDzghCNppYF4B8IAIEWKY7pQx5yoOzUz8qbvkFN/CBYdiGmvUnk9lvMDXzK8tRj22MtzzKPr396NnbIvARuGaKy6sGB+WHtt95m5v+SErqYRCwLZyaSa/Cbw03CJgaoPXVIee9Gb5PwDbGqGSnu6FxXnZHnc7WdSexZVvahWSI2fUPeRtansgJ3XIF3scHp59tXxZA35NmnslKSuiFvlI9aAMp0fJj6PBkDMAXvY4avi2YK12Tjf5jhs0LITQPFsSErOOkb8larbsg7b3MQMwpwZfZvpmU3aY+/7t6iu0DegibFJsXF0ZtPkxYOO/J3hOpBb1cPHsU6nJBzVwbIvUCuaZ57jrdM5V3q4o7IzW1K6oa8gRGXKBo61hyX3Z7XQTpwRzYzkJQV5z1OWWxIimQ4N9nMcVXKAo0b8kZIG3PN8Wr1G/KGHVcNM/pRbnQHNf6Kj0laHAt5fhNJ3pC3hxvPFbi3M77lsl7t0mHQPyYvsGNAI7aae/gQM/z3ebjJUebZGnQBGLH1HbFC4tiQMfnEb3qv/2mXxeh+1HrkJ7+nj+0ndTAad+gqWpi2W+J5QYQGCBcgAASamkALFsfMUY+eRXaQM7fsiM4cK8tS/5sR3m7s1bVHk+T+iZZLItoNjXK4y2jlT6k3+g8JM16esJ98lFuS3dao703C54Uyy5eVbx8cXRbeblTUCtebx45fnzYlrN3E2Aj115Mqy+5umBjWySLu0EnqhXmnk+NzmfN6XXXGx6SEX03Ch2y9eYx+lNuV+9zje/lHcy4FfZSbzxnmUW67brFygXrQW2cL6lFup/A1q8klyKHs9DaDqAy3XoD3WIe7hzLvzEt8QlZXvsWPW5ETdZbeuHcQbrEYxxbg115SWdRzjhs8c8wF3wBDWXHBXu1Rbv2MbAZZP2Jm6JXvrrl5dJfYjV4ZYedxzXKGrItk75JI9r7MT7lbB9pgPeRrD5CPcnOwPzHqR6mxefINNIyPmRt6SrsNO7HDg36U270Iei8oKy85uHRp7zSRfJRb7D9LDhtL7GeHII9yE7khT1lxZtuBLhLHcesi7Y/H/bfh2O8S2xGOOeyDLwwQx8U5bgHUG8ioR7l1nXKBfBtZwM0DVxTkCw6Ub/zXUY9y+yfKUX7Ncpb7H+NljSmO52zH13ni3sHUo9ym4UfZR/WJz+DSI1ZoTNLiWNBzGW67HMfm4Zt9cd8QfMsmHJuO73/AjnbemmN0z9L2x7v4IDN8vCPuTT/KLVb95tR3+P6V5AUTp/uMT76H+qa0tRHLPl5Q+xvyDBmTj7xX7+PNFgvtDkYis0f+uuqMfJcRRkYjj7MP/kMriovj5nleEKHR1LIA/AMBINDixTF6BCTlgqg4Jl8xoLi7/79rv48J/840YvCa+GNJD7lr7sqqR7mRNxYujOw6Mrzd0IhfZ0db+qe+RK7w1hTe89wTPWRKxPfjr4zZfONyjuoRclwYpXeSViyM/HEo89YP7llRZGxV6bd8YkdMCpfQ7wRZm6zPo83qqjNqivETrvgk6iUgY3gvAfmowA874sPm4N1mkS8BOcF7T0Rddcare7ilJf7bdOZuJ25uu6YY9z+Ij1+M97DAp9rikXmsCvl24pjsb+kF//MzR+3v9aN9v8HqLwGhcs97nZ02TNbjR6fB4wK3hL1g5mspwg9yU7cscjPpbtdFYtuj5yGzDXEh6B6kyty+Fbto1D5jI+qdIOgD5j4WBshOTuhj372jXe/B3n/7P2YerqzzhjzqJSBBB07+0deheyf7fkO9Vnlk3FCNK2FxrKy6X6p6xgX6ZOgb5dQFZa2X+9vb/Dz9OnN7H/XChWHGdr/2PLrAPTvIVv05x9ywrK9BS9hT1Ete+s4mXwIiu45z6/vFxTH5O1B4TIp7pl8C4kq91MZ4Dj5uK+59RzXFq7Ndav/iKafwSQvxLtQ7QbBtOPo0cWUVHmqLY8vxR8j3ur5w+OXbzoglCT+27sN7n87sm0kcliYak5x/rYayKurQSKMOZg6FvDUVZMyt67wAwgUIAIGmJtDaxLHW4yYkAoHmSYCW3VqedME+JO5bhc1IWHY9eiOG0XSe9QlSWYwvnYGP92+0aWN9GoUyX4GA8r71EKOOc3zULhN9hXa/SRNNLQvAPxAAAiCOM77J0Q0aBQLUNGfSI41nXDCbZ/KQl99+fVa0hOVuuGzEAJrOsz5BFl8kZ5Q9kMVO+tSCMs2fwIM9fYz+N+W0+oqy5h92wyIE4QIEgEBTEwBxDOIYCAABTQJNJ2GbzrNOnaGswn0249gm/Lm2K+86q0MBINBMCDS1LAD/QAAIgDjWlAXN5PAHYQABIAAEgAAQ4BMA4QIEgEBTEwBxDOIYCAABIAAEgECLIdDUsgD8AwEgAOK4xRwQ+fMHkAIEgAAQAAJtjQAIFyAABJqaAIhjEMdAAAgAASAABFoMgaaWBeAfCAABEMct5oDY1mZHoL9AAAgAASDAJwDCBQgAgaYm0MLEcVPjAP9AAAgAASAABIAAEAACbZkAiOO2vPeh70AACAABIAAEgAAQAAJqBEAcq+GADSAABIAAEAACQAAIAIG2TADEcVve+9B3IAAEgAAQAAJAAAgAATUCII7VcMAGEAACQAAIAAEgAASAQFsmAOK4Le996DsQAAJAAAgAASAABICAGgEQx2o4YAMIaCUwxsuCn641kSsmlCuUzlXkDLQkanMFDDcMdCteXTzX8OA1PDS4uQZX1AigcTfrG1V9y9PRNqxWvXrasCYaUKu+VZq6PEEQ9W2iXmChMBAAAk1HAMRx07EFz82RwBgvC50fftxaT3JaE9G6WgvwE/nxcE64wpzBZTWKYaBbker8TtEpjRK2kBOReISqiCgYoS5oTRfxrzNLa9haE0Vc6VOeX4afItJEw7L0aYJfhp+i0brWAloTNSpym/UqTNf6OlW4CMEAAkDgWxForeK47NxFc1Mvt1vfiiu0SxDlRTEn7t959qV5sdB5etNaAE3kbM4Q6iG/AD+FrsulcwaarpEo1Fx902m3hjgXqlvf9PpGzpXXqlPRRK4kLYK1ZglFi9albf1L8uuKp/A981NQD2hHRGy0Cm2jblGbX7JhKSLBoFl852gwqM0vyaXwi/FTuMIaBl1SvDwasLit4RzdFG8CLQk2EAACzYdAaxXHFRfDzE195anNh3Tbi0SR+o+p5+Ebn5tXz8VPcnQuP2L0DMfZnMEvX98UzhVn1NdDfcujDaG2hh8+LrSA1or8KvwU1IkhttYAOIfiufUtJjLHzLlqsMEPVX9odF30r0gYaEP8JtBcESd6ZqEh6fSMFtAzMM6/1vKoQ42A0SzUFimmkYVu8j0IxUOno3XBBgJAoHkSaCXi+MuXz+oTlNUREeam/l4Pmif1thFVsxXHDcCPntW0nvk0fGotgyaKlKez0MKcrVGrwZtaT+f6eKMrcvGgBhc2X0RqNKexqU+7QmXEXYnn8ueS6e4ItcXvl0hJA7P4kfNT6Ca4dL4hHgNXHi2mNREtoL/NueIb4k648mgxrYloAdQWL8zP5ado7GutBegWtWZpTRQpjwbfWPbnL81sWqKxOgZ+gMBXIdDixfGXmuJbaR5rYmLfqvH6ePWKuWmQ/yO1RNjQJPD5Y35YotPK4BWT/P5ecsn15PPSGrZI0cOdpp7OV7lt4rlfiLlp7B02/0vpi/N2FzbO9LUw9V4259xej7yCT3TeqzPzPc1R2UTbpmdDn7GVa9/d94/ZYe6/aLzvqiXhxy+XVrE59528zPc8iLc9vWx6qM+dd4rg8LVmQdbOOS+5I31d9aOTsdL5AYsm+q35K8InvLRK9bvofYyVp7kVnnfrluOiwCVmJ/7ZmnyrUMn6pv7T5y1+eFyKWmn2lhquFnrWFDkFanWikYhucq44g8vlp3BZDTOEHAqlo61olNHY5Eqi6ahNF+CncBXra4i7Es/l2kKLoTZXgDPEc7liDTY4/5xBu9LY5BLRdA0b3eTHI5QrlM73IJJCf5W4AqhPjSyuDGeghblE9EuHJnK2Ri2NTa6YiB+RKnQt7viAGqhn1BbxJpKFejDczrq72zo5NqNa/fBnuF/wAATaBoEWLI4ZWRxoMTbwP8fMpyoVR+45Zew1c9OTQdltYy82sJd1T7zPLjD13Wxz69K5h+f2X1o91tPycEE17U2HOK68st7HfGrosYD06DA8zCPCcqznWtdCaid8yI1KjwxNj/SMWG3qaS2j7ND0yNDcx8wPmLonniEWYwJ3yFLDzz0I2hWyxNTP8QrTLCmO51z08nsYZBVoviD0wN57lw9f/MvUzzWploqrNufYaYtxJ+wOp4aHpgU7hP5l6rvzbDmrnClxvPqS49/RJ0+nh3nGWE/2tPgrVcFmkx74Jyd+CsqTzuXKcIZWV2hF1EZroemczRXgDH4Wl2KIoeFffJNuiCvDGVwA/BSuCqoh+DbnwUCD71kjhfOvkU5vctGixTibb3D95Qx+GUNSaLecc87Q8IkGz2XxC6PF0O7TVdAUri5ncG7rZaAtchX5PtFiaBh6Bsavgn4Z+c0JRaJRUmNTqBYXJFeAbwi5QuPk12rclNfPgjYELTT1sQSJ3LhgwVsbIdAixbFKFgftkD28V1Cjmjpkd9uX6zHmpsHBj9lt+M8nUKNwm+i5wlHBztrW5R8PMR9z5fp7qqi4OH6fIzP13HaWm67//DzmbvDp56/RVoSWVXx8cnicp6XHS/bnzIfEbX7mC1LyqbqkOF6TVkwQRMatdaZhV8sJ4kuB12TPLacqyPyq3P1jPbeeqmDlbs1DWZD5zKQMpl1KHE+OSqxktisjIhZqDAP6vIWeXzVspir7jyvPJqj+i5wCVYUoS2dJNAZ96qLlddq0Q7qYTucixbhe8A0Nt9ymVm9cruEGF4merrSWRxNRm+8TzUVtrqTOfYEW4GrRBu0QdYvaGoW5KqhD1NZaHhVnqHPO5gyh6nqmo5Fo2EIeuKY5QyhazgNakiuskUgXpmPgKnKJ/BSN6vSmRnWNMhpOuEj46eJZWssblKh8/QD3tToJEtkgilC5bRJoeeK4VOG7JtBifJDNofSHRfRsorZdlxS3wPTMWQUvq+ZjWem716pP9fs6pIx4LlKwNZiFadvVF04QZaX3bxUW6iOO6556TPRcuTu76D3/hwnLRkgck+nebrdUFV+duWA+5upNalUGKY43pJMi+/FdK9OIOHJCuThwpqdVYBnpN/vOBlN/t3jVHnwRfNncNCL2Hd0oJY7XPixhQ6CceB1NVrXFzByjpzchGz2ToWU450KJGmpAZJPvivapTxWuriGG1i5odahRkotTa2EaHVeFM1CkQhXrlY561qei1vJoImrzHWrkamzyy9crhe+Nn6LhUKiAUDrKHy3D2Zyh0VB9N4X8CKU3LDC+N36KSOT1KswNaX1qiXx/9amOxix+ShLPZfzUvUnPDPz31CJyFvlhLjsngTYCNhAAApoEWp44zry1fuyJvSHFFeJrqVKuLzENvVCg2V/i7vWl6JHLNPRyEVJGPBcp2BrMZ/etTT0PxAtwFJ85JuoUpy4sI0n6rJh/zmZbXND5glKNnypC4vhR8t+mfsfvqRBSjxahJokJQoc4fpT8N7r7aJueYCb9MWuOyznf78ruxeRmqcQyu6yC74RL4eqiBnpK40qiBlqYb6PV+blCyoAuqbOuVod6JurvXKMkvamRyAWMpqMl0XQ9IxQvVl+H/PIaKRqbGq3zc/kpGlV0bnKjSKMk7VncP1eXb2h44zY5hxpV6AJcLle+YYaGc3RTyCHXNFoYTeRX5HLpLHpTI5Ffi0vRsyQXD1qRTuRSNAwRzyJZGk7oTfFTkngu6lBZdd89dJlpRAx3tQ/NBRsIAAENAi1PHFeVxrmErR3vuXhBZNCVl+Uagozr3v3EFabnw15y26xR8Sb97vOHqs/LUuY2MqqAeC7ro5X8N0gcEwRR905ReOfKowteSR47Q1eP9Vwte0ZPOjN8mkgcm/rLzqB78PnDu6WvmOkQnjjm7yr+yYmfok8tVNHyy6MptH/xVrhcjZOuPnXRtuprc+2KVxQKQ7w62hfUFm+rXrlcYLR//l/UGxctZ/B3IpqF1qVtfi4/hV9LnxS+HzqFn456E8oVSkf7i5bhbM5AW2mALeRHKL1hgaHehGyR4NEq/GLcWOJncSlCZcQ9c9X1McRPSeK5tP+a6pyIZOf5vuZmZw74PS0VmAzRJxYoAwTaEIGWJ46pnVNTWniNksiLLCICIorK4FJRA8YstazCKUr14+BL6ctb8c+f07fGlWfYm3ruDlPJ3cceJ8wnX3+ovaEvT71DzMfH3mXXApOlhMSxocsqRB5frZ845k5pQga/j1rPdloTheqKF0YjQT3QtcTrouXra+vpmSvGGXRDGptcIt0dLhhuU2t5tBZXRR+D88YZGrU00tFNzuYMLgwNJ+imRmE0y0BbwzO6idoaraDDRsPWKMltct44Q0iY0lW4fcd50MfQCAbdFKrOxcMZ4oGJ56JOdLYoVIBOR4PXsIUq6tO6UN1GTP/0LuPiTbu5PpQsznv2Flld1oitgCsg0CoJtFBxTO8LTiIvnHfjvkrFUZmfa9+Vf9Jyp16r3IsN6xR9Q55DPndDXp78tPnYqBsMyUK/aZ7Lducxq3k/l59f7mm+Pr2Ubutl1uFlZz1vqn6UFAWFmo+NvqVKIAhKfMtieHP7H5+4kDfkFbNlqRvyFqbQ68N1LKt4lyMb67nevYitW5d3NvaALOsFQ0CXOKZPWhqnLm5Tay7tmSuDotaaiBZAz98aNlqMPuPyG0L9ozZa10BbH7doGdQW6REXFdc1riJncGVogyupkS6yybniDI3CaLqGrKGz0AJcGBpO0E1+eTTXEFvDM7qJ2hpNCGUJpXO7TCsNLhdtpQH7Rasf2mcjBsa1otWn1kS0X1x1jUT+ppAroXT9PfPbasSUwizZbG+QxY1IFFy1LQItWhzTu4qSyKl3WYlHJX68vdvf3NRr/fGX8GNZeEDXPfE6u8DUj3yUW2j6uf2X1oz1tDzCPsqN+FIccnGhqd8Wu5Sws/d9rU7MNw1yTfrIeKsrPb3Qy3zWJa8g8lFu4V7R/07yXLHDYZoAACAASURBVLIt5w3amLLIf7bnwmUx587ST3PLf85I2jqF91mLMYE7yUe5pZ2Qnlli6rf3GvIoN5Eb8oja7KOnLUwDtjnfDQ99eEZ2YZWp92afElYr10cc8/UBfbbTes7TPxElwK/FT0HLa5xW0cKorVHFkE2dbsULiORqiCq0JGqjwQulo2U4Gy2M2lwBDZgam3QVfkV+iohDNMtAG20XtWm3/JQGN6exXzT8aG1Ia6JGRcM36xsYHZUhselZV6hYfdMNR1QvD08y/fxgtrheyKAwEEAItAJxjPSGM2seHg5eNNZ/51k1tcZlg8EQ+PzxSVii44pTKyb5rdF4CQhBEJ8/5F24brfsxLJJgRvXXD2VWMFqULJ2zYv8U7tCN0ynXgIyO2S37GGW6j44xn3Vo7TDK4KWjKXeCYLeC6J8lxYQs2Oe/8JxviuXhHuGlTLSWOcNeeRS56r0oNhd5v4LJ/r/vTRMfrbwjWoth6g45k5mnKExDuh0rblcolZJzT+v81O4tkSyUAHHtYhW5OzGMvit6OmZrsivzvHh/GgtyYfAd8V54BsahblG+Qa/LpeCOtEaJFeSM9AqXGKjGJxnztBwi6bzuymSIuKHy6Kdo01oZHGb4oZIGPwsDVcirfOz0BS+ZzRFoxV0E3WCpmvYqDcNW6MkvamnW611IREIAIFmQqCViuNmQhfCaJYERM5eQllC6fz+0adPfrpGilAxuiGh5oTSNZzrv2mIQ/3r6l9S/8jRkkL+hdLRHyGcH5HC9SrDFW6AIR6DeG4DmkOrNKlztKH62k0XmJ6ehYppTdeaWN8uQ3kgAAS+OQEQx998F0AAQAAIAAEgAASAABAAAs2FAIjj5rInIA4gAASAABAAAkAACACBb04AxPE33wUQABAAAkAACAABIAAEgEBzIQDiuLnsCYgDCAABIAAEgAAQAAJA4JsTAHH8zXcBBAAEgAAQAAJAAAgAASDQXAiAOG4uewLiAAJAAAgAASAABIAAEPjmBEAcf/NdAAEAASAABIAAEAACQAAINBcCII6by56AOIAAEAACQAAIAAEgAAS+OQEQx998F0AAQAAIAAEgAASAABAAAs2FAIjj5rInIA4gAASAABAAAkAACACBb04AxPE33wUQABAAAkAACAABIAAEgEBzIQDiuLnsCYgDCAABIAAEgAAQAAJA4JsTAHH8zXcBBAAEgAAQAAJAAAgAASDQXAiAOP6qe+JT5YfS91+aosmm89wU0YJPIAAEgAAQAAJAAAg0TwIgjr/iflE8Hjk07P/+SEv41NiNNp3nxo4U/AEBIAAEgAAQAAJAoDkTAHH8FfdO0TOLKRGdF2ffV9a70VcPFIf9C3M/C1Q0wLOAx1ab/BovO3amIk+IZAP7XR7oh0nstyeS1VG7ge7qVe2VItglISq3SS5I1CsQrjBKALW5AmAAASAABIAAEGi+BEAcN999g0aW5RPfziQ1vA5NA7shBHKCH2Nmz6MamWR1SBAmcba5TUaE2g2JsL51suImSKTrIxpZ7tc3CrQ8SgC10TJgAwEgAASAABBopgRaiTj+UlfXjCbOmmBfgzhuLKhNI45rLpzCJDLHe2SUqN1YUYv5aX7iGCWA2mK9gDwgAASAABAAAs2EQIsXx1+qFdHHNo1fc6qcJVqtKHT470a/PyI7jY0euvbB8QcfkVnCL4V3clYuj+0+KrzdsCu/LbhtE/32A1uRIMRziZril7KdN34fG9Fh1FWT9Wn+GTWqqgTxubIiUHZr1Myo702vDV6Z6nKrWrW0OCuzt0lYu8Hh5MckwoqaYETrCsack92Pq0hXp/+a5+TS9XV5Fon5ZWhSO5Mk/+yXUsvYLqOv9F54Z2/S+1o0LGG7NEKBmSlO5b/bb/u435ysIZZPZbdrVDgqyizMcIvw6lhfhalFZq8lj5d6VzxTZRM1pW9d9j0ZNi+j++zssTsKT+aoFpro8EwQytdVHvvzR5hnGM/Jnrir8HSuUvW7SKTd/JKRZvjPUzM0Ptja0jyCID6/37sc77brzRuky0/O5GHTFKfKkCRhM+JMZ8lBWTpVALXpGp+rHwWFLTE92PdHB5OhnpuO5BZwY+NZ0kyJdOmZj5zrnH0umORMFLv9ufCx+yr5SGO7LpLdvXq7/WWb/pgZsUWHBkix9jY/a3wkrq7M2CCImvJ4WciMvo7G39n1H+K3PaCggnUbt84WW3n93F+HenV3t4mtyHDzG9x576T1aU+5L4uyMvnI2dn9nYw72Q8a4W8TVFCh4lwVPEOKzbj9MDpqsYlzj86yCfMiIxTI0EEJoDbbOvwHAkAACAABINB8CbRgcczI4l87djQeu/4EK1Qrilb+EdZp7h2bgHyvU1nrl0a1G37jmII9rRfkTxwe1nnJfVmIIjD0sdQqpr3Jtf9SWT0gnltTbjc37P8m3NjgmScPwhfPjWg3+lZwKbtra8odzcPbjYpb6porP5VjteqqZHDMlhRWD5a/Cb2gCLygCHRP/okvjkViLn9zOiTfMyTfzupqO5OEDadJm/xEvWFkjrhn0ZgpcXx9yoaExa6PPYIezZ0R0W7odZd8lhXbM63/KQmbN3dX3lq/Ut/QlxssM7Gpj105zpRINbNWTHd+6XnxlUyW19MMn3jiAwO69r1sDd7Z4on1iVe+54rXrMnE5ihCXzPt6PD8sdphFd5tiUIa/Mov9OWmjVnYrCc+L9iYRdqtqA69/Nr/8muZTTZmlmd9kbTJT3w1TTI3+DE2Nf8EGwZBfHJbr5LLNR9KCyuKND9V1dxahphQY8mRw9lUJ1CbTFCmO7l2k9iNW3ZFfjzpiJXXQCOb4dZ5b+kO6xDHZQGTdmNdPf7dn3wy6LaXTeDwDtLB2/IpKV19PyTZ3yvZ3z5woEQ6eWMSaZOftDRmbCjT7Y90bu88Y2Os9/EbzkuO9JDYLz5dSTdLiuPenjtlNx1nOGMD3ddYxntaH+8tsd90lR6zNalSly4dZQus43w8E/evOdZbYjdTXsp+UyhxPNZr8YTTMvckL4eQyT9JO4+IzWSzCZQAatNtw18gAASAABAAAs2ZQIsUx5ws/q7nH1Ye0YoqVhsRRN3j5zsPZF8tYZlXFSwYGjbMhxEiVVfutDO57lHI5tZVhsoz3W69p7fFc9/HphqZxNikswKg/IXF6LD+ckaHfLx+7zuTqDUJrBqurdgzJ+z//nlexTbF/H+U0YMnjsVjpivqXlahzbN4zJQ4jpgfwUxafinIGzs4bCDbI43ANTYpCZu5Op6dLXxbsXwWPtSnmilGidSe9uXsdH7tGWkGtuJlJpX9IfF5N7McpyxWWFZULP8THxXI7AVxz2/jn3U1y5MXsHv8wzvrhfgAOYtZtF06NsFlFSWvpk/FZ5xn9+Dz0vFmGavimCnt1KhhGhO07W1+lvgFsx3UwKO2+THTqpO0z98ZzFAh6h7ZuWDtg0LpoMXFcVXaKol0qpyb0P6cExqz3z23GG1AaFnF+0eWHaXDbZ+xk9TVF+fbYwOjH1F1SXE8LlFBEETqlaESn6BXBPElb9dP0j9cX5H5lWmrO0inuL5iR3vNjY37sF/D7zDtUuL4pxMX2LjKTgZ0lxzaT7tGYwMbCAABIAAEgECLI9DyxHHRle3jf+3YqffULV7xzxlBpYm97mNNScn7QvLz8p8pYZ0cGbGsvHn/O5Oov8KqqlhhhtYUzyXl6bB711QVq4/9FfZ/1i/oa9yKoBvtTG6FsCKNIIiSnJfR998hCVRT2iQsHYNQzHRuw8SxeMyUOL4hVwmtctupYe13q7ZROBo2JWGf+HMT59Q8a2fnCkZaUiJVJTQJIiMoF5v2IpaiR8rTGYxNua3x3ox3dqigRbq45/SAHGzui4jSmiLm8/H4fzi26w0zHyraLt0FQXFM1J7akYGtL82nypHFZj2LZNV+5auU+Nwbmp+CIvbHgQYetU1F4jT1hRNESWF8jCJfH3GszN7SSdpveSr6A1DNOUEQQuKYTN9tFc3+jiCIQg851v7kJWrEkuLYLLmIIIhHsWMkgWfJn49PHYylYw68JP0/uDZC4mB1STVZnuvmjUn8QxiBT4njiTefc6Gkx5hKbK2uqdricsAAAkAACAABINDCCLQ8cXzPrt93v8/3SCnVrktqqs443+g+lF3gS63Q/c6eOuETBFFbcWT5lXaDw/9vRFTfBTct9uBeKdXsVKGO3Dsu19qNTruh2r+ffNeGtVuroCbaiFz/hHYmKRdVvlTl1Cyt4lg8Zqp+w8SxeMz0muNAdvaPICr3zglrt4ubV1cLXGODkrCKYHYylCBqjm/CsT3lzK8VSqRaRKhwVCreXoqvLqTEU6pXDjanMEnlsTZoG45tK6NXNIh7TvXK0Vg0/PPUDK4uIdou3aCwOCYq4p/9YpZ7iFTHHw//jfeUVSLr0VXh1tfKTZgska65pH28EuIzx0Rdpqu8FzlpvadPf7c580OdvfMKVVipUITEcUqkCft0OTrk134+GD1JTBA6xHFKpImWmXJqgpn0xaw5Vv02qngZG/rwLjehX19EUB4IAAEgAASAQPMh0PLEcWV68H8z+3Qy+nHQ/N2nU0s0hEKGT7zEJMrsiCIiqSTudknc7fxlE8NU4pjUxzU5qYWnzuQ6HHiwcMlVicnVTUmIbBHOFReahohj3TETREsXx+iIN1AcY/Oeed97dwP95LD3AvLEMdoubYuIY+Jj5cY5+DCf6s+KElOzrK2pqssEOtcc8xviUgwSxwRB1JXn5EcF3/JwDLde5DHASDrAKkftgkQTiWOJ4yoPjcnyAlaX88Qx11kwgAAQAAJAAAi0dAItTxxTxD8VJgVQEvmHAXN3nbxTxErkarelYe1W5CGTn292TVEXx+ge+1zhOCesg20Ru7ISzSMI9VzxJQr0sorT71QeCtMLLyZXMouduWQtM8d6xdwwcSwes8EzxzqWVaAzxxwAgiBIeWrIsorZBYlCl+8NFMfEl0S3bGxxUUBQLja/MBn50WTImmNqWcWSENUs9JfCZxGXcnLosVGaslAiNQ9Uyd00Gxn200XkEgXK7kuWkwv23blodMQKiWNDl1XYbU0Q4gziGN0pYAMBIAAEgEDrItBCxTG9EziJ/H2/LTHU6tBPfuvC2lnk5LBTfjX5OaNMVOL4xeXUoRYPuYWkBFF1aGFY+x3MfJh4Ln1zm1T9hrwB7O1r9A15q+NZlV5bbjs7TPLvc3bNKjtqtIhjHTHTNSnxfSdUJbBYh9x/LZ4J8ZgNFseZa9RvyBvmx3ZXVKR+uEnekOeYye4k6oa80UFqN+QJea6Me9bVLMc+g61b+953/zPrq+yD0ETbpVE9DX2CmT29xNbg+NFGXVbxELOs381xE3kVKkANWXNM35C3RnVDXvruw5jRifMMLMXubtLflqczK1TqSt1HSbHJSczvuxep64cf3XFFFa3isDvW4TSyYIUgKPG9IpQdelyP3j/a0FE63Eb9hrxB0ThVQMeyioq0VR2kw3Y9ZRtWpsvPrtmY+phxDuKYowwGEAACQAAItDoCLVoc03uDksiyK/QtWc/PJ/3PJKL/5keuIU9cj90buyhp8nSVOFZmZg4YEma86uFB8lFueQ474r83iTAPZySneC5RW+FoHv5/ExKpR7llLJkX0c709hnuyV815Q7m4e1Gk49yOx6cY7X6mmRwzNa7jGApffSCfI4b8yi38MkHKfuC4mo++TAE8ZjpTtbeT//VJGLozhw5/Si3+Epatoh7Fo/ZYHH8ZK40b70/+yi3aY/dn7EzjeIitfb9gbV45/nUo9xCi//+OxOb8/Q8u/SZviFP0PPH6j0rccw875+gV/4XSqw3Z2PTcw9yP4bE26VQ1j4qGmSWMUFW4ks/yi3pAysAqewvHw6uxjGznL30U9lo+gb+VaY7unaT2JOPcvMkH+U2yMhm+H957FWGL4pjx3+R2P+xKtpLnmA7U9ZVsm/TVfZOU2XBgUE2WA+vnYfIR7n5OJ6e+KO0h8U97mksZGS1ij09pd2HhxyR049yy8hhelSHO7l2ae88k3yUW+LepUd6SByWUXfeETrXHBM1qTsOdZE4TV0f4+2VdGijvL/EdpzzC/bBFyCODRwSUB0IAAEgAASaMYFWII7V6X7+mBx0b+KsqE6jovqtuh+Q89phlkocE0Tdk7jMRUtiuo4Mbzc08tc5SRtOvX7FKjpduUTtyxLZzhu9x0QYjYwyWf8wIEttsu5zZXmA7NbIGeRLQEzUXwKSejSaeQMI+iKPweHT6KlgHTHTHaxJCUodOTlCQr8TxFJBP0RMh2dCLGaDxbHidN5bx125ff8kXwKy/w678Jcg+DfGqe8korb03ZF9T4bNzeg2i3wJyKnHmi8BEfRMvgTknZuMfIGI8dyc8dsLfNNr2Glk3e1SYShTQ59PXpTZhXonCLazTHVXIZldd8E+A1v5MlM1KjRib8jm5+r0wLDFow/2+dFh0BD1l4CQbyCpfuhzYf5wWa8fnUeOPymLKEPl+qcnuGyxx4judl0ktr/1dJm3MekuMmLpYCpSEi1Hy3oYUe8EQR8wV1txfX/IjD4Ov3S06zfEb0dgIfNUD93imCCUlTcPnZnV1/GXTg4mw3y3yvNLVJxBHDdkFEAdIAAEgAAQaBkEWp04bhnYW3yU9DMlTqvrykbpVdN51iu8t+XLZuATTomsX9HLDRQCAkAACAABIAAEWigBEMctdMd947B5D1xrtHiazrM+IZZeUXQxeyxH7ujUpxaUAQJAAAgAASAABFoNARDHrWZXftWONJ2EbTrPegCq8duCY5tfgTbWgxUUAQJAAAgAASDQOgmAOG6d+xV6BQSAABAAAkAACAABINAAAiCOGwANqgABIAAEgAAQAAJAAAi0TgIgjlvnfoVeAQEgAASAABAAAkAACDSAAIjjBkCDKkAACAABIAAEgAAQAAKtkwCI49a5X6FXQAAIAAEgAASAABAAAg0g0DLE8esy7uUFDegjVAECQAAIAAEgAASAABAAAnoRAHGsFyYoBASAABAAAkAACAABINAWCIA4bgt7GfoIBIAAEAACQAAIAAEgoBcBEMd6YYJCQAAIAAEgAASAABAAAm2BAIjjtrCXoY9AAAgAASAABIAAEAACehEAcawXJigEBIAAEAACQAAIAAEg0BYIgDhuC3sZ+ggEGkjgU3VJaU1dAyu3umpAo9XtUugQEAACQEALARDHWqBAEhAAAiSB0uOjbbH2+7ZfrwUeQAPGABAAAkCgrRAAcdxW9nQz6aciNO/nqRn0BzPL2p3e+HG9xsuOnanI+1xfz+WBfpjEfnsiWQ+16+vna5d/pQh2SYjK/dIE7ZaHzpf16Hrs8P2WMHf88raFRGoRVNVwDjpItigaDadgcE1lVao81Hy4rNdPziPGBtmHljR4l6TvOYB1Co0zOCLSwedqPChsyeiDfX50GDzc+x+5olTZKH4pJzpGTuM1pL+nmoqEAyGz+jn92slh8JgTey+Wvteo2wQxl3p5YUY2XbpdTKQPGKUpCzrs7m60xzpeo+22tCnCuU2NyVd3F7W3+bm9zc8Saef/OQ0f7W9zqrBC37NW4f4+Uoyuzv398+5rgXGkcdxAz+aoLVCbTQZxzJKA/1+FwLv8yuArZeTHW9GjacRxTvBjzOx5VL31XHVIECZxtrlNckDtr8LFgEay4iZIpOsj6v1jwIAmm2VVw8UxkGyEHfs594B7V4nTNMtY7+M3nBe5/CpxWBn6rmGONU5yDXNC1fryVO5lLLEbu/SK/PjNw5byvhKbsY4FHw3wqFa12Y2cmtSdh7q0d565KdZHnmD75/5uEueV5982dcykODbxmNpZ5nSfbOrdmaDu07znStq2OBYcG21sTL66u0giHbsuKTjo7inv6w4Wh36R2FkElOsnj6vTQu8GB909aeWBSZyXOpN2cHSp0PdX47iBns1RW+3rwN8AccxnAilfhUB60e/NSxzXXDiFSWSO98jeo/ZXoWFAI4IHXwN8tsSqlDieH1Td8NiBZMPZsTU/527/UTrgn8fsPGVl8AxbbHRCHptfr/8aJ7l61VUv/NThV2mPpQ/fMKk1KVv3Yx1PR9Sol2rwVnMbOR8zNv1POmS7glEPn9/4TrTR3AtNEDMpjntfdlxlN+5QCUHUXF2xZ4YsdjmIY+2TF21sTFLieNEp7vhceXrmbmxg9KP6fOmUl05jkkP7ddXROG6gZ3PU1tEyiGMdgCBbiEDxg9IN/+T0n41jM7KGWD51uvER/R2nfF3lsT9/hHmG8ZzsibsKT+cqNX8hCotj8bqf374P9lBMWZ7VY07OuC0vPFJrPtEh5peMNMO5NRucga0t1fPMHHGms+SgjF7ogdq0+8/Vj4LClpge7Pujg8lQz01HcguYdqnsmvJ4WciMvo7G39n1H+K3PaCgguUWt84WW3n93F+HenV3t4mtyHDzG9x576T1aU/1nNquLr3ieGr6gH09f3AcOtzH2lNRylQsOjSAd6WJvGjl6prLtl1det7ad3wPh5493dfJnyftOYD9dPEGnfksaaZEuvSMap/l7HPBJGeimKrIZSyJ1Hgz59Fwz6wHbf9FWX1J33MQ6+gfUobUfJwwWWJjHkhNiVHieGFQ8Q3HwPG/2Pf63W25Y3Yhqn4aTlIHjc+Fj91XyUca23WR7O7V2+0v2/THH5AghU3R/lLVBGMmCHqmPLCI6W9vt2X2WS+4/ornEgShrEw+cnZ2fyfjTvaDRvjbBBUglzirgmdIsRm3H0ZHLTZx7tFZNmFeZIRCv3XnhbfmSqTLzqrGVa7sCPa/0FjmwoYuz++Kz1h5jzW2/623fKNv4W37g2rLKhocc8W9ZRLpLG/uS0nUpt7esTku/hUFWcd3gRDev3p8Bw05MjS4v6UpCyTSJSGqUViWnhkRWVhKdlePmEXaFR1XpDj+8UJE6MnuU5ILa3L+w9yPJd+2QMVxixvP5GVE4aOo2PdIF+e2NiY1xTHx5OBRzCjkCnk603VsZw+hguJY/LiBns1Rm3Wr/T+IY+1cIFUHgaLXs2biv28qOHK5LDjilaNNTlezHNt09tL+x2qHVXi3JQpp8Cu/0JebNmZhs574vFCXx0LiWLxu7fsDazOw2blrfUp9L5Rss87uMjVH+oCSixXVoZdf+19+LbPJxszyrC+SNvmJr6bPiTUfSgsrijQ/VdVs0ERMqLHkyOFsqueoTSYo051cu0nsxi27Ij+edMTKa6CRzXDrPPY6pTLd/kjn9s4zNlKXkpcc6SGxX3y6kkZICqDenjtlNx1nOGMD3ddYxntaH+8tsd90lRMyIqyro1ftw344ssr2ur930iHycvDuGR60PK6+H5Ls75Xsbx84UCKdvDGJtMlPWhqjAWqSNsswidP0DbHe8gSbmfKZ42V6i2PmMlZw0NVFnfni2BDPIp0ldLDKjvtDYjPXnwFLEET+ITeVXKZO29OnB5otu3r8eOL+lW6/SWz+OFzC/gYxhKQ4jbKASbuxrh7/7k8+GXTbyyZweAfp4G35Knko3GMd/SVEYmbEsdlUf7S/Ew68ZFbSUjQEc4maVKlLl46yBdZxPp6J+9cc6y2xmylnf3YRlIQd67V4wmmZe5KXQ8jkn6SdR8RmsiiFO0QQuQmTJdI1l1RKWuHijklOXmJ+SYp7/pRguQ/rIDP/N86HGrHzp6Hi2ICYaUkntB5dhzgW2b86v4OGHBkM6O/np/a/Sn+bn1qoZV21zphF2xUdV6Q47hgaW5a6tGPA6fDwAUNjs0m23LKKFjieCdFjndj3SBfntjYmNcVx7fUNTtigaJw+mogf29kjjoA4Fj9uEKJndtY1/z+IYz4TSNFNoDruGWaW5/OSLVn34VLQS89URu69jX/W1SxPXsCq4Q/vrBfiA+Tq9+UIiGPxuh9vvTA2y7JKZo/5te/3rcY77ynnrtUQBCG05jg1ahi3lp8zJH7B5WwnRP5/zLTqJO3zdwY79VT3yM4Fax8USnfp/SPLjtLhts/YqeTqi/PtuQtGpAAal6ggCCL1ylCJT9ArgviSt+sn6R+u9LSVSKsEUVccuivc5RrbLPHx8kJbbESc2kSu0OXRmoxNHaQD/2UnMetKjg6X6i2Ouaie7/2NJ44bxzPXhMrQxarcd4INNvHmc6ZGqfswafdF7G8B6mTTc3Eae5dG9cX5dljfq2l0YUNIqgLURqMqbZVEOlXOXrEnPueExux3zy1W1RK0dPRXPGat/f39CrXak5HOmjS43Mq01R2kU1xfsXK35sbGfdiv4XeYSCkJ+9OJC2yfyk4GdNfjaiZZWx9xLOT5Q/r69tJhNs+Yw0hdifsoG9XMsSExGyJE9Nm/Qt9BQ44MhvSXIIpDTw6SSHsO8tvieCsiRe0AyexkoZjF2xUddaQ4lpyJ+vI2yGzPyAGyYQ4FRN51M04ct8TxLH6sE2dFgxbi3NbGJCWO57i/LCqsKFQUJ/mdMe0oW3eZnV8iRI/tzJAltItj8eMGW7fe/0Ec1xsZVCAnUlMKjM2y11/7pJp3RbikB+Rgc19ElNYUMZ+Px//DsV1vVFN+BEEIiGPxuk9Dn2BmilBEC5fmvY1L/4QkCIrjylcp8bk3ND8FRapJLqQLGqYicZr6IgSipDA+RpFPi2Py8LfbKpr9LUAQhR5yrP3JS9RVTVIAmSUXEQTxKHaMJPAseTR46mAsHXOA+2mh0Rhvs66mooSZ8479V4b9cCEBLSJ08KXmw5aHquanU7c5N444bhzPaB8YWyerV4F+XSVubvQ6GbLjdmvD2Cla6mQz04v7IUHNK7cPDlcBIIiGkVRFqk0cK7O3dJL2W56qqFINAFUNUUtnf8naQjGL91c898G1ERIHq0uqCym5bt6YxD+EgUeJY9WPEIJIjzGV2Fpd06OD+ohjIc9PbphJpKsuqHYYOWK5p1UYErMhQkSf/Sv0HTTkjYtwOQAAIABJREFUyGBIf6lxU3wzefd894H/k2ISm9/HhUUVctfIqEEpFLN4u6LjihLHweG1RIGbByaR7Un5Qv1Y4maOqXZb1ngWP9aJs6K6SwhxbmtjkntaBT0zZSRbePQ5eqOu2LGdJkkIiGPx4wZbt97/QRzXGxlUIAnUfpD/k/Xz1IzOM7NGWOYvP1gc8KCGO6mleuVwS345A9tWxs7pUQgFxLF43bwzeZjZM/H7aIRmjg3ZcbxTvpqzlEgT9hlwdPprPx+MniQmqKUCDRfHtYqzF6cb26o9xYaTC3RjQgdfXszkbQr6rjnm+qdNDjaOZ64JlaFbLFakrf6fdPS+oi8EQS5m/enMVfbOL2YNLnLp/AV5hg5if0kZQFIVoDYaRF2mq7wXecTf06e/25z5oc7eeWprnVXVNS1d/RWNmXdyVeuveG5KpAl38YQz2BFL0MsqZtymlqhSMVe8jA19eJe7FKTZD2SbNza0LKsQ8swbyWo31hgSM48GEjFBUAJIeP29HvuXFznj35AjgyH9Rbr35X1lenjMImNp10lJT5F0QdEm3i6PJDrqKHFMLaGpfpufW1FZR19J4MRxaxjPakdRcVY0baGxwSOJ7pxWOCapmeMpux6R81PRj87ITo/pZDfzaDF7uZUgRI7tLBrtM8c8wmrHDbZuvf+DOK43MqjAEKhVPk6vOBdWul9esGpTdhez7P9Smau0qV452Lxn3vfe3UA/OSr1THoQFscidQ0RxzrXHIvsWd4pX62sIadANUeaG18y4iYaSftOiwyOyKHnvAP+2quaS6OL8w4NjBfygqZ09UXVxHiajf5rjrlItMnBxvHMNaEydIlF8jkiMavtsb5X7n8udjGR9tqUw84bszeoCYhjg0iqAtRGg8ytK8/Jjwq+5eEYbr3IY4CRdIBVjvoiIpUL1BLvr46YeSdXVKbo+KlAjljHVR4aF1IKWE1PzRyjEhYNWtzmfVN0iGPUG28kq53kDImZxwptVpcQ0WP/8iJn/BtyZDCkv2rdIzfehp78VXL06GMkQyxm4bHBI4mOOpU45tohxwMjjlvkeBY/1unYRxQFIc48khwz0tDxg60FjknNNcdfin28u7WXe7OL5MSO7SwaEMcsCe7/6zK1C/JcOhjNhcDnDwdW490PkFMFpO4NyMFmFySKX4QVEMfidfnLKoqyKiJSP6CXZ4Rmjg1Zc0wtq0Dv/v5S+CziUk4OvWKKPPw1ybKKAnc5JjnuW6jazQ+kMn3F8dv7KyTSCYe56b/3oXNtVDPHpSkLJVLzQJWEU5POqga1ycHG8axqg7PExSJdrCbhYn+JbI939FiJ846b7KJZghHHQssqDCLJxUdoo6HKpa0vWU4u2HfnopHQNIuw2+L91REzdXIV6i8tjgVzycvBdlsThL6hBohj/Z5WwQ1KlgT1nxIiossqGhoz78kANXdublp9LYaOQ9/vAh2stv0rJIAMOTIYsI+qr8etX341Br2pITVqmMRxVxLCWyhm8XZFR524OG6R41n8WCfOioYtxLmNjUlCUxwTxMPoUZLd/8SqxqTgsZ0tol0cix832Lr1/g8zx/VGBhUIgii8+nzCusJo1VLfT+6WeNe9FfTKisq4Z13Ncuwz2DVute999z+zvqqa5CMZPn45zCxja6rm+Vm8Ln1D3qYk1Q15zqvwLnZq95tQAvrpJfXWCIIwZM0xfUPeGtUNeem7D2NGJ87TAN4/2tBROtxG/YY89j5ccQHEjqbabN+Q2eP8dl9V+xlY5u+LSY4eyWEh1ZS4mUo1xTEl3Fcga4tZn28CJtli3bxkEQV5j4sSjp0y6+GkEseEYnc36W/L05lVpnWl7qOk2OQkRIfTbrTKQcM9a++vXqzqnjn1lv7e1Qn7LfwOKkCp03aPxWnso96oG/L6RD2g+mEYSZaoVnH8InX98KM7rqjGm+KwO9ZB4xm6Demvjpjp/i55qNZf7gZE8dyKtFUdpMN2PWWDVqbLz67ZmMpOLOojjrX3iKCfc7w5l13tQj3n2PT6EwahqOcP6evUbsgrdR+JjHaDYqaeKbtE9Zzj21tkWMeQSGYlmOh3QZ/9K/QdNOTIYEB/P98M6yexWxDEPZ2vLsv5KCaRe73gRjJBCMUs3q7ouBIXxy1yPBOixzpxVjRsIc5E2xqTPHH8pdDTu5vkiEsOMiaFju1sEe3iWPy4wdat938Qx/VGBhXIG/JyX46ehg+0LnSjHuW2f+/jHmaZf8Wwq44/Vu9ZiWPmef8EvfK/UGK9ORubnnswh9XKNMGP77YuxHtYvvCIoF6Yd6Usib6/X7xu7fv9azOwP8lHufldZB7lZpOGaiSi9lHRILOMCbISX/pRbkkfWAlgwK5Tpju6dpPYk49y8yQf5TbIyGb4f3nshHUd7uRKvo+KfJRb4t6lR3pIHJZRd94R+q45fmr/C/XQYnp1Mhfo85QF30t/GRhkfzTZ7+i1zePd55nxXqhbq9jTU9p9eMgROf0otwxuqcGnzJQ1/aj1yhLpb3/E+m7Zj4jjL4pjx3+R2P+xKtpLnmA7U9ZVsm8Tt4C39PmlIOotRNSj3LqZRZBvJAq6G3ythH50asM9M13T3l+9xDHxJdvZBZNIh+55rjaiqNP2pPHeU5Zf9Tx+c/8q6lFuh14yY8MQkuI0lAUHBtlgPbx2HiIf5ebjeHrij9IeFvdKuJ1IGg3qr3jMVH+nTw0wQ/vLPbpOPJeoSd1xqIvEaer6GG+vpEMb5f0ltuOcX7Dr/0QlrOgeJAjqDXntqQcIcm/IO89doBD3/Cl+PfUoty1xvscTds+Wz56AXicxJOYvT+WexuyjGMk35LW3GevEPalc9Lugz/4V/A4acmQwoL+fS/2n2GMdZfM2k0ekg2s9+kikA9dmsL+jqF0oGLNou6LjSlwcEy1yPBOixzpRVvQ3RZBzGxuT1Mwx/Ya8YL+kI//6Du0o7TlH40YGgWM7If6GPPHjBnPAqvc/EMf1RgYVKAKfFUkvV2/K6TsLx6ZnDlqdb32h+jU7wUmq59fv3GRPhs3LMJ6bM357gW96jZqQoVyUZ73asCnnt+nMmzs2JjH1xet+fvv+lIdiMvkSkOyx6EtAVDtGmRr6fPKizC7UO0GwnWWqBxioytTb+lydHhi2ePTBPj86DBrCewlIbcX1/SEz+jj80tGu3xC/HYGF3AywfoLvQ9Iu9z4/yRb5lLCT4nSAX17dSrSadKjfD3Z9BnhtCSy863hIc+aYICpSEi1Hy3oYUfJa4+F0H6ufPnyamvbm7WeCXJKBXUzkev65+qHPhfnDZb1+dB45/qQsokz1I0LrEpT2Nj+j61Ab5plpXXt/9WNFVJ870Y18shgy3thlFRb+L6J3+pl2sydfxqH2EhADSOqi8ekJLlvsMaK7XReJ7W89XeZtTLr7Sj02omH9FY2ZkikLgwpjbfzHdOf1VzyX/IZW3jx0ZlZfx186OZgM890qzy9RfUPFJSy9C7X3iMxTVqXKQ82HkeNq+Jgg+9ASThprudWPG4208a74zGbvMcb2PXu6r/V4dnOP+k9BQ2KmXuKzeBT5/TUZ5v2Ph6IU/aaJfBcIQo/9K/wdNOTIYEh/q19d23f6z2GyXj84Dhnuvdk9r5iduuCQCx43RNoVHVc6xDHRMsczQRAixzoRVixoQc5takyqPa1iT9/+7st23cus1DhOChzbCeQ1TNwNxH/eVd3hL37cYHdE/f6DOK4fLygNBFoqgQ8XLGyxUQnspfNG7EbTedYaZPV5893Y8Fj0cpzWcq08kZIpgq/LFs9t5Wige01GoOnGlbhn8dwm6y7P8Vc+1vHab+UJzenYDuK4lQ826F6bJvA2NYRaDhF4y83qeF/J7qlu3FvQDOTSdJ51BVZ6d5GRdNJR9G4jXVVaZT4lFyyQp3Oo9VI8V60obAABvQk03bgS9yyeq3f4DSr47Y51DQq3BVdqVsd2EMcteCRB6K2bQFL+9fc15I1N72veN9BW7O5CrbVob9d3oHyDLCv/+pMEQ31S8dxMWsF5/u3IXFlWvlK/OA3eZS89PTtL5N7orUUG+2yRDsTlgnhui+wwBN0MCDTduBL3LJ7btGAUu7syR9F+A+UbXPKK0QU5Tdt02/LevI7tII7b1uiD3rYgAq+rXyXlX29Nf1sQfAgVCAABIAAE2iwBEMdtdtdDx1sAgYbPGes3j/uV/bcA4hAiEAACQAAItHkCII7b/BAAAEAACAABIAAEgAAQAAIsARDHLAn4DwSAABAAAkAACAABINDmCYA4bvNDAAAAASAABIAAEAACQAAIsARAHLMk4D8QAAJAAAgAASAABIBAmycA4rjNDwEAAASAABAAAkAACAABIMASAHHMkoD/QAAIAAEgAASAABAAAm2eAIjjNj8EAAAQAAJAAAgAASAABIAASwDEMUsC/gMBIAAEgAAQAAJAAAi0eQIgjtv8EAAAQAAIAAEgAASAABAAAiwBEMcsCfgPBIBAPQl8qi4pramrZyUoDgSAABAAAkCgWRMAcdysdw8EBwSaL4HS46Ntsfb7tl+vbb4xQmRAAAgAASAABOpLAMRxfYlBeYMIKELzfp6aQX8ws6zd6QZ5a9TK5YF+mMR+eyLpFLUbtREBZ68UwS4JUblfBLKbZ3J56HxZj67HDt/XMXecvucA1ik0ju0Eyha12Xz4DwSAABAAAkDgmxIAcfxN8be9xt/lVwZfKSM/3ooezUscV4cEYRJnm9vkTkHtr7GTsuImSKTrIz5/jba+ehsa4hhli9pfPS5oEAgAASAABICANgIgjrVRgbSvQCC96PfmJY5rLpzCJDLHe2TfUfsrsCDakjhG2aI2ybmuTscs9NfYGdAGEAACQAAItG0CII7b9v43oPef374P9lBMWZ7VY07OuC0vPFJrPiHeakrfuux7MmxeRvfZ2WN3FJ7MUSKZlCkgjl9ceIKZKUKrueIfDq3GMVkFtf128zR8w9k361Zm9d1QmFD6/viOnF4LHv8T94mWVKURCsxMcfLxW8eduX3+zBpm+exQao3+C2IjznSWHJTRCz1Qmw7lc/WjoLAlpgf7/uhgMtRz05HcAq6/z5JmSqRLz3zkYs7Z54JJzkSx258LH7uvko80tusi2d2rt9tftumPP9B5RYcGSLH2Nj9rfCSurrls5ZryeFnIjL6Oxt/Z9R/itz2ggEZBEETcOlts5fVzfx3q1d3dJrYiw81vcOe9k9anPeUEprIy+cjZ2f2djDvZDxrhbxNUUKFauFEVPEOKzbj9MDpqsYlzj86yCfMiIxR6wirc34cNWyI13szFysb8rviMlfdYY/vfess3+hbetj+ILqsgULaoTRDEfdl0c9tTqSU1rCf4DwSAABAAAkDgaxMAcfy1ibeS9mrfH1ibgc3OXetT6nuhZJt1dpepOdIHrCqrfS9bg3e2eGJ94pXvueI1azKxOYrQ1+pdb6g4HvJv4eHQYov5+CjLZ/+eLpX+k4XNeRFLCVVKHOfN3ZW3xqfU51zR0uUZ2LQ8j2eMIKz5UFpYUaT5qarm1jLEhBpLjhzOpsJEbTJBme7k2k1iN27ZFfnxpCNWXgONbIZb572lu6RDHJcFTNqNdfX4d3/yyaDbXjaBwztIB2/Lp6R09f2QZH+vZH/7wIES6eSNSaRNftLSGAmsTLc/0rm984yNsd7HbzgvOdJDYr/4dCXdLCmOe3vulN10nOGMDXRfYxnvaX28t8R+01VaW9akSl26dJQtsI7z8Uzcv+ZYb4ndTHkpu48ocTzWa/GE0zL3JC+HkMk/STuPiM1ks+kmBP5Wp4XeDQ66Gxx0dVFnvjj+lGC5D+sgM/83zkeeYDNTPn+aujhG2aI2QRAvY3ZP7d3J6IcBIJEF0EMyEAACQAAINDkBEMdNjrhVNvDx1gtjsyyrZHY+uPb9vtV45z3l9ITvh8Tn3cxynLJY2VlRsfxPfFTgezUUDRXHU0NJIXzfJwfbVvaaIL48KOxp9lheQPqmxHHmilhm/vNL0atpU3HTIKbd1KhhGhO07W1+lvgFl6uFpX3jY6ZVJ2mfvzPYWdu6R3YuWPug0CqquLg4rkpbJZFOlb9hPX/OCY3Z755bzG6T/4WWVbx/ZNlROtz2GTtJXX1xvj02MPoRVZcUx+MSFQRBpF4ZKvEJekUQX/J2/ST9w/UVmV+ZtrqDdIrrK1bu1tzYuA/7NfwO0y4ljn86cYGNq+xkQHfJof20a6aMzn/P9/7GE8cf0te3lw6zecbM/taVuI+yUZs51uH1Y2GS//ZZfb8HiawDFGQDASAABIBA0xAAcdw0XFu716ehGosfiNK8t3Hpn2hxnBP8GJvxIpbVxgRR470Z7+xQoVp3QBBEQ8XxnMuk6soMysVs3rwjCCKjqL9ZrutTkjgljp/4lnL03zsvxbseZCZaK1+lxOfe0PwUFOmzlECROE194QRRUhgfo8jXRxwrs7d0kvZbnqqoUq1p4CJkDCFxTKbvtopWVSz0kGPtT16iVmWQ4tgsuYggiEexYySBZ8l57KcOxtIxB16Sbh9cGyFxsLqkmizPdfPGJP4hjMCnxPHEm8+5UNJjTCW2VtdUbXE5woY2cfzkhplEuuqCamVE6jbn+ohjurWa4tsnbOYM+IGUyB731EaOcDiQAwSAABAAAkDAcAIgjg1n2BY95J3Jw8yeRagEkBqEVK8cbE5hkiqtNmgbTk/0qtKaShwrgtnpXYJA1yurWm6AlZswWSJdc0lAR4vPHBN1ma7yXuSk9Z4+/d3mzA919s4r1CAnJI5TIk3Yp8vRUb/288HoSWJ6zbGIOE6JNNEyU05NMJO+mDXHql8SFS9jQx/eLTBYHPP6ovG0inrgry2KkY7vajQnSJ/Z/Xr4haJAAAgAASAABIQJgDgWZgM5wgRaojjWueZYuLuEQeKYfApDeU5+VPAtD8dw60UeA4ykA6xy6Elnpk2eoGTSDRTHEsdVHhqT5QWsLueJY5HuC2Zpmznm9aUh4rim+O5JW4uBPxp1Hf6XLPq5wK8SwbggAwgAASAABIBAgwmAOG4wujZdkb+soiirIiL1A7nOgSAMWVbxKpJ84sQp1exvteMSvOdR2jH5tApdyyoEZ44NWXNMLatYEsI8Y4IgiC+FzyIu5eTQd+SVpiyUSM0DVXI3zUaG/XTxhvYh8iXLyQX77lw0uxaYLMUTlExVMt2QZRV2WxOEZoKbTBznXTdoWcUHcsnx7L7fU7L4YmYFikk7UEgFAkAACAABINCYBEAcNybNtuOLviFvU5LqhjznVXgXO/aGvJvkDXmOmeyiY+qGvNHsjXEMpccvh5llbE3labf0oj5mmesTGc91z0snmeGzL9LLEAwSx4asOaZvyFujuiEvffdhzOjEeeaJc4rd3aS/LU9nFH1dqfsoKTY5qfD/27sTmCiuBg7gE0KcEAgEzWc9okY0XrHqBAEhttajwVpRq3gbsWrFA8UDb0ArHl0t9QQsxYtK1UqtnV3u5XSBRUBBQBaQrchyuYjWowoe+2V3ZvYAXCn34j/ZlNk53rz5zWzy9/W9N8yVPkhfa3diZ7im26z0p1M9TS7p9ElRhe/lofU6WygUL+64mXraeekOyBsTnaMq+QN9jh/fXmniabv7b+7Er7MDfl+1Pr2Q9W+zcPxv9hqdAXlVp+w9m9rnWBqyaIg5YjF7i/AHAhCAAAQ6RADhuEPYDf+kdS8Or87t+Y1yKrezf7JTuXnd5lr5lBO95fSar5rKLbTc1TWv5+y//+CmRWAv/uXTrQtzrNY98BeoXpgXXi1i5m94+ypwU27PbwrdLjw8c0U2f0luz4UPhEzDsaJF4bhF6K+z9x/va7xPOZXbz8qp3MaQXnbbithqKd5J/U73N943ZWV0YEC89wxeH+MfNkRyk3O8Lj0yxqunVeAuX+VUbkH7L03u4Wk1L6NSuz510r2DPPvZXT4WwEzllithI+2bnAPHe3c7OEM5lVvSoaXHrIx9XFQj79h5jvX0OVbUpu/07W18YNramF8CRb7rAz419v7i4ANu4osWhOOqkuvKedzYqdz6fiVQLd/8LapS1bT+Km6taiq3LbFnTsfvmRUwaxKvqeE4L3gnD63F2k8GliEAAQhAoN0FEI7bnbyrnPDtPy9C/KWOypeA5E9o8BKQuqqnx364Zzsnt+9M5UtAQgq5Nmaty6+5+9Btg2Tw9JxPpuV+Mi13vYhtRX77z/MLx6WTlty1mi/5el9FZBnXAt2B4VihePs8+wK9ePyPw3v4jBmr+xIQhXJrVtC1+Xa8IT0O2k+8yBNUc+21yut9dS+Ht9h/XL/vext7Dx501Hm96ObD+i3mj9OS1o3nWZGql2toTzBX9zjh8GWn4T79Tb8fOfbszgsydvKNDw7IU87O/OSG75WZI/b3t/ChbM9sDSiuVFM2HJCndWdePtLMcaE9M3TVP6p//jTaQaWb1ydOqezwvqflVzb+8vmAfYMGnVrtf//G3iNNDcdadcAiBCAAAQhAoGMEEI47xh1nhUAnFlB22GhkpgtukrhOXHNUDQIQgAAEINBSAYTjlgrieAh0OYHqvMIGE0IrZ71Il3KdMrrcJeOCIAABCEAAAqwAwjEeBQhAAAIQgAAEIAABCLACCMd4FCAAAQhAAAIQgAAEIMAKIBzjUYAABCAAAQhAAAIQgAArgHCMRwECEIAABCAAAQhAAAKsAMIxHgUIQAACEIAABCAAAQiwAgjHeBQgAAEIQAACEIAABCDAChhGOMbtggAEIAABCEAAAhCAQDsIIBy3AzJOAQEIQAACEIAABCBgGAIIx4Zxn1BLCEAAAhCAAAQgAIF2EEA4bgdknAICEIAABCAAAQhAwDAEEI4N4z6hlhCAAAQgAAEIQAAC7SCAcNwOyDgFBCAAAQhAAAIQgIBhCHT5cJx3yJo0c75YbQi349WTf6tevGuLmrZdyW1RW5QJAQhAAAIQgAAEOkqgi4fjd1kHRpHmi6/WdJTvfzivtNDehjaacjv+1X84qEm7tl3JTTo9doIABCAAAQhAAAIGI9C1w/Hbm94jye4u1/8xhPtRdn/eVEGvxfmZr/9zbR/ekv50Tlbw9j0HtqDk95SI1RCAAAQgAAEIQKBrCnTpcPw6dfsQsucq/vOuee80V3U3KI6g0vlvNGuwBAEIQAACEIAABCDQDIEuEo7fvXnTsK9ubaLHALLX+qh/m+FiWIe0fzh+8wZJ3LCeEdQWAhCAAAQgAIEmCRh8OH73XBrtt2HiqpAG3YprY9z7kf3c42p1IJ5LZT7bEkdOCbOYEG2z+tbpWy+1Ut47mViy4lthPwc+YRs+eEGqV/Q/Wsla/1ZFbXkFb1fisAkCE4dIau3tc7k6J3775PEFXorDjAjLz6KsV6QfTXmu6Vp8N28oRRPWfOWHErin6lRYoVC8t86S/JHqA5nDmf/OlRQwZXyoZD11rggVEZToXH6F5zph7/HhQxeKD4le1HFVy+RNn+sdkl6pc43cRvyFAAQgAAEIQAAChipgwOGYjcUDTU0HTFj7q24UVSgU/0at6U1aeSSq85zyFj0uWzGFtpgj9jpfHBhyd+3SCMIu0U/KNTqXFk+2o3styeRdll4ILfR0j+lGRW1L58Kz/q21Nd/PoY0mJbr9XBQQnLN4joAYn/JbFfdY1Nbsn8snHGKXHi8ICJG4r4w0to7ZksYly5pHodekF65JL5xK/l/DcKynzjWPLl0u/vly8ffukQQV73ZJuaz8RDx6zJxZf8l666wKxwlT3eIXHy/0D74zx0lA2CQcLWatKmL2TBtqQXYfhYjM3WP8hQAEIAABCECgKwgYZDhWx2KzQVPc/aOlz7h0q3VHnvFX9SAH707VGd32prBk15H8yEpuv2elC2xo2yB2vN6zcDFBJfjLuK1vnoQG5J1MecF817/1hTCdpGK8srkkXfNg3nj60wA2o75MyDCjIlbFc2m47vHe2bTRppJn3KnYv3dyrRqEY/11Zg78cLeKxkrWX2dVOBbMF7xkTvGutGiCNT2auyLlypcy0bkdM0dYIiKztw9/IAABCEAAAhAwfAHDC8dl4TsmDjS1GDptS2BcCRtcG96Hp3+4dCdHeGc2NoHDm5e1lZUvZMpPxaaptMV+Niy/vpFpRkUso589a+wo/VuV8dQ2I0pz4HO/ZbSRxwOmV4Y0OJGgUi5rZeFKSUV05lOtFapLaCzCMtf2vjozW5sXjvXXWRWOEwPK1bY13tPobns039kNteWpv3rNHtVdGZH9M9gorT4ICxCAAAQgAAEIQMCgBAwvHGd8P9Js2Hz/tCqd/hL10GuuzrcgxxzIqt+kXPvsysHEfjZcB19VD12zfRXs0XWPj30bTljzjcZFjFhwY97enMC051xjr0Khd6v4aBQx/naiphqvzqymidXSh6o1BefiCSrtT01Zmv10lhoNx/rrrDq+eeFYf52ZPscXHqkr+OTQbJrYrW5XV69XLtSVxXhO7EPODm7Q81tnN3yBAAQgAAEIQAACnVzA8MLxk+zfts0YbkH2GDN/z6X3jAiruuhsRlofuVsfPzcozpiK+OqYVCCqjE2tjE0tdplMa8KxMuXVStJlIVcKfI7cWrgk0piK3CDSCuHv36o/aLYkHH+4zgpFB4bj2vKbF73nje5B9rFbxosu0cKqj4/vEIAABCAAAQhAoPMLGF44Vpm+konOqyJy91Fzdl8Ul+m2yVaddTIl7X2L6vM/P7mUJpYXaTV+Pto9VTccax/y9vH+2bSJdxnXj1h7m0Khu1V/FwWmW8Wlp5oSZNmyP5Of1H85SSMtx02qc/PCsf46f7Dl+F9ll+NZIyxVsfjPvMeNM2kuGUsQgAAEIAABCECg8wsYaDhmYNUR2XLklhjNmz5kQY4m5MRT0gb6r86uoYl5EgnXM7i2WOJAacLxg7/SbeZlhWkKeua7kO62U8Ykb/1bmcFtnrp05LW1AAAMvElEQVQD8kZxw9eYAXnfqWeVq6vxnkUbby7RnIqpayPh+AN1Zo5ThW9xqNa0c/WvvZGSFfrrrD8cS0MWDTFHLK7PjO8QgAAEIAABCBi6gEGHYwZfFZF54U+4W/G3/2SSnBJYyn3X+lvyh8icEny68c7xy/eO+2VMWCRynK4Jx6/z8kaNpQeszPpROZVbkc/OOEtKMJfPRk79WxV1j/fP5RtNSlJN5Za7xFlAfJZ6Rc6du7bGZy6fGK+cyu30bxL376KMrWO23mTbu6vuPFDO48ZO5cZ3/FG1fE0aWaycakN/nZkT1GVmD6QENrskAcxUbnFPmIFx+kvWX2f94TgveCcPrcXc7cVfCEAAAhCAAAS6jEAXCMf17kXx0fGkyfQz3CA73a1vXyYHZ0yeGWHhEDFyZeZ5idxnpiYcKxRv7sXmLVoS08eeT9iEDZwtcguRP9SM6dO/VVFXUcnblTj0cwFpH0GtzTp/V6evx9snNed5KfZOypeAULovAUk/Ec2+AUT7RR7W/K+ZpuAP1Jm5wNq04HR7R4Ex806QdVJmYNwHSlboq7P+cKzLim8QgAAEIAABCECgiwh0uXCc/6MNaTrnV/XrN7rIfcJlQAACEIAABCAAAQi0g0BXC8fZBynSfO4VzQRk7WCIU0AAAhCAAAQgAAEIdBGBrhaOu8htwWVAAAIQgAAEIAABCHSEAMJxR6jjnBCAAAQgAAEIQAACnVIA4bhT3hZUCgIQgAAEIAABCECgIwQQjjtCHeeEAAQgAAEIQAACEOiUAgjHnfK2oFIQgAAEIAABCEAAAh0hgHDcEeo4JwQgAAEIQAACEIBApxQgXrx614xPWnU1Pq0icLKgQM+nGbcGh0AAAhCAAAQgAAEINFsA4biDU76eZHyyoKDZ9xUHQgACEIAABCAAAQg0QwDhGOG4Of/roBmPGg6BAAQgAAEIQAACnV8A4RjhGOEYAhCAAAQgAAEIQIAVQDhGOMaPAQIQgAAEIAABCECAFUA4RjjGjwECEIAABCAAAQhAgBVop3AslievG02azjgdLZe3yiQPXaYQDMjr/H2PUEMIQAACEIAABD4egXYKx6kJu4eQ5l+dvddlQm1rXQjC8cfzY8OVQgACEIAABCDQ+QXaIxyL5VXnPIaTlvMPSzuy2fiPACFhzWc/VNjSuMYrExmf4+4nuVqls1UsL9vhQhuN5ffwKkpRNX5HBMcb2wqM7FL9WtYWjnDc+X8kqCEEIAABCEAAAh+PQLuE48pIl0Fkd5eQhJblyBY21samSbyDc5SfQwlm7w/Hl0/EEJTox8bC8eAFQkvH9GC5XCyv2O8msP82nkA4btZLZD6eHxiuFAIQgAAEIAABwxJo5XCcWlWV2iABi/hufcie867KWphuW+twcdzN7s0Kx/32pjvZx7hnyMUyyXQ74bqjSa0Sjo/l57+v/diwHibUFgIQgAAEIAABCBi6QKuF49SSzBO8VWNdTsfohmOxvPyka1+yr6t/uaajgrgox4GiHc5Jj/MSB38hsHSMmXgo/88yzQ7JkqKNW2MHTuCbOESMcE3bk1yhztxi+UNB9G2nxVE97fmEbVg/56QVoSVJ3EmvB8YSVOL++2xRYvn9tTNpwkOiHawbDcfitEwritb0u1B3wPjm1lVlU7GyW4WZV/6hDQLbMzJRRKrF3NuB5xO0w3HCLYmre6zVJIHZ55HDV6Rujy9jOmCkVVeHnU8gqASvtELXNTH/c1DWeZWgVKSq88mCgm0eE63dfLcm5zaMyIb+eKH+EIAABCAAAQhAwLAEWiEcs7G4v6lJP4c5ASIm86nDqFh2dU4vsq8bX3s9E45HuyRab0rfEpS1aovQnKJHHL3PpEmxTPrtDH43x/hFJ7K3B2TMnB9GjIvdeushU6Y4O9vGlu6+IMUtKMf7fNbyNZHGVMQSYRWztfnh+J7UJyh7R1D2qjXhBCV0Vi3vCMrecVUq5MJxtx2S6JDEbqtzj/iEDztWojwX161CXCxxmkSbzUpa4Ze9MzBjzsIwwlbowdVZFY6F41yF03hZ2wMynJwFhHXM+nTlFZ0sKDhwbv1IK3PScljDiGxYDxNqCwEIQAACEIAABAxdoEXhWB2LTQdOWHA49Np9Nr+qk3FadXV8iIslabU8slJ7JROOzdffZWZ2E8vL964WENMzQlSNqcKrN4wp4aYsLg2XFjpPpnv5sDNdxP+eRFDCrTlc23DV/UO+GVsi2T4bzQ7H6urp6XNMeEhSC+7Y2UVZOUauSpaH+gvV4TglPW+ZT+bxfK5W9/O/tKFHnChhilWFY4Hj1XLmq1h6d/I4ut8PUiYcnywoOHHnxsYfXEcPtqgXkQ398UL9IQABCEAAAhCAgGEJND8cC664j+1vaj54yuKj1/8q1fSIUKfMtOpqsfxv3nxLcphHcL3xbapuFdY/l6p3vugbTdgkH1ftFnwkkvgsmZcv47Ofks3LacI1V6iKzsmCFBMq7OuQ0njdMpmi2jYcb8wXyWWbF9DElJtnq+RX/TThmDl7iqwinK1zwcIvaTPPQma9KhzH7lBHZ/kD9zm0kbI0uXZXihM5os1H1o0ZZqmMyHuv+UokhvUwobYQgAAEIAABCEDA0AWaH44vbB9uOuSbbdES7f4S6rDLLIjvnf3Sghy6O0HdY5hdz/Q5Pl+m3l+YXnAotJh+qAzZZw5GNNL3d8WdSFU4Flfe37Q4jLDmG9mFD3SOm7wjfWeMTF2Htg3HG+7ekMvjCx5cza9MkeuEY3F56QGv2J42Or2WTXYVMBfI9Dn2LuLaleWlyoTtlpegG46ZoHz0xrmp43qRjod5CMeYCgMCEIAABCAAAQi0r0Dzw7Ew6eelXw01J7sP/WbrfuFddTxV59206uqI0zNMydEbkuu3K7MD8rTCsfZRynD8eZJHVKGf9kekScDiyorfhZJ9Z267+qQ6Lgg3osLnhbPdNtohHKurqm45Fsvll07EGFFh9odyfMOZamdPm0j/13D8kyh0mdu0ft3J7qNnzzobfxThuH1/DIb+L13UHwIQgAAEIACBlgs0Pxyrek2UCcJOqSKy5RCnzfuicrUjslie7znVlLTxCVW1+KozpfLABi3H2luV3SrsU/1Vrcja6xtdFlfdXz2TJrdJuHdzJBBUvJemjVa63JE292K7NzAlNDpbhbpwfX2OVS3H6j21wrFsy0KaWJIt4K5ULJd++2W9cKyvW4Vv0qXFrlP6WKhisV8YL1/CtCK3/AajBAhAAAIQgAAEIACBpgu0KByzWVOujsgWg9aFxqsDYs6xcSbkWF6mOk2qF/SHY+HvScZU5LIEdgIKcYV029YbzhfZwW30RdHw2eKfSjRdFNzn0sablf13lbE77mYPSvD1HxXMuVIyb4+kaNsgnSmWxSkZ/Sn+3PBGhg+mVVdfC4glqBuHZDqt3cxUbsR7w3G550qamH3rd64btCjj9iiqXjgWTA3VGZA3gMcOyNvr69TLrH4sRjhu+kOMPSEAAQhAAAIQgEBrCbRCONaJyHuuMMPm0qqrrx+eQJITdmbrpEx2Z70tx2JZsct0PjFBONs3e0dgpvOicMImZo2IzcrJyRmDx9K9XcTuyqncsl03x5hRgsm/sd2XxVWlHkv4hEOMk2/WNr+b4x35xCTRsb916iCWFc2dRJs5J288r3phXnBOwB3NDqK4m70pwfAtt7Yxs7n9dT+Jm8rtfeE4rbr6r+B4U4o/aN3NTWeyNx1JpubF231VLxzHjlst/Ppw1vbTqqncxsa4Z7BTue06vHqWVmux9hC91rrNKAcCEIAABCAAAQhAoCkCrRaO1a3CXFbO2GhHmjgeD+MakrV30N9ynFZdnSwpcveIHfA53+SziGErU7fFlqmH9InlVaHXMxwXRP5vHJ+wEfSeGe8cWByp1QcjVSrd5ZUw3DHM7IsoakOG7x02VWtXIPpGttOCSAtu/NyM65pWZLG84myA6NMpAiPmnSDf5cQ0IRyLq8p+CUi2mR5mZh9u5ZLiJS52nV4vHCfsEUuWr4pmXgLiKmC7UGtH4YbLTbmF2AcCEIAABCAAAQhAoLUE2iwcp+wbQZpOCsjXjqQf7TIzW8Wee5r2aTVFw0Csvaa1bjPKgQAEIAABCEAAAhBoikBbheOLnqNI85kHuIFx6iz4cS7Um8pNG0E7CjdcbsotxD4QgAAEIAABCEAAAq0l0FbhWDv/YRnhuLWeV5QDAQhAAAIQgAAE2lQA4bi6Y7N7w9Zi7TVteu9ROAQgAAEIQAACEIBAPQGEY4Tjd/WeCXyFAAQgAAEIQAACH60AwjHCMcIxBCAAAQhAAAIQgAArgHCMcIwfAwQgAAEIQAACEIAAK/B/2tHjMziIbhUAAAAASUVORK5CYII=;" parent="1" vertex="1">
          <mxGeometry x="47.4" y="280" width="585.19" height="200" as="geometry" />
        </mxCell>
        <mxCell id="-ubOXBx0BQUR7QONxQG7-8" style="edgeStyle=orthogonalEdgeStyle;rounded=0;orthogonalLoop=1;jettySize=auto;html=1;" parent="1" source="-ubOXBx0BQUR7QONxQG7-6" target="-ubOXBx0BQUR7QONxQG7-4" edge="1">
          <mxGeometry relative="1" as="geometry" />
        </mxCell>
        <mxCell id="-ubOXBx0BQUR7QONxQG7-6" value="自定义结果集&lt;div&gt;订单 + 客户&lt;/div&gt;" style="rounded=0;whiteSpace=wrap;html=1;fontSize=16;fillColor=#f8cecc;strokeColor=#b85450;" parent="1" vertex="1">
          <mxGeometry x="280" y="180" width="120" height="40" as="geometry" />
        </mxCell>
        <mxCell id="-ubOXBx0BQUR7QONxQG7-12" style="edgeStyle=orthogonalEdgeStyle;rounded=0;orthogonalLoop=1;jettySize=auto;html=1;entryX=0.5;entryY=0;entryDx=0;entryDy=0;" parent="1" source="-ubOXBx0BQUR7QONxQG7-9" target="-ubOXBx0BQUR7QONxQG7-11" edge="1">
          <mxGeometry relative="1" as="geometry" />
        </mxCell>
        <mxCell id="-ubOXBx0BQUR7QONxQG7-9" value="2、查询客户" style="rounded=0;whiteSpace=wrap;html=1;fontSize=16;fillColor=#d5e8d4;strokeColor=#82b366;" parent="1" vertex="1">
          <mxGeometry x="280" y="540" width="120" height="40" as="geometry" />
        </mxCell>
        <mxCell id="-ubOXBx0BQUR7QONxQG7-14" style="edgeStyle=orthogonalEdgeStyle;rounded=0;orthogonalLoop=1;jettySize=auto;html=1;" parent="1" source="-ubOXBx0BQUR7QONxQG7-11" target="-ubOXBx0BQUR7QONxQG7-13" edge="1">
          <mxGeometry relative="1" as="geometry" />
        </mxCell>
        <mxCell id="-ubOXBx0BQUR7QONxQG7-11" value="自定义结果集&lt;div&gt;&amp;nbsp;客户 + 其他单&lt;/div&gt;" style="rounded=0;whiteSpace=wrap;html=1;fontSize=16;fillColor=#f8cecc;strokeColor=#b85450;" parent="1" vertex="1">
          <mxGeometry x="280" y="630" width="120" height="40" as="geometry" />
        </mxCell>
        <mxCell id="-ubOXBx0BQUR7QONxQG7-13" value="" style="shape=image;verticalLabelPosition=bottom;labelBackgroundColor=default;verticalAlign=top;aspect=fixed;imageAspect=0;image=data:image/png,iVBORw0KGgoAAAANSUhEUgAABAgAAADpCAIAAAAmrJJ5AAAgAElEQVR4AeydB0wU2R/HJ2bDxkCOqHEONUosscW2UbDEXqKLelixYOx6Iip6Yl9QEAsWFCmLAoIoyiEWOgKCIqiIyuFvPbFhw4KiqIsFh//tP1N3WHaHpSzC+sxE3uzMvPJ5b977fV8bTIX+/fIEMAwrV7iiAxGoQwIYhv3yLxYCgAggAogAIoAINDICqPFuZBlmiOgiYVCHBjHyiiaAhIEhXlXkJyKACCACiAAiYFACSBgYFG/j8BwJA2TN1zkBJAwax8uPYokIIAKIACKACPAIIGHAg/GrOpEwqHOzGHmIhMGvWp2gdCMCiAAigAg0YgJIGDTizKurqCNhgOz4OieAhEFdvZ7IH0QAEUAEEAFEoN4IIGFQb6irF9D3T2Vvv/5XvWdqejcSBnVuFiMPkTCo6evYKJ/7XvqmqKy8UUbdAJFGNAwAFXmJCCAC9UQACYN6Al29YJ4VjZ0AFrMKr5RV77ma3Y2EAbLj65wAEgY1exkb5VNFAYNdcZPdGy/9aJTRr+NIIxp1DBR5hwggAvVKwGiFweOwS1jfWOaQJGy4pR3r29sFXiGF9/+ncfXr4cUxon6xrXYW0Z1gRWcyTazjRANuX9S40UCnbz4ssL/bdeWbfwjhAL7smgeWBz4J38Re/XDsKC5y35hBnvPdKloYlGX9Gbqg64COZs2aNes3pJ/v8TXfwaWu7MXXJ2z3rZ9xL6/OPKx9xL5nLPKb2alfO9PmeMvBYwdHxmyomZ8ELHVpj5nNsq/Z49V66mvqHM8p7bu1MDFr1myQzdCouI0ajxuC8+udXTD2XxNx0469u23a61BClQ0C1sgHYSJRk1Zz55ZRv7z06GwiFolMrVhhwC9pfDdbKqv6+w6K/f4ueaj5hlb1mAGv81PBdxswyDrx+m3ByQPpifcNMQz5IWqGZ4fWfl63GsOYwetrdiKZXZiy5lCrIGkAGrWPc81TK/jk/0ohLGbO4H3dWmzv2z9wjbygqIomS9A3jYtVcNa4uz5O+e87310fYaMwEIF6I2C0wuBT/stjZwvI42CmuW5h8G9QGibJidVsz0hh0HvOpZZSoARFWcSaOOnSTKzehIG++V8tYVAaEYaLdrpcIz3nu0lhQOSt9B1kgplZ2DuM898y0sHaDBNZuJ3epGF31vgU/mqNYb3PNxhhQOQt9+zTBGth6eAk9d84dGYXE6xZj8jLNdEt9SYMiJxFGzo3aYK3X7HGxm/9oD8sRRjeI/JShTgbgjMlDCyWbLEN2Wl7dOtY55EtxFjTCdtX/QAXWhj06teuZbuhOeTp+pNS0bghHTG1MOCXNL5b3yKef/IBLn2WqPmG6vu4Ae7jp4LvNkBQderlvxdHimTL4xqQxKrT5OntWe2N7PonWfs4642nOjf+90R+xFLkNmxugjzgipejvLvIZZjHi2/V8ULo3vrnLBQb8hr/fee7q3oOXUcEGhUBAwqD/8rLDdE5VW28t/IsaiQMOnnCokEX9z1Wqb69XDDg8u7D1xq5MCg7G46LPD1ukgT5bkoYnBzSDhPbH3CmTX/i5oK/LDHxJLsvdTRoYAiDtcYqpVzhWhbcvxlm7nSU6XEn0m1tTLAB6x1r4Ge9CYNSP4kp1nzdcUatlSXbDG+iGWdDcKaEQaeQK4wCIe44+Q8SYW2HZLPCoNP8IQvNWu2JdSFyZs43tdy5ujtPGPBLGt+t73vc8IQBPxV8t74p+ln3NTwz6+eQoIzsGWGlNQ+9/knWPs41T63Ak0+2t5d1mPvPe+aWsux1e3DTU3F1NQG2/jkLpJW6xH/f+W7yYnl5A+q9qCoh6DoiIETAIMLgv9KCZL9VI5aGf6CDfl8wXhIz/vSHC4eu9h4Z11KaNvVgYcF3dbSIoqIDLhndh8eZDb5gvTIv7G4ZT1H8V3g9f9GC1LaDYjHrhE4zr7kkf/rKPvo0PAOTXI1QDwp/3DUlBttSyF6n/moVBvn3ekhi1HONuElH0/Pvkw+RIwbNdhRGOceNiSgty7rdYlZ+ZlSFEYPSgsLt6y/3GB1vPizZatntgNvfuFrhdVQmJskMzX+z3elim8FknN0ul+pbVz54bS2F320Uv9socKliI2XF85OjLHi/Yf39nlPu9nN6HvZA6blA/6lEqri/LUT7PPMo7/huDMPeeXbDsPYBF1njD7Zku/d3Wmv/mhIGBbL2GNbt5HXuqsOOrhg2ZQajIkD2LGTMwv4t25o1wcSmnXp32+LtqKSnmpwd2YOdhVLhb4/R91jJ8TXVftdky67NTZqa/dZnRP/g0+tYb+3/FGELNkye29m0dZ+BF1L/PDiiWUuLNsv2r6RnrZQrXL+nz98/rUP3FiZm5uZWowaGnl73g/WWuGJrg2E27ksSlnfthYtbtm095U+7R7eYJDzb1hHDup3K5lK0fGc3zNRuNu2z8LPlCteS85NWDbFoa960U78+R6IWbO1QYSpRjWNF6CZZrnB96dEZw7qGX+PivPa23C4m6q9yhSuhB2eBWBW6d8KwTkfPznUb06qNOZmDW+VOnCbUEAblCte81RY0PXrEoJm9XeQE0WhXp69B1i16j8lw78QTBjpLHb9Ua3E/fjOQfRHo14F5KZYVPVSpVP/7smsBtNnynjVJSA8e/f0QH18QXky6i+IKcGlB+OPPe1wf9Jjybz/HJ57XyvjvIPFO6b/n8YDpCssp90ZtKTx1n+DVOVqiw/+J/+7w3fQ9/yu9ExYzZ8i+7i22S6wOrzp4/wWvqlOVfUjzjJjY3cPSzK1nv6MbQ1+UsD5fdHDFF106PX9/57a+LqklCp+jfS12jVme+4SrWNg7tf8tLUrwCJ/Qa3fH5h5W/YOcDxcw0yBVL/f3kuEmLr9rHCJvb6quI30rLTrjHDyiw/aOHX0d5M8yt+3FW567TAfzNPMPkWzu3+pe4PzdB3DR34lMJAr3dGM9F8ksV3M+snGsuc+sD9r+CrL6L2/bPtw0JIIqCMzTD9LHilymH6MmXVJG9qywV5c9jo1o5965q88Cj3uF/LJRc5JV0Phf4QPfxfKBlm6tRFs7d/GZ75r3gGvLtCVT/VuVcSY+Zh2MnNRzh6W5e58BIS5hL0r45VlnilQqyme70MJUl6ND2rh36ea7eHf+Sz2XipTcnCeS2QZyRVj1I+faptUX095SEa+i5Kh009CjxNbmPRJipTw5UYZPvPZPcqK9ZGcHC8+R0+LjCng4+O87361SqW55TpjuGp7zhl+U1DmIXIhAIyJQx8KAkQTtTU0thy0/rmBeEUoYDFl8dfhGhc+pB+6b05tLYqwPlzAN3rfiLZNjxdLMtUEPA8LuLrFPwAZm+Bew1dqLx6P6x1jMueUZUXAs6oHMKcVEcmF9DvNozYXBh/enIh4fjnjs5pSESdJXnCLd5JH4nqrlSGEg3vaqOOaqeNWTmL1JfY98JMPiphKVvFw0OsZ86nWX0MdHwv9dPjcR63/Zj40zJQwujVt5aa7PA3nY3YUz47G+aXsesikSLh0lpecTik8mFJ8MKehcWRh8+fTXLGg9u2DzybfBfxfOWF0wjScMyr4WFZa81DyUpdzcgZQoS9FBr3tUBPhuDMNo05DrFdboOK9CGFyYMLIpZtGv3+6tf4S4SzePaWGCNXMOIzu2iczF4VvHy7eO3zrGHMPaOLqSbvLYv+QdrRxuL93aDWuCWzquJqf0zO4mxsy7nkgnbV8CSGHQaUD/nZuH2OBYj949HZzHrRlgiplL4m5SN+Qs2tSlibhd5zVrbeSbhy+WmGKm7X3jZIyuoITB4EFdh9kO83aVbpvSpjmGWa1eRpv+99a3wbCeUbc5I3vlvt4YNmFaKR0rwWeJG3McWmEmbTo5/WXjt37geOvO4zqqhQFRi1gRukmSoxzhg9thTafvcqq89qNqzoKxonK/3dhR7eY4jvPfPHxB76ZYk9ae0VtokhrCgIBNMdOaYqZWKXeYqURiu9lFnt3Eo23PLTKXrHEgS4t6KpGKX9L4buH3QFVSGhX9LiT6nafLPVz60Pkc6SaPtFLaDrl/8gFu8/j4O86b7z7L1VKBEgYPp255uOxoUXDU6xWOd3GbB97sG6r6Vrp9MbSZUyA7+fZo1OtVK//FbR8FPWfe0Bq/R2RUiLwd3m1EbsPnJcgDMg86Hektdunv/JBdBUTkuR+0MNk5cWVqYMDlnXMOdhC525/6SCeBNHa7HN7secVj4k68t+9Sx7TDzgFdRO6rkvSxNEqTF+/Gmx9c7HopJDBzPzmpY+tEf1oalN6KyAo5khXifqy3SDZ2ZSbpJo/cXMaiK8tc7YmLdkxYkRooT3f5Q/7HCE+9hUFpbtSNk2E3ToYlzbaoLAxq4zOXsVocVbC6d3G0yGVqCANWpVI93u+jlgqUKTxhwjHpvKSAgIw9i3w6iVxGe71h9VdtSArTKA4dsxVv7f/XnqwTYdeOuBzr31TWd8NjteTSklD2pyriXJYjO9DK1HOm88Wgwxl7lvp1Ebn9IWeFoUogRYwwkNqEjJuTECC/vH3avrYiV+nBN3qtFKBFha7VGlUIAwEaVZbY2rxHwqwoYTDsiP3IU56+mUe2R4xtKbMYkHqXLRxCtdnrlK02XczFzXshecAWW/S3sRKoM2HASQKzjqOd/JMLlDw7mBIGzdc+Z7v3vh9fFYfZ3r1DQfuYmG0iST/4lL3/y5sVY2La7aU7HVTKhOuY5JI/NwZQ/jFKftfn6head82FAZtfAmsMsC2F/70tGDsgtYc02f2u6uGxS5wwKH/wbPPee0lvWF+UL2ZaxVgHMc0/JQziZyeyHYUlz+0GxnT2ZlPPPlTF33uvJJWEwbeMZxbSfI+7DKvyp0VjbNQjBjmJ1hqdgiYuv4uOnmTGbXSHV0thULK/B4a1801mjew8h0in4d5Bq/nqQtcUl8+HeouxFltObWas+cxp03/DeqxaWs4KgyGbVpYrXK87NMeGTnwNLj9CBzTH2njFk2G939/TBGvrFc8qgZy5jq2xdosW8IVBc5upRbStD2vDRouwTsP/oU71EQa6nlV6926CtdjMxrksdkz/JmphUJtYCZMkYPXfE8wxrGnPEf3cttldTdWyWloXZ+FYUcKg6az9a9W5YIp1dlhMn1LCoL3XWadnqU5Pk5Ylb+3dTYR1WjC/lJ1KhE2Z8ePSxDGmLXu0bbHttEv+hrZ8YaC73Ol1RedUojdvJ9jAxDOs1fysaIRUsfgiY9BQwuDukjS2r+9TyQJbsApipo98SnvaWvpQ/oKtc75+dp4FveTMyGON3yOVSvXtrpO5rNufCrYTtfyO2wHcJCyK9vrLHUdTWX/Xp2zNUHpuhjveO5muCEljd3hGgUqlykmwEgWFvVWp/nu4paVstDdTFwrhKn8VtSX2wAU2WNW36Fmu+ICLFTrwdU3MKFOsairr/RfbeV3+5lB/md7CgIvUs12dKgmDuvGZC0LtqIrVh+CRLvioK8+YJ4p8rWVtZ7M6iDJnO9rnspqy9NwMN7x7Ui59c21IqiOojYYyd7FIZiPn2oH/5Uel7PG9/0r9lG6XcJw/5i5pKhvn/ZY1X8sur9yNt4+9rk+KKJ87zLxVRN/8X3HgCBdckqLQHRf1ldoIA31o6CqxtXmPhFmpKGHQ8vhZNpeKT4S2Fe3fQ7+i6pTrcn0rzAzZaNu9GZIHugih3xsFgboRBi8TNo5ob2rexWbtkbRnjNHOSz4lDEacUE/qzJOnYlY3k6iu7Nt+KdjQm+fefClkjk+H/ozBVj6h2zjiyi0zSeL8GKWS6/fmeWxYYbCh8Ieq9NCcGGxsXvb/VPdD0jlhQEeh/FvZGybOr9eMizH3YIQCJQwyDnOyQfV534yYJhsqjFbzEqHDqU0YFJx+iEufxrB2hUpV6jpDLQw+vs1Ou39Z83hR9bhwLYXB98P9zLDf5nmuKNG9tliXwUr+Lu6bwD5IgJOPNdZkwjQlaXSSIwZjtjqVK1z/cbLAxkz+AC7EySFtMQvPGFIY5KxoiTXrG5VKGqzUsfzgEAwbNamY1+s/fMsq2rotV7jmOllgIkk8FZY+wkDXs/c3tsOwHqepUQtKwCx0xtXCoDaxqpIkkbs6feug6b3NTTEME5kOWTjjGYuOTqYuzsKxooRBe3kqK+1gxZ5eWJM/ptOziShhwJ8IZtLNZnxuDnkzPZUI+2P6N3A62A/D2gy6mudCsuWNGOgo3/r+rFMYqH6Eb1Lgy4seUz6Rt9k+jWfrGEoYPAphrB2VSkWOJ1jsLKFlRF5oPj71eVxR2Uvm+BawHvAt7+ku5hq/RyqVqiBjfMWJN6o3hWkpBY9pYUAaOludklk9olIV+stxkxPnqfkkpLErzXqpUqnupA4VHYskuxmebLeUDd37Wl9W5WUlb5gxw9S/PPHmZ9P5T+oys6ie3QVRrMJSqXI27KwbYVA3PvPTwLirZPX22NHWIh8fctaZSkUm3G1ZDNs1T5mzfxzhRBQ1nmByMlYNQKWqGUl1TLUJA+LeWnNZjwU5FTrN1I8IuoTjfPvCANF2p/Pq4eL7PoG4KCRCnUTdKaJ8nhCg7j3K27oHb3o6RTA6zMXaCAN9aOgqsbV5j6pgRQkDtaRUqfJShohcnS6o31k9wJS9unbcZUqv5qQ88L/Jljs9HkS3IAINg0DdCIObbj3Mus7wzy5iO+gqJo5eYxClnk5Z8vB1VNI7usPu+oELWub6Lytgusl+lBxckID1jW0yILH7zCt22+BItnq+vmGFgfPz7ypV6dvP99+QX+6pIAzKlH/vvNzWqsIqBTN3pgGn1xgcY/scVLS6WPOMNVoqwtF1pk0YVDKSqrUrka6QyMXHtZpKlLvMqz9pqTYxNeveu+N0u6EBoU5fKeucM8p1GaxZfzbDzPunsTcTsDZwKEYPDlQpDMhnK/+jBhZIm5VZY7CGi0Nx9OxIr4VP75AWrT7CwMZd+7MaadFYfFybWBF6kKTMcZfP6UvPOXVpizUZKSNHVLhDI27c78Kx0sh9grbypVM+UflCCYM2673npgTP2jpQhLUbfJ1VI4wwoKZgfby04l7qujKoN2GgKkl72k56fz+pDL55/QkdPT9yVQy9xuCk2jIqC1gF+LYPdK9FzpF8/roFZvXChmK2D1nnm1LlhfvpY0Wypee114Oq7HgJu18w7dO7o0E4PTigUlVp7AoG/qMg8twES9cKawnMoyrsrqzLzKoU57xqrDHgIqXNFK4bn7kg1I6qWZXkLvlNNnj3y/9UqvueB/GWfydxHVaVzNnnPv64KCyKqZ9rQVIdQW00VOV3veWdyUHdbd16+kyZEbUz8KG+vUXCcc6Ol2gZK6YGncgoCaaoks8V15Cok6TFVenZCvdUMZVIDxq6Smxt3qMqWDFrDNQ9CiWvU6P+ucENLlZIoeDJj5cpshGtxVPC1JpL8H50ERFoOATqRhh8zDu5/o9u5uIWfWZsPVV59U0lYcBPPykMhl33u/bmIv9QqK1/1Y+y/JzC8L/vb997e9acJJEkaVUm0/DWgzDgosoXBoqgNJEkUXqwIC6TjvbjeaNifrowqHJuNJcWDUcthQFpquY63w2bcXzbWLdFVjP7mosw85WBFSa6CBmstREGzXv4BM9N4R+nmVWzlYUBZyXXQBjwn9VIixZhUNNY6UOSiwkB6yMnmGA9R+ezsqpc4aoRN+5mUhjojpUewoDZlahE3rcFZuoQwO7mRH3HgFubQQdXXyMGKtW3jyungHVQ6f8K3gyR/rsuRz2qWKUwwKc9Dbz5+TL/yGdWJ9f4PVKpVJVM4QqvWm0MmgoeaZ78p7g4SizrPj7+ZFw+PWYYOn8XrqcweHhJKpItOacWM7ku+q8x4GKizRSuG5+5INSOqoWBqixliTvePeHW/14dkMg6r8pX99tWMmf5wqBWJNUR1EaDvFr+If9x4smr/h6xzrP9e4llvZzy1VtnqB+v5BKMMyU4PRb7awwXv6BVRxUpquRzfQkDPWgYSBiIdLJS0VOJJl5TC4NKWVH1D2WvbpxwtevdQty6/3zP5GfqF6vqR9EdiECDIFA3woBKyvfCzFBKHjTvNXXLiesv1SOzgsKAnEo06Hbaf/rh+F+Jx5SYpq4v6dmURWeyyP1/1H3z72XSmOY71ZN4SE+17krEhia0xoAaMWBv5I8YlPrMjcEWPuQWPqhU77eM0xAGBplK9DhSaCpRjedGa9uVaHPmFsmiFbNeUUbnqx1dyF1rMripJks2t8Waz5nL2Z18B5G3zL0r1nT6LG7vIAGDlTRkazOVyMwqlRoB4EeAdgsLA/12JVKPGPD9J+fQC08lqmms+KGQIoFHkoANqX/1nuc4i94nir4ze3kLrPmAy3oIA3Iqke5Y6ZpKRA/78BcfE3mLN7bHmo6wfUkFyh8x4CJff8JA9V+Gzz3c/mVo2H18RmEWrwWueirRpBcZOuqcGr9H7FSiORHcyIXqv8Kncefz8+nlR7WZAsFVRNocL3zluCggmFcj3ZZ56isMPt1aKJKN9OJsoS9RU13UU4mKsmeJZNOPqc3XCrJBHRltpnDd+KwOg3PpIQxUZenneoo8twUmDxPt3HSFnX6vYpbb6ppKVCuSXPxU2mior9Ku//7dcQA3O53Mi5rmLdw5Zb7rirOKnB7jti5de3muIkW1EQaVdiUqu35l1ZILKXRR0rfk6KahSxjU5j0SZFVbYfCVXGIwqXszShKcu8vur8JlI3IgAo2DQB0KAzrBnDxo1mNtCjM4KygMShKum0hSNuey1WPZB7lL9opoZiHv8+gcK7t/uKnDKpVy/6wYk03sCOytvFaS+PkpjAYpL8gfIIkZfarinJ1/73aRxK3M1F5rFoRdxiTXebOc6FSQuxJhOoXB96MOMZhdfj7bQVn2OH+QREMYxNknsUsBqMXHXX3U8kWvoqFtKtG3yxUXHz8rGi2tmzUGBPUdg9le6u8YrG6HiSfPoGeZE8cHtcKazvNmrpbFjemPYaNcydn/5QrXJ7t79+vZP1a99eeKvb0xk4rfQHi42RLDukdSE9M5C7Jc4frZp4+Yt5CXoBYf93T6kzSLq1pjULy/hwnWYmM4s68/cXup37SejruX0/4LCwPmOwbBbM839R2DgetX6POs0rtXhcXHcWOsMfUag9rESoAkAbL0Bb9hpp1DuZUAucu298QwK+kTnjDQxVk4VpQwEM/2qrD4uKvjEpoGXxiUK1zvb7LEsFb0Mo96EAZPoh7h0ifn1R2+Fd6e8n9f9ZP+23U6SORKtgYhb6CEwd2lFRcfWx9laoaPF5+2lua7K9gX+MeX4D1PnZOYMGqzxoBefLxUvfg4b6sXLj5+hg74y50VprL+LhUXH/dJBipJ+hi7KtWPe8ERk4Yf3Zqk3nJHpVIVhwTjokMH89lKruyNzxCZpjCg1j8s5K0lYEm+Dx3jirc54hn34uGDl+l+4dIOO9TCQFWwtY2s04I8ZlZWeZHvIBk+NpOnQWhvtJrCtfdZe3r1YlX+dEcXWdfWO/BOsdf5ZYMyhTvY57LbmVKLj7sl3qbSUTuSLFGtwuB5zvL+hzYlqEtygZcv3lRj13/t6aU3FdUVZ1VJ7uKmMustT1iviTx55NKVOQ/0SZFewkBHrFTUdwzmqL9jcG2tJ24aEc+0x4IlRx8aukpsbd4jQVa1EgYF4bM7/4YkAfcOIEcjJlDnwoBmQckDzwSm8RIUBqpv7zbaxmLDLznIHx4Ov7difhJmdXEHMDU5cfdur34xlov/2UduV/pw+6a0ZpK46bFsj9z/lL4L47DBaYvkD+QheROksdjonERGU7C58q1o5egY85k3D0RRH0I+W3CZ16j9uJXXXhJntTlfTm9XmvaRqlyFhYHq2ZnM3yRxPVff8Y545O13c9jszLETNITB5XGrLs33fSA/fnfRzHisX9r+x2yjzcZL69+390rIvUrZ7UqnBFDuhOLUp5QR8+XTmlnQ2r5gC7ld6ctZTo8nzFELA60e6vMj8+XjgSaYWas5DuP8ZeSXj5uILNxPs5sF5a08NMAE+63NwlVSv/WDxrdtgrWSxF1lBhC+nx7RU4RZDuq/h9yu1MZtUutmmHiaZ4Xu9m/HB7XHRP2mjPKjtyv1c2A2Bs39070H+TVfcrvSTUPtu4uxZt1OUV/zrVIYEDkL13dugrVot8xJKpeNdLT+DTNptT2SjXOlNQZ8QUJ/+bhJS8vl1DapM7tSXz7mhkSEn71hv4zarnT1Whv/9YMmWnUY1k4tDGoTK2GSZfHjR/+Gidt0dFot9d88Ymk/MwwzX+rPWPN06nRyFmRFCQPLsaPbzqO2K13YuykmarM3htnuSUMYEJlTp5pi7efN+8LtSsRu80rHoW5HDH7cedlHqhjp+SaY3q408ytr/lBF+7+v+5YALs3fRe/CyxZ3esRgquzh8hB2u9LxD3y5rc++lW5bBPj0h2vC3oacfeO8+h4+4f4+TuizntTkL5Hn4d1G5E5uV3qY3K60j9il//qHnxmvymGHdyuTnX+Q25Vm7Jp7sINo+zxqlbFK3zUGT9zbUd8NoJcpczF8lj2zmaxd7zD3Q1lHD11YPcJ3mnSvpjD4UbCto6xt/4iDcnq7UgU3veb73eylPaj1CSJZp9GpwWv38ITBfwV+Ae1E7qMXJx+Rp7v+4dlatHsVN2G/6Nl5cq9SZrvSNtI4yn3j5IU3dBVdc5+ZpGlPr17CQPXfvZ0HcJHMatszVgFSnlKm8JgRgeMWJB0OuLJnMbVd6f7XTItTG5LCNIgXe/u44B2ObN5Pblca5HFqVAtZB7ubFce3taeXFgY646wqy9m0v5Voh83ylMAjmftXynuKXIfvJJfIkf+EU6SXMNARK9V/T+SHLdnNeckvH5u4DNvBfbdDsOToQ0Nnia3NeyTIqjZTie6GbfJEowR0mUP/N3ICBhIGFakICwOViigq2rclo+uwOLOhF/o53Jbf/MqryMsfXbw7exEIszAAACAASURBVE5K64GxmFV8+ymZK8LfveXZ2P8r+RC4I9NKmtBsZOow57txL/h9Q0w03uc9XDQnuQW7VnjxRd7zqrLssJyBY+NE9PfOHAuopUJVCAPV/75lhd0cZZtoPiixx+JbofnvtttqCIOssPxXshWprakPnG2/wlsyUZGNxtntYC3LIn+3UdixX5NUFrzfuP5+z8l3+6x4Gvjv513z6kYYkNvkZy0NWdC1fwezZs2a9R3Sz+f4Gv5++WWZSw7bd+7X1rQZ3nLo+OHRSUw/fTnZtb/5vt/wWX1btjZtgpk0bd+1o6Ns4euKM3wIWHd1c+8BbcQiernwCNu3bD/3t9Q5uydbdmlmIjYlP3B2NKrCB84EdiUiP3CWNnfPlPZdm5uYNWvWd5iVX9gabv6S8IgB+WzGIt+ZnfqSKWoxaOzgv2PUiyKqfLbk/CSnIRZtf2vavk8vn1NzXdqrhUFtYlUlyY8JM3dM6tC3nal58+b9hvT1Dl2tschbgLMAK0oYdAk9M3vzSIvWv5EfOHMLUC8f1xQGsOnC7N8w0+6RWcx3DAy6xkClInKino2dfbcV9b0zfHOxekUx+fKUn3VX4Ites1v4Mu8TJQwKTj385LHlfvfJ5AfO9lzX+MDZZx/PR9bTFJZT80dsfBGcV8arczReyuqd/q8071iM/eB93Vps79Ov0gfOfpRc2hMxsdv2dqZuPfod3XSskOv518/Y/Zq5xbdbS8/ZQRo7zf/39mqG05j9PZq7det1ZO2xwhse+zWFgUpVkp3hONizg5iSFhobGX8rffLPk5zc95/+pyKnIeHnMrhk/6/0n6CzM/p7dm6xc+CIE55xxWpppnXalYnL7/xZ2jXzmQlde3r1Y6UqPX28DbnXJL++Zz/pFfI8eTP5SS/yQ2MVPnBWC5JV0fj+CDzt/Qe0dWslcu3U8cC0lZk3+G0ZmWTt6WU+Q6YzzioV8fHK/r9tu3u0M98usQ5eJ3/8Rl2eBVOklzDQESvyS4Pk5/zsB5GlXWIduMa/oIj/BQSBkqNS6UFDd4mtzXskxKrS4mPuLUAORODXIVAvwuDXwUmllN6VqBFtRoBhGL83Hbl/NQKUMOgcmskMAdVJ8jGsXuqWTx/mTYSR4ewQIlvVMMKgooZgL6K/ggS+nrVzxQel0xNRBO+s7kXD+aw1JqVnpm/F+6fma72IfkQEEAFEABHQSqBeGm+tIRvvj5W2K23oSUXCoE5M4cbrCSUMmH2H6ioV9SMMihIKWkkfyHmTA+mXjRYGvO1KG/o7+JPj9ykngpoRdOyqj1NAd9FWGx/uu7m1jJnhfK4qYkU3ZotlYw7p8Xm4qnxC1xEBRAAR+IUIIGFQ95mNhEFdGZfIn/oh0GiFQdnRtYCvfltJF9CLjwt+EWGQ+fjSlzJym/4vZV9q6C7Y2oqaX2Ti1r23fIXnv48vPUqvrZ9UfK5kLuR87nRwque/jwn94lnrevn14cMWInng81p7hDxABBABROCXIoCEwS+V3doTi0YM6sf+/qVCqZ8RA+0F+hf79V3pW1oPZD6+RLsb+/+/WAai5CICiAAi0IAIIGHQgDLjZ0UFCYNfymSvn8QiYVCfr/OXsi+3n+fUSR9/Dccc9BsH0HNMoz7RobAQAUQAEUAE+ASQMODT+EXdSBjUj638S4WChMEvWpugZCMCiAAigAg0ZgJIGDTm3KujuCNh8EuZ7PWTWCQM6ujtRN4gAogAIoAIIAL1RwAJg/pj3WBDGiRpS39dAP2PCNQVgUGStg22wKOIIQKIACKACCACiIBWAjUXBu+KuU/zaPXZ4D+WlyrQgQggAoiABgGDVz0oAEQAEUAEEAFEwEgJIGGA1AUigAgYFQEjratRshABRAARQAQQAYMTQMLAqEwija5TdIoI/IIEDF5rogAQAUQAEUAEEAEjJYCEARIGiAAiYFQEjLSuRslCBBABRAARQAQMTgAJA6MyiX7B7mGUZERAg4DBa00UACKACCACiAAiYKQEkDBAwgARQASMioCR1tUoWYgAIoAIIAKIgMEJ/BLCoPTlP6/egka3IjqtAYHSosuvPuTV4EH0SL0RaMh5RCijd/QRm03yLFJWeB/r9g01eK2JAkAEEAFEABFABIyUgPELAwIyB1jFNBmVllpcwRapN0PNaAIiCrYNcsVNdi29WIJINtAu9gaeRz+uOvUSm80Oy+K/FHX+hhppXY2ShQggAogAIoAIGJzALyAMHmZNHxtrMSsjR9CcJZQ5LjYxZi7ZfJOlzt2PwuF3GwV94FJwyW4oFjahzAoJxEVuS9OVwHfzCRCFB+x2W7b22ZDzUSjahPKs6x7cPOIo/SzfN76b77Pxud/kgE8Y5H8SAlXdVPPp8d18fxpyHhHKvGsbO4ub2555VQELUddvqMFrTRQAIoAIIAKIACJgpASMXxjwzSYBd/0IgxKAE+eowx86NCxhkHPyKC7asTyTFAZqtwAxXZcqCQO1b7X0WVeIDfD3f0MBl0KcoIKqbrT59Pju6vpTXqr4KXlElISv6yTGF/h9qjiPSM/46/+GGmldjZKFCCACiAAigAgYnIARCoMfH/N+VN/y0N/s0NOOEb6NyIauDUsY5EaF4SJPpxukMFC7hVOh9Wolo1PtWy191hpcw/zRMMKgzkhWK4/KPlZ7VYnWd/Br0gJLccsV0TdrlmUab6hArAxea6IAEAFEABFABBABIyVgVMLgR1FSopf98AWebylhQNy83EUSg/WNJQ9JrFNahQkM5aWKkrysVYsT2w6K6zQ79cjNnK3jqzGVqOwVnPCGsfOgw2QYthp8r0ApT418LYD9HmA9FdpOgqHrISxXM2hdwuBJBNnTfLqIuZ9Qwt5FgHuQp4QSnMaD43FYtgC6L4fUJyBfD51nwOp4KKOCfhlFPhuWB+4boNsksHaAvRnwjRcrYYMs5oSFaM/aXOp+vpsM+oFzNxlu4vK7icvvIlk7pzzN5JQ83u8U0N/SrUMXX/vABye38aYSlZcq+L7x3cLxKS9V0Ck6DuC5GXpMhn4OsCsdvrApIgphuhSmR0GyHAZPh872MMcfCt6r4yaQC8I+l5cqvj8D350wYBpYToaRGyD8H+DUpkC4BMBAqXq2mHra2FLIVwLxCXbMgzYbgL/09n4Y4OPh+HN1tAWw8Onx3QbNoxz34dM2emY/zhWIGHdJ4x3kfieUt5OWtxK3mZPKy6DavKECsTLSuholCxFABBABRAARMDgBIxEGjDliaWrazsoh6DxtOxIvciJPZYWcygrxSm5ZSRgQRTccRsWYjLng5J/pF5A+fk7yuAn6CgOiBDyXAj4J/pRDYASsXwOtbGBzFmPbESWwazFYTIe1wRB4ApYsBnwyRD6rYPnVWBj0c4J9J2G6HQx0gDXHYLMT6fkFytiijd0pG2CJHI6cgDnzSIvT9x4T7pd3Gc9epmkeb3JoUVFeqkiKaCfy2qCgzG6+mzQ6i6JOX9kbemVvaOxEi0rCgHgfunwX3nS3dHXidv8Lyyf6jbepKAz4vvHdnNWoy8Gl6M8ACAwHRwfAbeDAXZYzJQzGrYHx7iCPgN0e0FEKI4MZmSScC1X4XAxuC6GNPWwOhaBwWOkIuC0cya86XKIQTkdCcCTs2kSKtLURpJs8EqCYAnsvlExCGFsYCCV4L1NLhYaZR4Uxy6WdfxM37yIsD7S+g1zOEu8OL7MQd3A6xleqtXlDBWJl8FoTBYAIIAKIACKACBgpgUYvDDhzxKzDQKcDRx6+ucPZIpyDyL7coZIwUMamNpHEb77G3F8GV/r31VcYlKaBpRRWXWQtxRLYuQgsZPCRMv6UydBGCttvslcLYf4kGBjInNKxqrEwkIaT/uTIAXeGN0r4kUVaw36UzUobuwvimIB+PAQbGxgczJxmx/Shu/z5/4sC99KjKxwrYQeRv6ZTJWGgvDHLRNZny73b9LNlBbKBLurFx8IeCl+lU7Q4gUkC8Qrm24KVnD2lhEFHV2AGiJRwaiPg8+GOHrkg7POHBGjNUiV10TtYOxN6HdIrXDpFuqYSEQUw3gYmnGK9ugfDpbAonjltsHlEvLt4Wb7kj27mWuWBPu9gyenpLcSWm9K0z0qq2RuqK1ZGWlejZCECiAAigAggAgYn0LiFwfOzS4Zbmpp3HrrG52iB7i8VaDU77gcmYZKU0+wepoQyx3mEvsLgcXiFCT/kpJc8SMlmhAFpFE6EZHZHGkIJh1eBxdYKc41qLAwmR5JG5J0gwDdBiRKIHOgphQP/kj/Sxm5gAWt0KsFjDrTezZy+f3oqNe+Y5nE/jd+DK2ymkyayNmFwP2WYSDYtit30iVD+vW5HXQqD4CfqFHkvAwt3ZjYRPaWHM7LLSxV5weQgCU1eOBdoVrp8vn0E8CkQ/QResId8LeAb4D0lOYTDrUIYKOH4esCXwQPKKzKSthDLzhxr4HlEvE/PDHKY3KMZKQ8ORNJz5/R5BwlldtTsZuJuDjnsS6FR0mrzhlaOlcFrTRQAIoAIIAKIACJgpAQatzC4saWzWRep76UMYetWq9kB/omYJPU8u2+MxtJGDcNF4zQ/jBQG0R8Yg1XjarYfOb0ng7L8SGNaCcecmQ5+7k7DCYMThWozmlufwIVbS4dWYQCJA0WyWdGszaexsLU2IdLmOz9FckfAZfCZZ6BPj1Lnwvu7cDYBnn8mfxHOBWGfs/20rROghmjIDGXXNnBJ44dL/6hrxKC8VFGcAO2ksBeAUMK+JdBxByjZosJ5WBuHofPo28PAzUNxse1ueqBGn3eQeOFlZy7uvTWKW6ehkcDav6H8WBlpXY2ShQggAogAIoAIGJxA4xYG76/vcR7f0VzcrPfU5eEZl77qMLBqb3Zo2DGNURhUOX9dI41aTw1tdGoEKmy+VzbQ+Y/XUhjgU+FwJqTxj9wKIxV8QcIPl3YLCAOiGFZMBms5lClgsBScM9TCpoHn0ZdHEWEbpb1biFtbTdodnUKrcX3ewVfBY83E3T3ZyXWVcdXmDa0cK4PXmigARAARQAQQAUTASAk0bmFA9cfffp66g5YHvWz/DEtP43at4ewPrWZH/pE6m0pEKOHFTYjOIOf2lJcqhCex0LHSNWLw+iw5FnGc1+vvbg8d95Pe0rsSVTmViN+/zh8xMNz89fzk+p5KRCtAYWEgnAu6phLRPpNTiSZBOjXywJUiziEcLn2bkDBQQroX4LPhaBDgdnCFnYJFjnIYbB1ILfNIef948F+jujejJMGp6HfsOBtTmJVC7yChvBxkYyruvy5fh24ny7a2VUBVvqG6YmWkdTVKFiKACCACiAAiYHACjV4YVDJNzHs4BdKLgNWWnDazQxmjufjYWqLvGgN68fHKVKavlygBj4XQygXoLzcpU8jFx+457FVq8fGgIOaUiXAeWFfsLWZ+z4ZuUnBIZm4uuwejpWAbQZ7WUhgYbv66MnumxuLjAbK6XGOwpOLiY+sANVh6u1Iuo/kO4VyghYEun9/Hk4uPt3E5WAKBO2FttF7h0nGgV6GcZVew8CNWXqoouwn9pNB1GkgOMXso0Tc0zDx6dHRC59+0SwJ+ugi1PKjwDhIP3Mc0FQ/fn8S/WcOtVRgIv6ECsTJ4rYkCQAQQAUQAEUAEjJSAkQgD2s5gTJPtcnqR6Kvsq+Repcx2pTFjdlHuU1nxQG6NQhRlLxsVYzL2wmr/TP+A9In2ScPG6SsM+NuVBv3NbFe65SprOFKbmVrYUduVhsPSJeSSg6iKG9UTxeA8Ezo4gG8U8y3kjEeU9f8JApzI7mrHQAgMAzt7wGfChdfUJeo7BjUeMdAwxap1+irfh9yrlNmutPW4s5T7yt6EAvJjVcT7EAdqu9I1iR7yC462vqNHeNalMJiyERwOQ+BJarvS8XCI3YBVuOeeziNduUALA50+F4PrAsCnwepgCI6AtasAnwB7brP5W2mNQWWY325AHymM8IBAervS1IpLzz/DnkXk0NCOW4yflX2o7i+Gy6M7gUt2Vxol0BU9jXewvFTx+MAAsXhgALvZK//B2ryhArEy0roaJQsRQAQQAUQAETA4AaMSBnybg5yYsS+e+boZ/Y0z9n+bE//Qd5bkZTktTmg7KK79zFSf6zdcbPQVBmSn7ys47g1jqA+cDa30gbNvBeDlAdZToI0t+YGz45W+CFZeqnh7ExwdodMEZp3rCnb8oewVhOyDEfbQwQ5sXCH+IWuP/jxhoHWKi4nL7xMuZTAkyQ+cWVu6te94aKbvvTDXit8x0MgX/U9p8z2c+mRb90nkB848LwG3kkRYGJSXKgRyQdhn+gNn3tQn6iynwPB1EHhd3bVfZbj08E52OIyZBa2o753hG+AdbyINoYQoV8AXwB0ds5X0R8Td+bPyiIuAVgehTNw/UNxUur2Ql3zuTgO9oQavNVEAiAAigAggAoiAkRIwZmHA2R/I0UgJMOY7u+KiDlNhOJ/1iSTxCuZOhBEhdTZcoE+gP+Ue4pZzP7HplKDL9Rm6kdbVKFmIACKACCACiIDBCSBhoKhPkwWFVS0CtPnOLaeu1rPCNxvOZ+Fw6auvzpEjCf73jV8Y3N7WTfzbuFMV59Hpg6g29xi81kQBIAKIACKACCACRkoACQMkDBouAcOZ74bzuUqLllBC0GrAV8EzbbNrqnwc3VAlASOtq1GyEAFEABFABBABgxNAwqDhmsVVGkDoBkQAEahMwOC1JgoAEUAEEAFEABEwUgJIGCBhgAggAkZFwEjrapQsRAARQAQQAUTA4ASQMDAqk6hy7yn6BRH41QgYvNZEASACiAAigAggAkZKAAkDJAwQAUTAqAgYaV2NkoUIIAKIACKACBicABIGRmUS/Wp9wyi9iEBlAgavNVEAiAAigAggAoiAkRJAwgAJA0QAEUAEEAFEABGoBgEjtYhQshABRECFhEE1qsLKfZPoF0QAEUAEEAFE4FcjgKwnRAARMFYCSBggYYAIIAKIACKACCAC1SBgrCYRShcigAggYVCNqvBX6xNC6UUEEAFEABFABCoTQMYTIoAIGCsBJAyQMEAEEAFEABFABBCBahAwVpMIpQsRQASQMKhGVVi51wT9ggggAogAIoAI/GoEkPGECCACxkoACQMkDBABRAARQAQQgTomQCijd/QRm03yLFKC8ckGYzWJULoQAUQACYM6bgyMrwFAKUIEEAFEABGoLoEfV516ic1mh2VV98FGcT8ynhABRMBYCSBhUMfC4EFQEtY3ljkkcesytfcVvc7K2hdw/d4n7VfrvGF4FA6/2yjoA5eCS3Y9hVtlQghlVkggLnJbmq4EvrvKB+vkhtf/7t1/4fC9zw2FRp0kqs494ecL313nATUoD9/kgE8Y5NfpG8qnx3fXT8IbWmkvuDjKxOV30+AD76gOdUKZ6u2Di04cNjQNPnm+u27DJZR51zZ2Fje3PfPqZ1YvhmuPjNUkQulCBBABJAzqWBh8yL0eciqLPPYkm+sWBuCfiElSz3+spzajBODEOerwhw4NSxjknDyKi3YszySFgdpdt420Lt8gcaBINiu6To0/XWE13t/5+cJ3N94U6RPzf0MBl0Jcnb6hfHp8tz7xqf09Da2008JA5PpHeBFZDdajMFDXM4bLBaIkfF0nMb7A79NPnUdkuPYIGU+IACJgrASMUBj8+Jj346fWxXQTTmSmWzQYYcBZFUQ2dG1YwiA3KgwXeTrdIIWB2s1F2KCOhmYqGTSxNfacny98d409bBQPGkYYqEt4/ZNsaKW94OIo0S5ryfZWUzIz61cYCOVC2ce86pZPrS3O16QFluKWK6JvVtc3A91fs/ZIgIaxmkQoXYgAImBUwuBHUVKil/3wBZ5v6bHp51k2khib4zcT9qX0GhHbclzilD3XHhWrO+m/P7mxf2NS92GxZoPirRzSQ3PUioJQ3nmWfmXh3IS2g2Ix67hOdilbYm4pWb1REHIBk6ScfMN4RShv7ZgUg62/zq/TtVbERG5GD0mMeq4RN+loasY91nO+J5XdZa/ghDeMnQcdJsOw1eB7BUp5D34tgP0eYD0V2k6CoeshLFedWNorXcLgSQTZP3qa6rqjGmnYuwhwD7onD5zGg+NxWLYAui+H1CcgXw+dZ8DqeCijgn4ZRT4blgfuG6DbJLB2gL0Z8I0Xq8qp4P8Sc8JCtGdtLnU/303fU1Z0LvSM7eA9XVq49+gnn+OVl8qllzQsZJNOsRlKKON27ldPRSCUec/yZIv8+lq6tRJt7dDFe7IsO57OQeLR+l4y3MTld41DdGATlwtfC0N2nxjZfXs7M7eufQOXHr1/jQGoPLrMFV+YfGDe3g5tDy1PfhntHdjTYucQh2vJNI3yUsX3Vye8wkf39Ghn7tajf+DyY/evcUqVeLN3ggyfcOlMYswffXZYWngOnHpe/qhEM5v4fDh34SUbkczm6IPgLYFWbdw6djs0bWduGp/zpycB7mEjeu1q33x7b+vDi+T/XqajRNQuzuWlCn6+8N1c3HQ56LJxHMBzM/SYDP0cYFc6fGHLBlEI06UwPQqS5TB4OnS2hzn+UPBeTUOgPAv7TObCM/DdCQOmgeVkGLkBwv8BdS7oDpcAGChVz7tTT8BbCvlKID7BjnnQZgPwl5PeDwN8PBx/ro62LhpVkvylSjv5/noslkV2bhq49w3ZL6A5leinlOcc9+HTNnpmP84VyETukkaLw/1OKG8nLW8lbjMnlVeYiUbYHgnQQMYTIoAIGCsBIxEGTAVtaWrazsoh6DxtedAV8eAFKcOcL3mHXtm2LrG5JMbK5yZjLRXnbLKNFY9LXuOfKQ+6vHhWHDbwgq+Cad2J/MyR/WMsZl3cfSwr5MSVzY7xJpI45yt36Kq/5sLgRU74sUz5scytjnGYJNExlHSTx7kceqIt17RodRAl4LkU8EnwpxwCI2D9GmhlA5uz2DiXwK7FYDEd1gZD4AlYshjwyRD5rIK9UmNh0M8J9p2E6XYw0AHWHIPNTqTnF6hmjzbRpmyAJXI4cgLmzCPtJN97TLhf3mU8e5mmebzJ4czopIh2Iq8NCspY5LtJfVJydvuB1iK3AXOjt8ovbnKSdxe79PnrDiPAqhAGz3eO3oq39lngmeYZesltS3CfprKe6xS3SG+LTp9M2xGQtmNbcHeRbMiKi6SbPK5FMdOdS85u87Iw2TFyRby7PGW1vZelyO2PcGquMG1kd5Ev25XqNGEH3uuQ3fIkt7/8O4rc5sRT9j1RErl5fytTzwl/JW6Xpzov8ekochvl94TphqSFwVD5HyOO/3Xoopvb8SEtZRb946M5Glrznf6REgbDpIFD7aO3+aU4Td3TRuQ6zKuA9bkocNEuvLnXNFnyjsMX1y/37SLaOtKXCreWcS4vVfDzhe8WiC19iSsbfwZAYDg4OgBuAwfusiWWMtDHrYHx7iCPgN0e0FEKI4MZwUkIlucqfC4Gt4XQxh42h0JQOKx0BNwWjuRXHS5RCKcjITgSdm0i5e7aCNJNHglQTBXRe6FkEsLY14pQgvcytVRApV3/0k6+v67zY/OWtXEZf+yNpjAgflJ5LoxZLu38m7h5F2F5oLXF4V4H4t3hZRbiDk7H+Lq9MbZHAjSM1SRC6UIEEIFGLwy4Ctqsw0CnA0cevmFsd9L+o3pomjtdo7v3CGVe2PJYbOLlf6gG/v25VBNJote/rK3wNttxdEy7nTl05V5yNgWTJPk+YK9+vBV56LL3RaYbqcbCgGs5arbGoDQNLKWw6iIbqxLYuQgsZPCRSpEyGdpIYftN9mohzJ8EAwOZUzroGgsDaTjpT44ccGd4o4QfWaQN50dZWrSJtiCOCejHQ7CxgcHBzGl2TB+NjnkTl99FgXvpUR0OiFZH6a155rLOS2+yvfUfz23dj5uEHCyh0issDEquTRPJhvu9YKJBfIo7He98KC+dH5CuyRWfc2abyvrI7t1moBUdsnPDe8Wdo8ZSyBGDYakXyksV16N7iw7vfq2EH3eWtZQNPvCUDOv9telNZUMPPGXt9Q/HVuzC2585xXhFjRi0DD3ElsnMsKA2or3OdJnkx62ymxIGljOyMuhLP567D3fB+8RH06dljw9uOrMx4SWb3mLfma54/8S42se5ckz0/4UuG4sT2Fi9gvm2YCVnTylh0NEVmCE+JZzaCPh8uKNHeRb2+UMCtGbLJ0ngHaydCb0O6RUunTpdU4mIAhhvAxNOsV7dg+FSWBTPnKLSrn9pp95f+9iSE047LP7IyNAYMfiJ5Zl4d/GyfMkf3cy1ygOBFod7L0pOT28httyUVmFWUiNtj3TRQMYTIoAIGCuBxi0Mnp9dMtzS1Lzz0DU+RwveMm0zVzvTFfHwo4x5V16qyD2UgFldjKcWm+YciMeGXIwqyH3GHLcOLo7BHLLofsHvyRfNJHHzTt8u0bYy9WcJg8fhFSb8lJcqXuZBSjYjDEhTZiIksxEmlHB4FVhsrTDXqMbCYHIkifdOEOCboEQJRA70lMIBSlbRJlpgAWsqKcFjDrTezZy+f3oqNe+Y5nG/whwYLss0HA9Th/MnC5WXKgofhiTdTdRHGHy/vdBc1mV+ZlKJ7k2HdAkD8vet8xLZBwllmq8fbnLMR0lOeCCFwbi0tPJSxT/x1qJgrw9KIO45WcqsPSkCOXESkfu8M+pBkjjvAFwUuI8uV/SIwcjUFC6lufFWIte5CWxY3O+VHZQwGCEv5DifcfHEm54M4t9ZVnK1kAk6ePVuvHlkKCcMahxnvv/VddNlI/gJF2eyf93CnZlNRE8l4ozs8lJFXjA53ESXYeHyLOzz7SOAT4HoJ/CCPeRrAd8A7ynJIRwunUadwkAJx9cDvgweUF6Rt9lCLDsHD5V2/Us7JQxmRX/Ku3Smu0nA7sJKU4nKSxU/sTwT79Mzgxwm92hGyoMDkfQMRuEWhy45hDI7anYzcTeHHLYqZn6nOqoaaXtUmYaxmkQoXYgAItC4hcGNUkwpRQAAIABJREFULZ3Nukh9L2XwR2w524UWBjYn/uF+Kc7Ljjyf85QywrI847TM9V+S+Zo2HUpues0lb2gyIK673YXpWy4FXMr9Sl0qL1X8LGGQH0YKg+gPjJnFpYt2ZPuR03sy2EgSSjjmzHTwc3caThicUBus6vUJXLg1c9y7MEQkszujYwq+8IgB8TH6gF8HcrBiW+ee3mPtTq0+fOcil4N0fHQJg6vne9A7qNK3EcrMoMM4PThQpTC4er6HlhESamCBtNGZNQZMr395qaK4IPj09Qi6TApTotcYhKpXtlRcU1GSFHF6hKVrhbUT5hFH9REGwnEWjpXwVdp855cNuSPgMvhMv2XsXH/Ok/d34WwCPKfeUOHyLOxztp+2dQLUYBcJRDBcOjK6hAGZZQnQTgp7AQgl7FsCHXcAt/qIS0gNHL9aaWeFAXy/u6KDy9igV6mHfHlrhBpGef72MHDzUFxsu5se1BJucehMJ1542ZmLe2+N4ta0ML/Tawwac3vEp4GMJ0QAETBWAo1bGLy/vsd5fEdzcbPeU5eHZ1zSMPsqCwN+a00Kg6EpPmnZKfwjJ1e9MrIk7+6V68fDrrjtTJs5K04kiVuZygwNI2FQecSAb/xxC5fLSxVVzrrmZ4qGuzamEmn/fcy6qzh8It3F/cyiWT7dxLJuq3Jv8IMwkDAQbZ/mqzFIcj+NWfdSSRjw4yPsFhAGhPJOXuIgsayLzfm9Mbn0+MzOeTtx/YWBQJyFYyV8Vdh8r2yg832rpTDAp8LhTEjjH7kVRiqmR2kX2HQcBIQBUQwrJoO1HMoUMFgKzhlqf1BpJ8cG9SvtnDAgPkVu2I1L0yP9/Bhh0BDK85dHEWEbpb1biFtbTdodnUL3PQm3OHTJeRU81kzc3ZOd0skV6UbdHlWmYawmEUoXIoAING5hQPWG3n6euoOWB71s/wxLZyww8lKlHhqujianyx+IxwalpeoxhYP06tNN90kxTTddpxeJvjqZgkkuHGX3ISGUOZvHxTR3y+b7r3VXIu6Gmq0x0JhKRCjhxU2IziDn9pSXKkhTpqZTiV6fJccijvN6/d3toeN+0ltCSe5KVOVUIl3CoDazrqmpRLYn3zGGF7lV1D35mX/iPlDpfZUxUSSThqh70KO2eOItTx/jIPMdxOeY7ftxs5OB/GW+uoRBbacSuS3WVa4qjxjwIynsFhQGVG+rv8cz9XhR1Obd+goDcvqT7jgLx0r4qq4JP7SGFxYGwuVZ2GdyKtEkSNfxdguHS6dISBgoId0L8NlwNAhwO7jCG9FCpZ1fHoRLu1oYKPOunu8tkq9zD+SEwc8sz8r7x4P/GtW9GSUJTkW/q/gtC0Kps8WhasvLQTam4v7r8tk3kQPSSNsjXTSQ8YQIIALGSqDRCwO62uVV1uY9nALpxbjCFXHx2RQTSfzGq8xiZeJDjt/GVMdIctea8lLFk8jUftPSuanDhPL23hkxJuuuMf2+memtJHHzYpkBhDK40l8SMyq0wg53xM3LXSSxK1LVvYlcC1FeqngYlIRJUiNZk5d/ScBNLz5eyfpJlIDHQmjlAvQ3dJQp5OJj9xzWjKYWHw8KqhABIg+sK/Zx0sER2dBNCg7JzM1l92C0FGwjyNNaCoPazLqmFx8vUS8+PuOyDxeHejP5e9exjazD/BtX6SSUFcgGyvAxFy/Sp08yZ1kf/DNOvZlp0r5DeNPjcm5EiMwFcg3D1NOVpmZ9zrE3lfXZUnHxce+48xSNKtYYFF+b1lTWe9M9piARJWf8w+1WZMYznA01YpAZfAQXHdz0L2sKfy3YMlimrzAQjjMd85r9T5vvSyouPrYOUBdRertSrZ4Ll2dhn9/Hk4uPt3HvQgkE7oS10XqFS0eGFuFn2fKjEcOym9BPCl2ngeQQs4cSfQMq7fqXdk4YkGsJ8td0lQ0bwn75mFD+tPL86OiEzr9plwT8MqC1xSHrhwfuY5qKh+9P4t9MuxtjeyRAw1hNIpQuRAARMBJhwNS8dF/OdjmzxFBwxIAozlk/MRYblrTsUKY8JMNxThxmlbj9BqMTvudc7tkvxnJB+h5yu9JMt3WJzSSx06KY5QrEp9uH5sVigxIXel/xC7g0flwMNio1jtrOkmsPiOIbK0bFmNtd3H+C+hDyqay0+4xdUl6q+JaZ3l4S22/dFT96u9KEW9z2/JwPlR387UqD/ma2K91ylTV3qM1MLeyo7UrDYekScslBFDuswSAqBueZ0MEBfKOYbyFnPCIfJz5BgBPZyeoYCIFhYGcP+Ey48Jq6VLsRg8qp0P8XouSse4XtSnuIXfo432FGZojPF3z824rcBi+Kc/O/4DjRs5Vo15x4dg369/vrervgHeTL9pLblW53Pz6ohcxyetZlfujf7q7oKGtjfXyTP71d6c04OheIj+e3H2hlsmMUuV1p6po5XpYi90kRvO1KBRbyEiV/b9jbSuQx3CHePeDi+hV+XUWuAzzy2Q2ODCMMyHUvGROaydr2OrrqYJrHwbj5ww9Jx3nqKwyE48wnVl03bb5P2QgOhyHwJLVd6Xg4xG5lK9xzT5d2XeW5Cp+LwXUB4NNgdTAER8DaVYBPgD232Tel0hqDyun6dgP6SGGEBwTS25WmVlzE/xn2LCIH2XbcYvys7EN1f/nVSjtfGBCfz7ruIZfHiE4cprn9rPJ8J3DJ7kqjBLqykpEHbItTXqp4fGCAWDwwgN0Yl/+gsDBomO2RAA1kPCECiICxEjAqYcCvhUljV1AYkJ9AKrixZ/2FrkNjzYbE9V2a5pf5DzfPhFDeuR9/edas+NYDYzGruPaTkh1Dcl6z3bFkF1fhzcPbkvuNi2s2ImHo6svR+eptUrloFF3PXDgrvoUV80Uzbk9DquM572pQ6oAxsSL6e2fLsvTZvpMM9xUc94Yx1AfOhlb6wNm3AvDyAOsp0MaW/MDZ8TwtVsvbm+DoCJ0mMKszuTGNslcQsg9G2EMHO7BxhfiHrBX184QBmd6isyFn/hi0p3ML9x59K37gjLp65kjkeGvPDi129B1+bG3Mc6afniJ8+37O2tk+krZurUSuHTrul664GMHPQeqea1dTZw/abSmmvnfG30T1W2Go54mR3dzbmrp16Rv4Z8gD5uMJVS4+pj5wFrb3xOju29uau/ewOrLYX8F8aIwMUbcwIJS3itR7GfG//HD5AzWZQWAqEenz5yuZqfNG7+3S3K1zL/nCkIcR7nv1FQbCcebKcw0ctPkeTn38rvsk8gNnnpeAWwskLAxI/ay7PAv7TH/gzJv62J/lFBi+DgKvq7v2qwyXKhuQHQ5jZkEr6ntn+Abgf2mEUEKUK+AL4A6vTqgBH41Hfp3STkpZ8gOFs6LZrXtuxvXjC4OGWZ418kvjlFAm7h8obirdXlhpHhFZooyrPTJWkwilCxFABIxZGGjU2ugUEWjIBGjJoWVHI3Yj1IYceV1xY8x3du2Krttq8LvhfNYnMsQrmDsRRoRoEd76PI7uMUoCxC3nfmLTKUEVhiWNMqXlpQpkPCECiICxEkDCgFxRgA5E4KcTIJSZdzT2MmJO/35IfWH6p8ewBhGgzXduYXoNfND1iOF81hUi//dX58iRBH/e5ED+VeT+NQnc3tZN/Nu4UxVnbxorCmM1iVC6EAFEAAkDpAoQAUTAUAQMZ74bzucqLTlCCUGrAV8F3B5QVT6CbkAEjIwAMp4QAUTAWAkgYWAok8jImgGUHEQAEUAEEAFEgCZgrCYRShcigAggYYCEASKACCACiAAigAhUgwAynhABRMBYCSBhUI2qEPUVIQKIACKACCACiICxmkQoXYgAIoCEARIGiAAigAggAogAIlANAsh4QgQQAWMlgIRBNapC1EuECCACiAAigAggAsZqEqF0IQKIABIGSBggAogAIoAI1CsB1PQiAogAIoAINEwCSBjUa3OI+pkQAUQAEUAEGmZziGKFCCACiAAigIQBEgaIACKACCAC9UoANb2IACKACCACDZMAEgb12hyinkJEABFABBCBhtkcolghAogAIoAIIGGAhAEigAggAohAvRJATS8igAggAohAwySAhEG9NoeopxARQAQQAUSgYTaHKFaIACKACCACSBggYYAIIAKIQIMjQCijd/QRm03yLFKC8QkJ1PQiAogAIoAINEwCSBg0OIPA+IwAlCJEABGoLoEfV516ic1mh2VV98FGcX/DbA5RrBABRAARQASQMKhjYfAgKAnrG8sckrh1mdp7+15nZe0LuH7vk/ardd60PwqH320U9IFLwSW7nsKtMiGEMiskEBe5LU1XAt9d5YPlpYrCSzYimU3om/pOCz+efLc+cW6897zJAZ8wyK/TEsunx3frQ8m4c59Q5l3b2Fnc3PbMq/ou3nz4hqvNUNOLCCACiAAi0DAJIGFQx8LgQ+71kFNZ5LEn2Vy3MAD/REySev5jPbX6JQAnzlGHP3RoWMIg5+RRXLRjeSYpDNRuvnWiy/3zTEN1PKsbZ11pafi//xsKuBTi6rTE8unx3frQMO7cJ0rC13US4wv8Pv3UeUSGq80aZnOIYoUIIAKIACJghMLgx8e8Hz+1NaXNGiIz3aLBCAPO0iKyoWvDEga5UWG4yNPpBikM1G4uwgKOn2caquNZ3TgLJKeBXzKMMKg5yYaZ+2Uf86qbj1rrq69JCyzFLVdE36yubwa6v2a1mQAN1PQiAogAIoAINEwCRiUMfhQlJXrZD1/g+ZYSBsTzLBtJjM3xmwn7UnqNiG05LnHKnmuPitWd9N+f3Ni/Man7sFizQfFWDumhOWpFQSjvPEu/snBuQttBsZh1XCe7lC0xt5Ss3igIuYBJUk6yk1gI5a0dk2Kw9df5rbLWppTIzeghiVHPNeImHU3NuMd6zveksrvsFZzwhrHzoMNkGLYafK9AKe/BrwWw3wOsp0LbSTB0PYTlqhNLe6VLGDyJIPuDTxcx9xNK2LsIcA/ylFCC03hwPA7LFkD35ZD6BOTrofMMWB0PZVTQL6PIZ8PywH0DdJsE1g6wNwO+8WJVORX8X2JOWIj2rM2l7ue7uclCIY+OuQcPaOfWoYv3pG23U7+wPtOm4dEHwVsCrdq4dex2aNrO3DR+uF8LQ3afGNl9ezszt659A5cevX+NC7fKZ7+/OuEVPrqnRztztx79A5cfu3+Nrzb58eS7Of91OWhWxwE8N0OPydDPAXalA5ciohCmS2F6FCTLYfB06GwPc/yh4L06EwXyV9jn8lLF92fguxMGTAPLyTByA4T/A1yKBMIlAAZK1fPQ1BPSlkK+EohPsGMetNkA/AWy98MAHw/Hn6ujrYtGeamCT4/vbqS5n+M+fNpGz+zHuQJJ5i5p1Ffc74TydtLyVuI2c1J5Wd8YazMBGg2zOUSxQgQQAUQAETASYcA0sZampu2sHILO05YW3ZQOXpAyzPmSd+iVbesSm0tirHxu0uYsUZyzyTZWPC55jX+mPOjy4llx2MALvgrWMs7PHNk/xmLWxd3HskJOXNnsGG8iiXO+coduvGsuDF7khB/LlB/L3OoYh0kSHUNJN3mcy3nH2rucfVDZQZSA51LAJ8GfcgiMgPVroJUNbM5i41wCuxaDxXRYGwyBJ2DJYsAnQ+SzCvZZjYVBPyfYdxKm28FAB1hzDDY7kZ5foAwX2iSdsgGWyOHICZgzj7QLfe8x4X55l/HsZZrm8SaHzoXyUkVSRDuR1wYFlXy+mzUNh0kDh82N3SZPdV7o3UHkMtCzgOmUpYz7YdLAofbR2/xSnKbuaSNyHebFXiVKzm7zsjDZMXJFvLs8ZbW9l6XI7Y9wdsZ2Vc9Gbt7fytRzwl+J2+Wpzkt8OorcRvk9UXcG8+PJd1fOMo1fOFZ/BkBgODg6AG4DB+6yOUgJg3FrYLw7yCNgtwd0lMLIYEaAEYL5W4XPxeC2ENrYw+ZQCAqHlY6A28KR/KrDJQrhdCQER8KuTaT8WxtBuskjAYqpLLsXSiYhjC1mhBK8l6mlwq+W+4Uxy6WdfxM37yIsD7TWV1xRId4dXmYh7uB0jK9yG2NtJkADNb2IACKACCACDZNAoxcGXBNr1mGg04EjD98wtjvZ1U2NGDR3ukZ3ZxLKvLDlsdjEy/9QBs37c6kmkkSvf1nb6G224+iYdjtz6Oa55GwKJknyfcBe/Xgr8tBl74tMR2CNhQHX9tdsjUFpGlhKYdVFNlYlsHMRWMjgI5UiZTK0kcL2m+zVQpg/CQYGMqd00DUWBtJw0p8cOeDO8EYJP7JIm9WPsixpk3RBHBPQj4dgYwODg5nT7Jg+Ji6/axyiwL30qA4HRKuDMt/bz76WyUS+6JCdG941+jR9Sl21nJGVQZ/+eO4+3AXvEx9Nn37OmW0q6yO7d5v/bK+4c/o8+/7a9KayoQeeMkqA+HBsxS68/ZlT9LO1+Z9mtTiBgUO8gvm2YCVnTylh0NEVmCEvJZzaCPh8uKNH/gr7/CEBWrP5Rb4a72DtTOh1SK9w6fTqmkpEFMB4G5hwivXqHgyXwqJ45vQXzH3i3cXL8iV/dDPXKg8E6iuuXJWcnt5CbLkpTS1EG29tpotGw2wOUawQAUQAEUAEGrcweH52yXBLU/POQ9f4HC14y9giXPtKC4PhRxnTsLxUkXsoAbO6GE/trJJzIB4bcjGqIPcZc9w6uDgGc8ii+0G/J180k8TNO327RNs2LD9LGDwOrzDhp7xU8TIPUrIZYUCabhMhmY0woYTDq8Bia4W5RjUWBpMjSbx3ggDfBCVKIHKgpxQOULKKNkkDC1jTUAkec6D1bub0/dNTqXnHNI/7Feb8cFmm4aBM/1EBLzmfE/d64yZh/vSIEHV1hLyQu3rGxRNvejKI9gQSB4q2zkv8zF1N8/XDTY750PPBhJ/NiZOI3OedUQ90xHkH4KLAfXTZ0IhktU5pVsFPuFiR/esW7sxsInpKD2dkl5cq8oLJ4Rc6T4XzV9jn20cAnwLRT+AFe8jXAr4B3lOSQzhcOoE6hYESjq8HfBk8oLwib7OFWHZO2i+b+8T79Mwgh8k9mpHy4EAkPd9PuL6iORPK7KjZzcTdHHLYF5n5nermaKS1WWUaqOlFBBABRAARaJgEGrcwuLGls1kXqe+lDP6YO2eo0cLA5sQ/3C/FedmR53OeUsZilmeclrn+SzJf06ZSyU2vueQNTQbEdbe7MH3LpYBLuV+pS+Wlip8lDPLDSGEQ/YExK7l00Y5sP3J6TwYbSUIJx5yZDn7uTsMJgxNqA129PoELt2YOynxXb0hKKFO9fXBRyEF6q5ZKV+N27sdFJw7TYV0934PeBZU+JZSZQYdx0eHddP5W+azGEIeJy+/cszVLC/0Ubb7zWckdAZfBZ7rUsWsMuCDe34WzCfCcKrHC+Svsc7aftnUC1OAP2RstGC4dGV3CoLxUUZwA7aSwF4BQwr4l0HEHcKtxuITUwFEpjxpf7n97GLh5KC623U0PAQnXVzQi4oWXnbm499YobgUI8zu9Yqox12Z8Gg2zOUSxQgQQAUQAEWjcwuD99T3O4zuai5v1nro8POMSZ7jrakr51gkpDIam+KRlp/CPnFz1StCSvLtXrh8Pu+K2M23mrDiRJG5lKjO4j4RB5REDvrHLLVwuL1VUOcucnyka7p9oGoq2T/PVGOi4n8aVDY146n8qbL5XNtD5PtdSGOBT4XAmpPGP3AojFdOjtAtOOg4CwoAohhWTwVoOZQoYLAXnDLU/v2zuf3kUEbZR2ruFuLXVpN3RKXTPhXB9RXN+FTzWTNzdk50QyBWAyt0c3KXyUkUDr80q00BNLyKACCACiEDDJNC4hQHZ2am8/Tx1By0Petn+GZautt6Em1JyKtGgtFR2qgm/la3sJj7ddJ8U03TTdXrJ7KuTKZjkwlF23xVCmbN5XExzt2z+g1p3JeJuqNkaA42pRIQSXtyE6Axybk95qYI03Wo6lej1WXIs4jiv19/dHjruJ72ldyWqciqRLmFQ61nmWqYS0QqwkmyoMGKgx1Qi/lhEhWfJqURui/UsG1ye6uPQNeGHTpGwMBDOX2GfyalEkyBdR2kXDpdOl5AwUEK6F+Cz4WgQ4HZwpUQtDH7B3FfePx7816juzShJcCr6XcUvPwjUV9S7djnIxlTcf10+O+7HFapGWpvpotEwm0MUK0QAEUAEEIFGLwzohpPX3Jr3cAqkF+MKN6XFZ1NMJPEbrzKLlYkPOX4bUx0jb9EePolM7TctnZsqTShv750RY7LuGrPfUWZ6K0ncvFhmAKEMrvSXxIwKrbBHIXHzchdJ7IpUtZHEtfHlpYqHQUmYJDXynfar/Dv5bnrx8UrWT6IEPBZCKxegp9YoU8jFx+45jJ8Etfh4UFCFIIg8sK7Yp0v7T2RDNyk4JDM3l92D0VKwjSBPaykMaj3L3NL+eoXFx91jo+g4CwuDzzn2prI+WyouPu4dd16fZ4uvTWsq673pHlMYiJIz/uF2KzLj+XlRMzdtvi+puPjYOkCdZfR2pVo9F85fYZ/fx5OLj7dxZaMEAnfC2mi9wqUjQ4vSs7zdfvmRLLsJ/aTQdRpIDjF7KNFXf7Xcf3R0QufftEsCPi6t9RX5rj1wH9NUPHx/Ev9m2t0YazMBGqjpRQQQAUQAEWiYBIxEGDBtJz16sF3OLKmsNCuX39wSxTnrJ8Ziw5KWHcqUh2Q4zonDrBK332B0wvecyz37xVguSN9Dblea6bYusZkkdloUs1yB+HT70LxYbFDiQu8rfv9v70yAmrj+OM44GRlHp07b+W89Rpmq4zVVy3g7HlXbqfHWerTa0Vrv21astgZUQDQonkhUDpUqaqVqAQEVBDkExKMYjnAYUcNNxQMPQN3/7G52s4FkExOOBb7Ojrxk9733e5/33ub33Xfs4egJ44JsxkaEsFthao0pvblqbFDbWZEeJ+kXIZ+Ov5ap9cPelqe+jov63D54wIbYQ8x2paG3+a8j4NvJD/O3K/U5q92udPMN1r2jNzNtN4vervSUcsliaslBIDuswVqldPhe2WW50jNQ+y7kmBwqetUz5eG11EPlld5Kb3/lrLlK4nvl5QL6FP0eA4tHDPj2f2iYdv1HS31G/RS8TRHhsJDarnT4bnZDUmFhUPX0osve9i23j6W2K4345cc9dhLnqWfYOjIRt+zsxl3tJa5fLb/kfDjyt1WHekqchriqdKvYP7Qg3PWM+z59k3L5EaV3AL1d6QTlAXZrV+En90ztG6tfEymXKp0WKIkZynW+St8zyvVrlMREpfsdtuXUWGPAGcwFXt9UfilVjnZVejPblUboL2p/rnRfSA06bb+tTZOLaHGgMdb+Pe/FO2uMEhgjoJUH7P3qbXnq/b1DbG2HHma3keVHFBYG4rybCdAQ588hrAIBEAABEGhSwoD/O0o5u4LCgHrlk/qm+2+Xe44MbjMipP+Sa4fi/uU21696cS/z0vUffrjUYWiwzcCQz6deWXksuYA3E6NCc+vI1isDxoV8PDp05Lrr/6h026RyZhQlxv38w6VPB2rfaMbt4Ug/hk+54RMx5JtgCfO+s2Xx5mzf+bY8tSJf+ed+5Tf0C85G1njB2Wu1co+rctB0Zccp1AvO/kwx4KUV31KuXKnsNlG7GpUb06jIVx7brRw9V9lllnK8k/JSNus1NrAwmHQi23ez96BO1AvOpjnfjeRWkgg795T60hyXnxzTy7lT6209+nsvPZalewOdybhv8v13nfy6t0unts5fDDy6yCv1Otc2uPq1IMC476fol8H1nkq94EwereRKJCwMqBIZr1/hlJkXnO2nX35nN1351Qald6Lu0b7JfOkWq0w6pfzmB2V7+n1nxEYl/80bVS+UgU5KYoHyHq+PWMCHH4WuoyZV+/zS1QxXvQjzGGrbSuqiqTGPqOndzfDTCwIgAAIgIE4CTVkY1PzpxTeNiwDtGk44we592biMN2it1n1n13IYvMayL+suZXPsqcpXzpukHH3MgBA1J7rBa5pe7RssJvdl1W2HAbatp/tc575pwgFx/hzCKhAAARAAAQiD1Cb869vYi1btuX5jLw713olAar4Nt1C7FktUdymbY2T+BWokwYs3Wc6cWMLXNL3aFy7vna29bD8ad1p/7p9wlMZ7Fj+9IAACIAAC4iQAYQBhIF4CTc81rDv3ve5SNul9Vr1Q+qxTEmuUDw3NgTEZ3dgFTa/2jZW0GX4vzp9DWAUCIAACIABhIF63uBm6CygyCIBAcyCAn14QAAEQAAFxEoAwgDAAARAAARCoVwLi/DmEVSAAAiAAAhAG9fpz2ByeBaKMIAACICBMAD+9IAACIAAC4iQAYQBhAAIgAAIgUK8ExPlzCKtAAARAAAQgDOr151D4KRrOggAIgEBzIICfXhAAARAAAXESaMTC4GBmpsCRVFqKw0wC4myasAoEQAAEQAAEQAAEQKA+CUAYQD+U1meDQ14gAAIgAAIgAAIgAALiJABhAGEAYSDOvgmrQAAEQAAEQAAEQKBeCUAYQBhAGNRrl0NmIAACIAACIAACICBOAhAGEAYQBuLsm7AKBEAABEAABEAABOqVAIQBhAGEQb12OWQGAiAAAiAAAiAAAuIkAGHQKIVBrDov7HGxmZsOmbxMnE0TVoEACIAACIAACIAACNQnAQiDxicMEm//22dgUIsxCYq8EpNOvzkX1GeDQ14gAAIgAAIgAAIgAALiJABhYEAY/K2IsOkfrD3sL827pud/C581xxE3eU14lHLtIdW5Ir18uViJqaljvwn5ZPZt/0LDF3BXmhkQZ9OsFatKlKWHzpZlv6uVxLhEnpzwIyTOm2KoL/hh7oLaCqRs3UW0DYysreSMp8MvBT9sPAbOgAAIgAAIgAAINDkCEAYGhEFkksrJX0kdO6Lb1BAGwmfN9MWFLztz4KqNfdxuI8JAOK4FZ5tcq9YVSBWQRUgfhr3VfVMbofIz/oTEzTGBSosfro209dKoN2GWYtOMAAAgAElEQVTALwU/rGcNPoAACIAACIAACDRtAk1QGOzPyNivUlngH9eMknjt5ic1hAF3mfBZ7jILAhAGtdXr6kYYVJw/RUjkrrcoK/nh2rKaS6fehAG/FPwwZwkCIAACIAACIAACTZ9AkxIG++9GrNwyr8dsDzkrDBLUD5y2Xe874VKb4WE958WtC9fEluim38SlZa5aH2E3Mth2aGiPRQmOcQXVnHhh11/gbLwqe92GyM9HBbcaFtZ7adKW+IIEXr7GrEpMut3FPkg3i4mbzjTtzjk6euKNW525C+yDZ1/WlYWxXKBEl45H29hHOyZk/rz4yqfDLnWeGbMiVBNHJ2uymReFqAmp+tT95+5OWV9MTx+w8oE8oaKCi1ZWOkuqnBVcHuGrHjErrfuPWfO8y3J1p8mKomd7d+YMmpHaaWrGqN81J1VVXFQTKZNkVckLL/f7Q2am2k3PGLtZczqz6j0XWSDf+4VDpcrPxqdWO4hlRdkkSb57uWOBsuPm//7jkiLJnLPZxAT1KfO2aAo5206yW55CR+eHmfQqnlyTn5nU29WuzbY+A/w2HX9cpsvnRcAkGTEp4d8rYXPt3bq0k4+ZcSlEXak7/zz/7FrvUXbO3XooVvtqEpx3600lqnoav++vqX2227V1/nLIMUf/x2U6GiZSfqfJ8lykGGq3rb1kS/ceB39ySsl6pcuW5JeCH+ZdgiAIgAAIgAAIgEATJ9BEhIFWEnRq3arjoJG7QvbQwiCxQL1sWrDN0Kvjd97dePTOrPmhLfqHz7layPjQiQXqJVODWnwVMWNvykZF8ripITbDrruo9FxtAdc/qbTU2NlEjXrB5OCW30bNOZCyUXFryuxLNkMiN9zRbiIkYFVijtrFJ2WTT8qS5aE29hEz6PAmn5RN59QRjDDIUe9g5ji5R39cQxgIl4gWBhFDlkSM2/nvBsXN0eNDbAZGrLtFWWWyjdPue/Z3m7OX+RX5BhasWplGjM/ar2adUtpBlzqoJ7oVHLlQLJdnd5Uqx/75Sjt/p/KlfImy3awchz+Lfc/lL1mSRkxXB5Zo8zSR8utyl0XKjj+qZQHFfoEFa1anE1NyfB6ZkW9ZeeA/Jcf+KZE7ZhDSbIcLVJg6rpUzTnpmQBYx/v6frBkk+ebgCp1UqHhVpCnLq368KOeWKlwNtJPs25NBF4Ifpr6oSnHe166l26TVEd6Hr7v9uK+LxHnu6acsY9p9H3V07pjTcs+4oy5nvv2frN2QiDQtqzdRK3cSreQzf430UUQ5TlbMnsAXBhXJsr3tW8u/d4j0ORLjvuRQD8m2yYoidpqUcMqlx7/ZQnTw+tU9/qR/wlHHE4NbyfpvvP+aNYvkl4If5i5AAARAAARAAARAoMkTaPTCgJMErTsPG73Vb8sd1cHMzIOZmUmlpTHB8a3sQ6cGaccBEgsfLJ4S1GJVWhTtZF8/H9fSPnxhbJFWJ+Skjx0W1NXjAX/QwJjrr41iZKJRxLlYiX3EL/+ySuBx1oyxQe1ccphYwlYx15icSpQYm9yhhjAQLhEtDEK+PpPHZJFwL8W+f1A3j1yzhUHa4mvsk+1nZQumKAf6lGu7By0Mujo/eaL9XHlWlkr8XJBGf3wV87CjVLU9nXWqy8oWTFMOO/GSuZYWBkZTfnYtt4M0W/GYVQKvnjv8oOyreGFOvsw1RqcSFRZPHK+c9Dc7rvGwaLQ0dVGkdigjOWxQS8fPqh0SvwC2gNr8Df55eW9la9lgp9w32rPlF2Y7E/2u3NN+pN33//15nh2sKD15vJPEw505/SplRUvZIEd2tOVtoecwR92IwdO7i1vJxu0vZpVAxfXVO4nPgxPNSfnF3UUS2XgFmyv5ThV41d0zM99gEfAlCIAACIAACIBA8yTQuIWBq/fSHp1at+kyaqyrv3OKVhJwwuC8ItLG/rprrm4QIDQx88C1R4wwoJzvQfH72QW+iSUahzlBLdakx9CyQdj1Fz7rvyvcZkS8PEMTrD0e/vpzkM3SVOapv7BV1ggD4RLRwiByY5qWRmKJeuG4IMlGSkGZbPq0+55zrIi7kHq+3s6tTOtW08JA52STZKp/JjHhUQStBSjXfJI2TMev8F6nbOdSxjysFk455biK+O5RSFFFnvZ4ffg3JbH5P+3zd8F8GVuNCgOy8tTvqcSKovv0ddRlU3IvsUrnaXHStczr1Y/Heaww4jgYCKRHjpFsWXuF1TIkqfFSEC1PXtTO26GFwdjYh1zMlKsjJE5rL9PX51yXSmSLzrNqhSSTN7rphMGdy0MkLmsv6oYyMg96E5JjZ7QTlQRTrspY31b2xYJk9QudYZwJCIAACIAACIAACIAARaBxC4MNa7q37jph1rkbe1V6qoAZMTh3KMLGPlaerxMGjNvN/O/rFmYzLEHByoDEkvzNC4NsFt4LZ78RmCwkLAyolLnlAVyATVnYKmuEgXCJmDUGTtmcMMhdMSXIxoFapW2yK9DuuzpAN1W+4vAaJbH1ifaxP+2gzwrR+bNP1c8uXivX0D5o8lEVMV0Tp8uj0n+jkthYysziEU45+aiq2iKBz8ancnFJwXyZDI0LA7LsWm5naaYHpQxe71mq7Cp/yp9zr7P3A0NJl+zZnUyZmCV+PoTEx7+Y+US775MSdBqrrCAi8N+bzKAIJSpkK0LYwRWS1Ft8nHTJvtogRkvHz8xMmXybtl/RnYq+tVefg9NnB7p5Z2t0FfaBZcTlIAACIAACIAACTZJA4xYG8mCPr8d2a2P7SacJqxf8Hc+XB0mlpcIuuLAbLez6C5+lUh4Z43A56xD/iNOu9BW2qmkIA35XsVIYEDNyvW89v84/VOy65xrCgJ8vExYQBuTrp6unKwf5lL9TF46Qpm9I1vnjJtcY1MyI++ZDhQEXkSRJk8JA4rrIq9pQxmPWv68hOfgpU+G3T1T3wwJueLkGO8zx6msr67tWxU7Kqn4pPoMACIAACIAACDRHAo1bGBzMzDyguud6Wk7Lg487jVv+01+xe+jRg6TSUmbSjgs7lSixpCQ4NkMelhtJjwkIT7wRdv2Fz1JTiYYmeBUbHqkQtsoaYSBcIqtHDExMJeKPGPB7EuWaWzOVaOrjGGOzX6wUBuT7mIMZxNy84/6ZxGxNPG+ekDVrDMyZSsQfMeCzyo42NZVo24YoYzRMCgN+Tu/Tt+8l2py7wq5X4J9DGARAAARAAARAoJkSaPTCgFlRwJMHbTsuPLaL3pWIWeY75R9u8bF64aSgFqvZxccXqMXHP8foLT7utlt/8TG1PWjwzFDtMmLGa+f+pzcPNXA24q8YiX34T9FsygXq3zbEzjj5kIkobBVzDS0eYndoDEsLao6TwcXHgiWyWhikLdFffDzIj52SL+igv4qlFh+7prHP4+nFx8P99RYfG0v5aWRuB6nKOZWNW/nS1z3XIZzdS0cwX6ZDPwjMIaQPLrIxqvXyt+n5A6TpPWcq7RUv+C6yNWsMXt5b1Vo22FF/8fGXV5TarAXd91cpy/UWHxd5DpXp1hiU3V3USjZo8wO2MFUpir+WrE7OMiflR8krBh/4PZSNSpLqPZ5Eq9O86V/V0OAjCIAACIAACIBA8yPQRISBnjzY4M28xyCxQL10WrDNMHq7Uu87s34Ka9E//MernE54sGxacIuvIpntSqXTQmyGx2zP1PPFEzXZM8cEtZkRv+44/SJkf6Xinu4CY2cTNffnTwy2GRUx3SNl09HbM+aE2gy8ujxOpxMErGKEQdy1m+3tQ3qtv/Mbs2PpP7nMkuiw2HTtK5np7UoHu2qt2n+LSjyxUKhEVguDnO9k2SuOsduVTsjyzGWfXQs76JUvdy1TtptNb1camL90aRox/cHf7PY4zOJjoym/Lt+6UEnMzP7Fv/jY+UKHdRnExMzdKlYnCOdLd+bKe3lfSlPHyAt9me1K417pfGOSJN+/2r1YSUhVO5idR2ul/79Vbt/fvqXbZGq70pgd8/Z1kbjM/+sZm7SgMCDfXFtBb1e6PtL3cNSWqYqpY+Q6YUBWJP/u0V6yffyKq95H4zxWK/pInL5ye8RufySYctXjXV86El2O/uFBbVfq43p67KeyLrNuFbJm4S8IgAAIgAAIgAAINPLFx4weMPg/42EnqNWO2673GR/aZnhYj5ovOEvPWrU+ovOI4JZDLvVYlOh4Q/uKAyYu8/+V2JRJ34e3Hah979jki3qjB8bOxquy1zpE2o0MbjUirOeihN8i8/RfcCZkFeXilxT4KeL6fB3Sgnmd2WLlVXr603F5uIFlzf2Dhx3XbkIaZ7xEVgsD9ensZ66bM3tPo15w5p7ITvQnyZqLgKt1rMqi5/t25gz6LrXjFOoFZ6eyqr/gzGjK1AvOnh+UUy9Hs/tONXrTY9+UClYWmM6XNqMqOfDht3PS2tPvOyP+KNWtoKZOvz3vnEosLEhjNU41yy37WFkW7X5mUi+Xzq23fTHA7/cTGu4tBiQp6L6TJPk8/+w675F2zl27ei7zyo3duosnDEiy6mmsx9kpvV07t3WxH+S7QXG/UEfDRMpvcpTyuV5DOm1rL3Hq1nXvjNVxN4trtdSWsUIsEAABEAABEAAB8RBoUiMGfIXAd+4RFiZgsjkyewed1vepTcYy54K6S9mc3MlnT+ZPUo45VSvbEZmVIS4CARAAARAAARAAAdESgDAoFXaam8NZk62zxqaiJmOYe0HdpWyOBUWh6vbSLIXGnGtxDQiAAAiAAAiAAAg0cQIQBhAGFrzHoNZ6RYMKgwq/9UpiXTF0Qa1VJxICARAAARAAARBozAQgDCAMTAuDxtzCYTsIgAAIgAAIgAAIgIBZBCAMIAwgDMzqKrgIBEAABEAABEAABJo2AQgDCAMIg6bdx1E6EAABEAABEAABEDCLAIQBhAGEgVldBReBAAiAAAiAAAiAQNMmAGEAYQBh0LT7OEoHAiAAAiAAAiAAAmYRaHzC4OfgYLNKhotAAARAAARAAARAAARAAATMJgBhYDYqXAgCIAACIAACIAACIAACTZcAhEHTrVuUDARAAARAAARAAARAAATMJgBhYDYqXAgCIAACIAACIAACIAACTZcAhEHTrVuUDARAAARAAARAAARAAATMJgBhYDYqXAgCIAACIAACIAACIAACTZcAhEHTrVuUDAQ+kMCb8sKiircfGKnJXg4aTbZqUTAQAAEQAAEjBCAMjIDB1yDQ3AgUHR7uRLTcuSm6srmV3FB5QcMQFXwHAiAAAiDQtAlAGDTt+m3g0qkDsz8bn8ochDR9S0rt21OiLD10tiz73Yem/OSEHyFx3hRDxeOHPzSd+r6+WB2wNyos830d5PskcLa8S4dDe243hjGDgoRZEtks/xeWczBBslHRsJyC1TGrXiQrAmcOlnf/n9uQUf7OgYUWV0nK1l1E28BIqy2iEnhXrvQP+nH47l6fuvQf7P2LQl1UVSvp0omYaDm1l5H5KVWURe06M+WL7Z+3dek/8s8dF4peVotbBzYXHT1K2Dq273ghhrlhFCV932pLJ9utDteq5d2cPgpwFmdPEaic4ptzWjp+1tLxM4ms3UfbBw8/5nhKU2b+L0/z6oMa914ygsHF/T/tZokRvNXudXwPhB82Ervuv4YwqHvGzTiH5/efBoSWUoe3ukvdCANVQBYhfRj2wb5s+Rl/QuLmmEDVDj8s9tpKjxwjka0I+WAhJPZyfah91gsDkPxQ5gauf5e5y7ODZPuElRHeh6+7zdn7ucRlYeBzAxea8VW1H0szYhi75P0DxVE7ybZR80IVh2P3rFT0ljiOcn382tjlH/q96FpORfIfHu1buk1eE+GjiHKa5t5R4rbw72d6xaoDmylhYO81vp18+20qq+dn/TtN8P5O0ryFgVHO4uwpem2k+ofim3MkslHL4wL8b57yjnaZ5dFZsm3W8SfmSYPm1gfL7wbeDPC/eXKtFyFxm+dGhQOuFBm751S71/E9EH64eo3U22cIg3pD3bwzSsnrKS5hUHH+FCGRu96iqoUfFns1Gf3hEbvhtWwfLQxm+5dbnixIWs6Ojfkuc9Onsr6/ZLHPp58GTHIihkdls+c/6G+1H8sPiqt/8QOXz2Vd5v37n/bbiqQN7kTr0yEV+ldZ/ElsLed16pqPZAM2qbVeyLv/fMc6Vq+FOrCZEgY9/nFdtO0rj0KSrAj/eeskecQCCAODD25E2lME+wAtDOac4u6xT09P3kL0u3JPMBJ7spn1QbbYVRdPExIPd1OMqt3r+B4IP8ymWu9/IQzqHXnjzDD/TtGqX1R9piqJSekDVj7Yfv01XwtXlbzwcr8/ZGaq3fSMsZs1pzOrqj9VMC4MhOO+e/YywEs9bkF6l+mqr9Y/8kqueMMAvF84VKrk5ilxAWJZkZleScjZdpLdcmZyEz/MJP+u/J5/0I8jdvf+1MV+4JE1+zIfa/OlT1c8uSY/M6m3q12bbX0G+G06/riMrdXI5U7EwuhzP3l07+TpGFGWetCvf7sd36y4+8DMIY3yolDXUxP77uz6ievAwT4OR9RF2oh5Hn1rjFRSg7z792eyeZcX/e3gO7qLS9eunssVD+O27iL+d+E6czI3brJENu+srs5UO/cSkrNh2qi8YVCJzG4dl6L1KbMpGPoryOp9ytbdROtjZ0p5MbOivpU4zjxBPwqlhcEP/vnXXU+M7uzcvefBBa4ZGr7nZzlJEzTeabI8FymG2m1rL9nSvcfBn5xSsl7xjDQeFCwvHc2ozSTJjJCcyNOWt8fB+c7pj7jyCp8lSbLqafy+v6b22W7X1vnLIccc/R/zpgS8CJgkIyYl/HslbK69W5d28jEzLoWozVtnornxnUQ2/y9du8qU7yM+CozQDmiZSvl5/tm13qPsnLv1UKz21SQ479abSmSxzWW35ktkU7y5TklWJif8vi7yWjEN2URfII3Xrxl90Jo7g8XlLUr6XiL78YyuFZampIVc0hRRxTXDZoF8BdsVJQw+PR8SeLLTuHhNheo3wvNQfMIsvjBodO2ZGj42fhcV6kemOIuzp5ACrZ0kqwsDMmf3AcL2TCj1k2Tq/tzc+iB72zcqDITvdXwPhB9mk63vvxAG9U28UeaXVzJlsrLnmsf7/ikNCCl2dVR1kKqcUtjpLK/LXRYpO/6olgUU+wUWrFmdTkzJ8XmkLw2MCQPhuJUvdy1LJaZmLvMp8j1fuNEho/14lewO7SqXlQf+U3LsnxK5YwYhzXa4QIWp41o54w9UvCrSlOVVP16Us0aTVwPtJPv2ZND1wQ9TX1SlbN/fUbLtq/mhisNx+9Ye7WfrONghmx2br0px3teupduk1fT0iR/3dZE4zz39lKlYyvnrceQPeazrJDein+eSldeOOBzuIXFeE845cQItoPzKop3EJ/sWOUUf847zoKZAbJnkxUiD8ttn4o8djT/mfKKfRPbt6jgqTB1372r9n4q4dXJCsn3iqghvRZTjZMXk0XKzhYF2GDTAP3xOu5rCwJqUBQpLmmCVEfm1xPG7Y1qwJEne9ziokwq0yzJx4gnp/PDDh2PcFx7sJnH8ek8hq7+sISlMo/T4N1uIDl6/usef9E846nhicCtZ/433da6x8RKbKC8pYLNWGEjHH+OXd8yuAu3MeZqG0bNkRbJsb/vW8u8dIn2OxLgvOdRDsm2ygpWcJO2+jzo6d8xpuWfcUZcz3/5P1m5IRBqL0niBSDIz6luJbMlFnYpQ7/UkJCcvalW0cMpvolbuJFrJZ/4a6UO32NkT+MLACpsZd9bY+hMTwkCgfk32QWvuDFaU990D589l3WYnawysozBps2C+gu2KEgatAyNKk+e1Pn46OLjvwIgMii03lagRtmdS8F4n1I9McRZnTyEFWntNYVAZvWo78eUVJXNHMOP+bHQNWNPrg+xd0ogwEL7XkYLeCJt0ff6FMKhP2o01r/LIXEKa7VPA2v/21UX/giPJWlf32bXcDtJsxWNWCbx67vCDsq9Cfw2iEWEgHPf1jUd20vS18ezvXeXLnYuV7bY+4cY2SZI0tsYgOWwQtwaIC0j8Ap6whRD4+zptbVtZr6Wp7CPHt/e27SVa+gcyRXp5b2Vr2WCnXHYIofzCbGdugJVy/r6KUZMkmRw6UOLjX0yS77M3/0/29X7mcaVAriT5Nj9wc/Dey2y25Ot/fnAihkTqPcA3NiWgInVNK1m/X9mH128LDwyWmS0MOKse7uhWQxjUTspcFrqAKVZPfMc4EmNjH2pjFHkOknWaw+og2mXpOvcuu7qr/MLsbUTv8LvMxdaQ1BloiMaLu4sksvEKdpYK+U4VeNXdMzNfF8toyER5hW02WN6eofTsbq1sqE6DO/v07uJWsnH7i1lXv+L66p3E58GJWktp9/1/f55ny1R68ngnM0bDqdjmuDvGUn6VsqKlbJBjrvY28rbQc5ijbsTAGputEQbm1K+xPmjNncGa8pJkfuDJLyWyrl/6rXe9EZKkd4PUVrIxm4XzFWx1lDCQnA17/8xfunVoX/kgl8dkdrSUEwaNsT0L3+uEWTGgjXEWZ08Rbu30iMF0z4I8TZlGnR/nd3ZEa/nyf9jnY6Tp+7OFwkDYKmHODdcHGbsMCwPhe522i4rpD4SBmGpDrLZUJT22k2asuPxG97ydZ2rKcRXx3aOQooo87fH68G9KYvN/uke9JEkaEQbCcR8E5hBSdSBPBxRlP4tMecP7wqgweFqcdC3zevXjcZ7u4SavCNWC6pgJ+hNvyELNtavq+4wwoG79W9ZeYXUQSWq8FETLkxfpkXzK+ZPG55EkeS9ipOTEX9Rd9IGLnWzkLk5WVcusxse3FWWF2rGOiF/lxCfno/iXGPvhoZ/BLAjUjUskb3SrHWFQOynzy6ANm2RVfMKvg+TgQWZuGFXwbcuC2EfztMsy+SgnoujxhJYBwToAJGkZSZ2lhoRBVcb6trIvFiSrX+gagC6GYMhkeanYxmwWLq/w2TuXh0hc1l7UDaBlHvQmJMfOaOHRwkAnwEgy5eoIidPay2YU0Bx3x1jKOdelEtmi87oKo1ostyuRNTbTNCx0SsypX2N90Jo7gzXlpdtNfmz8ltme/T6SERLHnl8FhWm4sVG6URqzWThfwXZFC4OA4Ery8UEvQiLfmvSeForciAGdb+Nqz8L3OmFWdHFJY5zF2VOEWzu3KxHzZM1W/sOBh/yNBUzen5tZH6RagGFhIHyvY1qOqP6HMBBVdYjVmMpXil/SPxuf2m5y+pCV9xfszj9+p4L7QU8+quKm+HMBYmMp+yyXLpQRYSAcN/tsNiHNFV4zaGzEwBqUNW7ieoklXbJn9zllvi/x8yGYwQGSnh5juTCoVP91YaKdk96uZ5yrxGRm9g8PtbzJ3DUGXPkMucI1aFiUMpeFLmDaUS67u/gj2fCdee9Jkpq8/r+z4ewqV+2ce950kUeUd+LPqkgrSOoMNESDfJu2X9Gd+qXc2qvPwemzA928s/XWNuiiVw+ZKq+gzTWcXb3yCp9NumTPDZpxAbbFksxUokkJ9JR02uaygojAf29yQ4DVy8H7XKNtGJhKZCzlGi1Zb0GeNTbXoMGzmCRNTGMwo35rWK5N35o7gzXl5RXv/cunKcFX59jJOnwT94D3vVGHVTjfGiT5rY4WBvS0sfJn9zPLnr5lRpA4YdAU2rPevU6YFUPbWNsQZ08RvpvRIwbjNt+jnq9duXdWfnpk222TD+SzQ+Uk+SH3Z35jbMJ90LAwqNEq9O51emjE8QHCQBz1IH4rKquyUsrOBRW5Kx4vWpPRXprxW7J2ZkLyURUxI9f71vPr/EOlUw5U4YwLA4G41ggDk2sMBJDXuInrXWvNz79eQtU/vE+NHGsr6z3hUkCIihnrOP7TDt0zVObyGrcYbSrUIL5s8QXdgMhdR/PXGHCWGHKFaydlLgtdwJSjTO0XdXWxM9E79Pa7/L32su5rVOx4AbsY14gwsIqkzkBDNKizb5+o7ocF3PByDXaY49XXVtZ3rUp/4pwuCX5IuLwmbBZ00UzIJKrFui7yqjaA9pjVM/SIAd995xstHK7RU0wIA35qNVqy3o+lNTbXYMXP1pRTYkb91rBcm741dwZryqtXPOrDs8CTn0sOHMjinRCy2XjbqEHSsDDg8qHag1YYNMr2LHyvM1FHNAVjnMXZUyiTjd/Nqi8+fp/v492xpcKbndz5Qfdnro1QARPiXNAqJiFjnBu6D0IYlOpNFdGr9rr88HNwcF0mj7TNIPDu1a7Fyk67qEdElM9/XEVMfRwjPPHAiDAQjltzKlFeellI8iv+cKaxEQNr1hjQU4n4u3y81+SGXFSpmNmV1C2pTqYSPfZUEJLDvhpdDdyRyc0VBs9u/yyRjdnDPfZ9Gfido27EoCjpB4ls5gmd+6onG3QZGnKFaydlXR5cSNhRZi6riLrQRyLf6n1llMTt91h2kjypFQbGphJZRZKzjzREQ3eWCb1P376XaHPuCs+06pewn4XLa8Jm2kUzVl5GGBg9S02B2LYhylgPtUIYmLfXCtcoWRL0X9oJE5xKZKnNNXZEqUiMXbP48lXGDnP7AmOsofo15pRYc2ewoo7KoyNXLAi/yl/ElBw2SOK6OY7H25jNwvkKtjrdiAGXD08YNMr2LHyvE2bFQDDGWZw9has4bUC/tVcXBiT575Vhki2/ROiiGb0/N7M+yBExLAyE73VcZPEEMGIgnroQryWa8Idjlmuu6Kb2v/Fcqeywo4yZTfQ0MreDVOWcys5prXzp657rEK57uEsVLKtgkDR1Q3J130Q4LrP4eE2cbvGx2yJl+216a+to8fDgon5uJElas8aAWXy8RLf4OGXLHsL2z78ZAC/vrWotG+yov/iY3atB2Pljq7gyw/fM1K/8toTrievSY76E5MA+FQupovDgCFl1YUCLlp95awnYNP87/o0T0fGoPORxdlZe1KFT0i7bdcKAVG/pKOu2IEU7q/xtkecwGfFtHE+DMFXnviIAABkvSURBVMkYdIWtT9lwec1i9TZ3ew9Zzw7biW7BiXznm3ZZusy9y25nSi8+7hV2hy6HdSRZogaFwaPkFYMP/B6qa2/qPZ5Eq2p75FtSXhM2M+X98V+98nKLrYXPlt1d1Eo2aPMD1uiqFMVfS1Ynsw+UzREGhktEMruzr8tkZ3jR7zEYEZ2jRSiY8quU5XqLj4s8h/Jau1U203uo/6h7j0HCejnR+swl7exHwb5gTv0a64PW3BmsKO+72KAvJNu+9+d2oH2b7naAkCiOPuJaMkkas1k4X8F2JSwMGmV7JgXvdcKsGNjGOIuzpwi39urC4L3miHdHyb69Kl67MnZ/JptXH+SIGBYGwvc6LrJ4AhAG4qkL8VpSlVkwfIKyn4PmIL1dqfuOrC7StJ+usqsMXpdvXagkZmb/4l987Hyhw7oMYmLmbhWrE5hivX6+4Qdll5WPvELoFyGHlsYx+7gIx6186b4slZhGbVfqd0G7XanjXb5/SFbey/tSmjpGXujLbFca94p1f6zgWZXiur+jxJnarvQItV3pl7aOg3/LZgcq3iq376feM0ptVxqzY96+LhKX+fQqY9LcNQYPnDvTLyVgViNwhj5M+v5jWed+/s4H4v0OXF432nOGdFd1YVCp3tpV1mnwmX0KZrvSVG56zZu0pCVf0OsTJLJuX0f4rnfnCYP36kOHO0ucv1505agiymmyvINk5xpuwn7Rw4v+9Jsa6e1KO0pDqLc2+t8MuFzIbI1uecraohkur1nCgHyf4baXkMgGbn2o16Jol+Wb0d7jFoQfORzrvojertSjQNs2rCEpTKPq8a4vHYkuR//woLYr9XE9PfZTWZdZtwq5SqQCFpVX2Ga6vBPHH5fyy8ttzyp8lqxI/t2jvWT7+BVXvY/GeaxW9JE4feX2iJ0rLOi+C9YgSdLvc21Jb5LLvfn4b25gSjjlN9dW0NuVro/0PRy1Zapi6hj++Jg1Nr9/oDhix243TL35uKXjqO3cm0gE+4I59Wu0D1pzZ7CivO+Kjo1zJlrLZ6yj7ki7l3n1ksj6LUtlNSRdhUZtFsxXsF0JCwOyUbZnUvBeJ8iK6SlGOYuypwi3dloYMG8+DvCL2/er78DWsq7Tqy0+MnJ/JptZHySF33wsfK/T3mRF9AfCQESVIWJT3qnjChavUfWeoiQmpn25+L7D+fIS9sE2tRS/5PlBec6gGal236lGb3rsm1Kh58TRBXuSXrxqjarbRO1byVbHaeMLx3337OUpL/W31AvOMkbxX3Cmg1WVHPjw2zlp7en3nRF/lOo2qtFd88Ghd+UpJ4LmDt/d61OXLwfUeMFZZVm0+5lJvVw6t972xQC/309ouCf/5jm7r+I2e/b6n3yOTyE7GMIY+L74Rszabzy++GRbr75H15/Q3HT1qC4MSLIsKWblcHkXW1paVNuA9XX5g38fJN/979k7kpqGRFyI4Ur+rvxfn/OzB8u7f+o2dPRJeUipTkAZnHbV0vEz/rxzy1LW5m64vOaxIsvP/dmR2j2T197YqUSzjj268offiI7O1IvG9F5wZgVJUzTe5Cjlc72GdNrWXuLUreveGavjbhbr20ZaVl5Bm2kX7Qd/TYTjsZGdapRX+Cz9YqZYj7NTert2butiP8h3g+J+oa6HCrvvTBUaLhF1rupFsiJw5iCqXQ0e6e8cWMjJAgPLmrnWyASe559d5z3SzrlrV89lXrmxW/VlcNVTy22mX1A4dxjVf+0Hef/ipS7i9zSBvkCSZtSv8T5ozZ3BmvKWF1/eeXraIHn3T1wHDPZe55mdzz624ZAbvW8I5CvYrkwIA7JxtmeSJAXudQKsWNDGOYuxpwi1dr1dibb27uM5f/OttKfV7nVG7s8kSTavPsh7LSa3wcO0m7odWITvdWzjEctfCAOx1ATsAIHaJPDq/CwnYlgUO12kFpOuu5QNGln+98wtxOAI/vC1weua+Je0izbbXzedT6+8wmf1LsUHEDCbQN21K+GUhc+abb7VF9bzvc5qexsgAdyfGwB6nWcJYVDniJEBCNQTgWfJZ+gpQCduHFx7uLdky/iD3NttrbSg7lI2ZVjRzTm2sm8O8FdWmorSJM/TrpLRfcGFzzZJIChUPRCou3YlnLLw2boteMPd6+q2XHWTOu7PdcO1gVOFMGjgCkD2IMAReFnxMu5+9MsKaimnBeHYuJ/b0/OLWm7r3W3fd/L0+1UWpWPABvUWLuV+ilXy9PvROVEm7eTKZUWg4MiRdhKFN38ZpRWpNeKowq6S8NlGXGyY3qAE6q5dCacsfLZukai3dNDeRb/op1i1NzufPwmtbrNufKnj/tz46swciyEMzKGEa0CgzgmUlBfH3Y9uSv/XOTJkAAIgAAIgAAIgUKsEIAxqFScSAwFLCRh4Tl9bz/sbLh1LYSAeCIAACIAACIBAAxCAMGgA6MgSBEAABEAABEAABEAABMRGAMJAbDUCe0AABEAABEAABEAABECgAQhAGDQAdGQJAiAAAiAAAiAAAiAAAmIjAGEgthqBPSAAAiAAAiAAAiAAAiDQAAQgDBoAOrIEARAAARAAARAAARAAAbERgDAQW43AHhAAARAAARAAARAAARBoAAIQBg0AHVmCAAiAAAiAAAiAAAiAgNgIQBiIrUZgDwiAAAiAAAiAAAiAAAg0AAEIgwaAjixBAARAAARAAARAAARAQGwEIAzEViOwR0QE3pQXFlW8FZFBMAUEQAAEQAAEQAAE6owAhEGdoUXCjZ1A0eHhTkTLnZuiKxt7SWA/CIAACIAACIAACJgmAGFgmhGusJiAOjD7s/GpzEFI07ekWJxSrUd8csKPkDhviqES5od5GT0JnC3v0uHQntsmxgxStu4i2gZGsjH5qfHD7Hn8BQEQAAEQAAEQAAFREoAwEGW1NBWjnt9/GhBaSh3e6i7iEgblZ/wJiZtjAoWaH7YAfTVhwE+NH7YgZUQBARAAARAAARAAgfojAGFQf6ybdU4peT3FJQwqzp8iJHLXW1St8MMW1FI1YcBPjR+mUn771sTogwXZIwoIgAAIgAAIgAAI1AoBCINawdj0E3n37GWAl3rcgvQu01VfrX/klVzxhlfoiqJne3fmDJqR2mlqxqjfNSdVVbyTdNCIMHh0PoeQqgPLuctfeSxWEvIy+vOzdROUq/76b/nC9N6rNFFFLw//rur+fdYvkW8Y57ooRE1I1Seznrn+kdlrWvqglbkeyRXmLwcIOdtOslvOTG7ih6msNe69ZERLx89aOn4mkdmty+TM0wae559d6z3KzrlbD8VqX02C827+VCKSnxo/TJLkbfnEmU6nkgsrqqeIzyAAAiAAAiAAAiDQ0AQgDBq6BhpF/pUvdy1LJaZmLvMp8j1fuNEho/14lewO+/C78qV8ibLdrByHP4t9z+UvWZJGTFcHlugXzFJhMOBXzZ7A/FmzlcNW5v56ukj2Szox/VEELUpoYZD93ebsJT5FPufy5i1IJSZke+W+ZzKueFWkKcurfrwof8fadTXQTrJvTwb9kR+mvii/G3gzwP9mgH/4nHY1hcGbqJU7iVbymb9G+iiiHCcrZk/QFwb81PhhkiQLrm4Z36Ot7Sd9IQ/YesBfEAABEAABEAABsRCAMBBLTYjZjtc3HtlJ09fGs+MAlS93Lla22/qEedD/KuZhR6lqezrrcpeVLZimHHbipV6JLBUG4wMpEXDbR0VsLC0hyfd3NF2lWYrHVNq0MEj7OUI7SPA+r3jCeOUIf22+yWGDmEf+/P8lfgFP9Mwy9eHhjm41hMGrlBUtZYMcc7VP/d8Weg5z1BsxMJHoa03csU1Ten8MeWACFE6DAAiAAAiAAAjULwEIg/rl3ThzexBYbcIPWZT9LDLlDSMMVAFZxKRHEawuIMkK73XKdi5lr/mFtVQYTP+H8r/T/DMJx/+ekySZmtdHmrn/AZU0LQxyfIu4bF66zVN22P2U+fy0OOla5vXqx+M88+caUekYEgY516US2aLzutlAyRvdPkQYMPZV5Cf86Ti97yeUPPC6pceKKxACIAACIAACIAACIFCPBCAM6hF2o80q+2w2Ic0N0bnCeiVJPqoipmvidN9V+m9UMg/4dd/VlTBQBzDrEaic+OsTdDlbFTIkDNIjx0hkK0J0Qqja4uMPyLAy76psdAfb6f4fNo7xATngUhAAARAAARAAARAwlwCEgbmkmvN1jVEYmFxjYFaF1pkwqMi/edJpVr9PbTsM/kl+5eGHjWOYZTouAgEQAAEQAAEQAIEPIwBh8GG8mufVNacS5aWXhSS/oub2kKQ1U4mKL1E7C53SPfUvd/1R2fUAkzC1K5GpqURGRwzqbo1BdrRVU4leUUsMpvb+mJYEF9LK2CXczbNpodQgAAIgAAIgAALiIQBhIJ66EK8lzOLjNXG6xcdui5Ttt7GLj2OpxceuaezcGnrx8XB2EbC2VFkFg6SpG5K1WwbpipqS10uatiJGm/Lbh0XfSJVTLzCTlqwSBnW3xuBVynK9xcdFnkNl5q4xUJ+a0/0jSAJd/SMEAiAAAiAAAiAgHgIQBuKpCxFbUvnSfVkqMY3artTvgna7Use77LNuajNTZbvZ9HalgflLl6YR0x/8/Z9+cV4/3/CDssvKR14h9IuQQ0vj8ukL3r05+ksqMS1r1Yli37Oa2T+mEj88imAGDEirhIF+9h/2qejhRWqvUu12pR2lIXT4ZsDlwldUQm+uraC3K10f6Xs4astUxdQxcnOFQZr/73KMEnxYbeBqEAABEAABEACBeiIAYVBPoBt7Nu+evTzlpf6WesFZxqgaLzirLHq+b2fOoO9SO06hXnB2KosdW+AV+0l68ao1qm4TlZ+NT/1sfOrqOO3owbtn5Sf2q8f8mN5ltmqCc0F4Hjvy0HDCwOA0pJaOn01K0G6B9Dz/7DrvkXbOXbt6LvPKjd26y1xhwOOBIAiAAAiAAAiAAAiIiwCEgbjqA9aAAAiAAAiAAAiAAAiAQIMQgDBoEOzIFARAAARAAARAAARAAATERQDCQFz1AWtAAARAAARAAARAAARAoEEIQBg0CHZkCgIgAAIgAAIgAAIgAALiIgBhIK76gDUgAAIgAAIgAAIgAAIg0CAEIAwaBDsyBQEQAAEQAAEQAAEQAAFxEYAwEFd9wBoQAAEQAAEQAAEQAAEQaBACEAYNgh2ZggAIgAAIgAAIgAAIgIC4CNi8fPPesqOk9KllEWsrVlJpKY56IHAwM1PgqK3aRDogAAIgAAIgAAIgAAINSwDCAOrCBAEBVXAwM7Nhmy9yBwEQAAEQAAEQAAEQqC0CEAYm3OJ6eCQv8iwgDGqrsyEdEAABEAABEAABEBAzAQgDCAMTBCAMxNyBYRsIgAAIgAAIgAAI1BYBCAMTbrHIH+fXg3kQBrXV2ZAOCIAACIAACIAACIiZAIQBhIEJAhAGYu7AsA0EQAAEQAAEQAAEaotAMxIGiSXxK/vZtp58+EpJST08aG/ALGLVeWGPi2vLAAiD2upsSAcEQAAEQAAEQAAExEygGQmDhOjN3W0/kvrl1JbHLM50Em//22dgUIsxCYq82tE/EAZi7sCwDQRAAARAAARAAARqi4DNy9dVlqXVuN5jkFhSdMyhl+3Hs93V1rrLfysibPoHaw/7S/Ou6SUofLZWtER4lHLtIdW5Ir18uZQTU1PHfhPyyezb/oWGL+CuNDMAYWBZB0EsEAABEAABEAABEGhcBGwqco5bZnEjEwaF4fO72n4y/1S01fOIIpNUTv5K6tgR3aaGMBA+a6YvLnzZmQNXbezjdhsRBsJxLTgLYWBZB0EsEAABEAABEAABEGhcBGyqkpZYZrFohUFCUVFCDe8/LnhVB1ti1jmNBZ6xsSiJ125+UkMYcBcLn+UusyBQ/8JgX0aGMXlgWeNBLBAAARAAARAAARAAAbERsHkXPc4ym0QoDBIe3j4gXzJg/uGr+sIgsST/4NKOth2XeuXrza5JUD9w2na974RLbYaH9ZwXty5cE8uLGJeWuWp9hN3IYNuhoT0WJTjGFVRz4oVdf4Gz8arsdRsiPx8V3GpYWO+lSVviC/hKxphViUm3u9gH6WYxcdOZpt05R5udeONWZ+4C++DZl/UKm1RaKlCiS8ejbeyjHRMyf1585dNhlzrPjFkRqomjkz2Ymfmbw+j+qzw2xKfWlAeWNR7EAgEQAAEQAAEQAAEQEBsBm6rklZbZJCphoJUEnVu36jTsO0Uc49Fyfnyi5tx37Ww7rgrmf59YoF42Ldhm6NXxO+9uPHpn1vzQFv3D51wtZGIlFqiXTA1q8VXEjL0pGxXJ46aG2Ay77qLSc7UFXP+k0lJjZxM16gWTg1t+GzXnQMpGxa0psy/ZDInccEe7iZCAVYk5aheflE0+KUuWh9rYR8ygw5t8UjadU0cwwiBHvYOZ4+Qe/XENYSBcIloYRAxZEjFu578bFDdHjw+xGRix7hZl1cHMzO3HVn/R5SPbj3vWlAeWNR7EAgEQAAEQAAEQAAEQEBsBm9cFNyyzSSTCgJMErT8f9b174PlcA9t0Rp2a/7Ftl5/DtU4/4/rHBMe3sg+dGqQdB0gsfLB4SlCLVWlRtJN9/XxcS/vwhbFFWp2Qkz52WFBXjwec2BBw/bVRjEw0ijgXK7GP+OVfVgk8zpoxNqidi3avJGGrmJRNTiVKjE3uUEMYCJeIFgYhX5/JY7JIuJdi3z+om0cuIwwOZmYeuBe7bufSft3aVpMHljUexAIBEAABEAABEAABEBAbgca9XWnI2bUDOrf+qNvXc/de/Oex3uN8zoNPLHkgn/2xbU8Hf/3VuucVkTb2111zdbFCEzMPXHvECAPK+R4Uv5+NkliicZgT1GJNegwtG4Rdf+Gz/rvCbUbEyzM0wdrj4a8/B9ksTWWe+gtbxaRsmTAQLhEtDCI3pmlpJJaoF44LkmzM5IQBM4nogDLu110rv+z5MSUPtp73UKnE1qBhDwiAAAiAAAiAAAiAgGUEGrcwOLGxV+vu0367ouLPEeIkgdZBz/H7pq1tj83R/Hn8SaWl5w5F2NjHyvVXHXBxfd3CbIYlKFgZkFiSv3lhkM3Ce+HsNxaPGFApc8sDuACbsrBV1ggD4RIxawycsjlhkLtiSpCNg6qaMGDkwd7YY+OGtLP91l0OYfDmvWUdD7FAAARAAARAAARAQGwEGrcwiIg5Mk/a4yPbT3pM2+AakW5QHoQdntzatt+aeN3IAONeC7vgwm60VnIYmSwkfJZKeWSMw+WsQ/wjTrvSV9iqBhcGe+ICf1o1vtMntp/0mz7VL2ovhAGEAQiAAAiAAAiAAAg0FQKNWxhQj+1L8kIuedLy4OPuk351vpzKlweJJRmyca1tB7oE8p70M+41M2nHhZ1KlFhSEhybIQ/LjaSvFJ54I+z6C5+lphINTfAqri5UzLGKuabOphJFC4wYeMScnrv06w5taUlw6JI8Q8WMHohN6cIeEAABEAABEAABEAABywg0emGg9cJ18qBt15WBzDoBSjYo9w1pZTtAfpu5jP8/s8x3yj/c4mP1wklBLVazi48vUIuPf47RW3zcbbf+4mNqe9DgmaEGljtTWRs5G/FXjMQ+/KdoNuUC9W8bYmecfMjYJmwVcw0taWJ3aAxLCyprg4uPBUskPJVoq8ekdm2qSwIIA8u6HGKBAAiAAAiAAAiAgDgJNBFhwHjM2tGDLWeZhbxJpaUX3UfZ2o76PcWAD51YoF46LdhmGL1dqfedWT+Ftegf/uNVTic8WDYtuMVXkcx2pdJpITbDY7Zn6qWTqMmeOSaozYz4dcfpFyH7KxX3dBcYO5uouT9/YrDNqIjpHimbjt6eMSfUZuDV5XE6nSBgFVPMuGs329uH9Fp/5zdmx9J/cpkl0WGx6dpXMtPblQ521Vq1/xaVeGKhUImEhcEf7sum8kYJGEkAYSDOLg2rQAAEQAAEQAAEQMAyAk1KGDB+M/d/YsmtdYNtW327/1KNeUTMNQlqteO2633Gh7YZHtaj5gvO0rNWrY/oPCK45ZBLPRYlOt7Q2+2USeFKbMqk78PbDtS+d2zyRb3RA2Nn41XZax0i7UYGtxoR1nNRwm+RefyF0cJWUS5+SYGfIq7P1yEtmNeZLVYyL3Q7Lg83sKy5f/Cw49pNSOOMl0hYGPCVQLWwZc0OsUAABEAABEAABEAABMRGoEkLgxvOvW1bj1FkcFIBAQsIVFMC1T6KrUHDHhAAARAAARAAARAAAcsINGVhcFLW1/ajKdvZLTgt8IkRxeB2pXxtYFmzQywQAAEQAAEQAAEQAAGxEWjKwgBufa0Q4MuAmmGxNWjYAwIgAAIgAAIgAAIgYBkBCIPSWvGem3AiNcUA/xvLmh1igQAIgAAIgAAIgAAIiI0AhAGEgQkCfBlQMyy2Bg17QAAEQAAEQAAEQAAELCMAYWDCLW7CQwFmFq2mGOB/Y1mzQywQAAEQAAEQAAEQAAGxEYAwgDAwQYAvA2qGxdagYQ8IgAAIgAAIgAAIgIBlBCAMTLjFZj5Wb8KX1RQD/G8sa3aIBQIgAAIgAAIgAAIgIDYCNiT+gQAIgAAIgAAIgAAIgAAINHsCEAbNvgkAAAiAAAiAAAiAAAiAAAiQ5P8BzNN9iN3QdZgAAAAASUVORK5CYII=;" parent="1" vertex="1">
          <mxGeometry x="-58.62" y="750" width="797.25" height="180" as="geometry" />
        </mxCell>
        <mxCell id="-ubOXBx0BQUR7QONxQG7-18" style="edgeStyle=orthogonalEdgeStyle;rounded=0;orthogonalLoop=1;jettySize=auto;html=1;entryX=0.5;entryY=0;entryDx=0;entryDy=0;" parent="1" source="-ubOXBx0BQUR7QONxQG7-15" target="-ubOXBx0BQUR7QONxQG7-17" edge="1">
          <mxGeometry relative="1" as="geometry" />
        </mxCell>
        <mxCell id="-ubOXBx0BQUR7QONxQG7-15" value="3、查询其他订单" style="rounded=0;whiteSpace=wrap;html=1;fontSize=16;fillColor=#d5e8d4;strokeColor=#82b366;" parent="1" vertex="1">
          <mxGeometry x="250" y="1000" width="150" height="40" as="geometry" />
        </mxCell>
        <mxCell id="-ubOXBx0BQUR7QONxQG7-16" style="edgeStyle=orthogonalEdgeStyle;rounded=0;orthogonalLoop=1;jettySize=auto;html=1;entryX=0.58;entryY=-0.025;entryDx=0;entryDy=0;entryPerimeter=0;" parent="1" source="-ubOXBx0BQUR7QONxQG7-13" target="-ubOXBx0BQUR7QONxQG7-15" edge="1">
          <mxGeometry relative="1" as="geometry" />
        </mxCell>
        <mxCell id="-ubOXBx0BQUR7QONxQG7-19" style="edgeStyle=orthogonalEdgeStyle;rounded=0;orthogonalLoop=1;jettySize=auto;html=1;entryX=1;entryY=0.5;entryDx=0;entryDy=0;" parent="1" source="-ubOXBx0BQUR7QONxQG7-17" target="-ubOXBx0BQUR7QONxQG7-4" edge="1">
          <mxGeometry relative="1" as="geometry">
            <Array as="points">
              <mxPoint x="770" y="1130" />
              <mxPoint x="770" y="380" />
            </Array>
          </mxGeometry>
        </mxCell>
        <mxCell id="-ubOXBx0BQUR7QONxQG7-17" value="" style="shape=image;verticalLabelPosition=bottom;labelBackgroundColor=default;verticalAlign=top;aspect=fixed;imageAspect=0;image=data:image/png,iVBORw0KGgoAAAANSUhEUgAAAyQAAACVCAIAAAAmFqkeAAAgAElEQVR4Ae2dB1ATzf+4d5gM+Tkw8gfHfFEGGZSxMFgyiKhjL+ML1tfeRl97QcX+WgAVFUXFRgmiiKBgQ8UQepeAYijGgIIoiqKCBdBgwUPzn7vLJUdIDgSCwPtxbmS5u9377HN3uYfdvQ2SwT8gAASAABAAAkAACAABrRFAWisZCgYCQAAIAAEgAASAABCQgWzBRQAEgAAQAAJAAAgAAS0SANnSIlwoGggAASAABIAAEAACIFtwDQABIAAEgAAQAAJAQIsEQLa0CBeKBgJAAAgAASAABIAAyFZLXwM1uS6wAIEWJtDSVzkcDwgAASDwXyJQU5XLvIBstfTl0MJPWTgcEKjJdWnpqxyOBwSAABD4LxFgNq2aqlyQrZa+HODZDwRankBLX+VwPCAABIDAf4kAyFarO9st/6CFIwKBVncbQEBAAAgAgXZEAGSr1Z1MePADgZYn0OpuAwgICAABINCOCIBstbqT2fIPWjgiEGh1twEEBASAABBoRwRAthp0Mr9/qn739VeDdm3yTvDgBwItT6DJly0UAAS0SOB7VWlZdY0WD9CmigYabep0yYMF2WrAWSsumzBJYjyvJLW6ATs3eZeWf9DCEYFAky9bKAAIaI1Ame8wF47u4R3JP7R2iDZUMNBoQyeLFmqrkK1nQcnIOly+cCP/zaIF2EzJd9lFxwNKCn42qrjS8iUL8nqvL32AMWf/cmixxOzEJ+adqK3lgec5LNcdd/Df6WlZszz4316aemz7nMdi57qlfb+zzHuuxcBuekaczsMmDLvG/7fuPg1Zg0lWOpsj/XkLGrJzU/Z569YLUf/0OncaPHZI0I1tPyRqqqb2KNVpqy4s6T24h76hoeHA4QO9Lm763uC8agukr2TgTN+txdJY6CglLAraFLctagOgn0HisqRfh/Q0dc22sp9FoYX/s88lF47doz1i9fG9l3zwvlpRqHLvV5UvspMosisSDOWoL73519LJ09PNf6TmLfFdUciJpKgCbXQAlIfOce/e1ft4Vlto23p7dzbLaXaQtPF06yGpBRpNj7nxtWXMiUlFvNBZtu49O7sNHhnkGlraaKzivUc5BqEJjEdr4Eb6XUlP15O9VcjWp/zXgTeL8OWk0EA7svXoXCLiisK1e6/+lmxVXQnisNyc7+IniJ5uHtmSbO6KUP+wOrKFide6D9BBnczWONr57Bgxt5cuMrS6ltJQcaE/s+mPavr6Zk8TsmW8ynlqgNsU33+Hz7TQRfoW/nENihkTr/caqov0jRes+ctn95g1g/QRy3jf9Z3NFaQmzs1V/u+WgwlXXHPDQW2wRojTZz+enhopUF9f+hkkPifo1yE9Xc+HyJ/a/PlZZUjkB3w5W9Rds2zlhzzh2BVHqdz7P74nknkjP+xylHDmPT8u/7Vc9OFPVYg8Lp08Pf1no6r/6I8SxrCc1gpUpLb+fO1tj6aLS8uTbHrMWjmLPwuOenVlHZzoEH/WN8Vt/glz1v5loZ8bd6hmlC36XUlP1xNYM8jWr5qaZvtjJkts/F+RreqbwRyW+4FM/ATR09qVrWp/W0Nk4Hh+B/kUx5Km2uuiwdsdfvehXpPrQn9UNyJ7w7MQstUrKE1uV1ji1IkdkNWGlQ0pAQsZ3g2xF5zYSu6MZS7ZbIbY02Z/aabGrdYmW/JqSnaHTkXIYtQDxmrSzyDxOUG/Dunpej5E/vxm8evevytbtKCj3CWcFaX5tDV/NEknT0//0aAacPCWV4QGBPUHdiHEZU5QVeMP3fIkmx5z42urOefPgh2dnPptevJFvktlyGQXzrCkQs05GLY0o2zR70p6Gj96TY3KX3XKkJokW7+qimK9N4xeGVwuL/BXyb38ZUviTYeGo0GRFnPvOsd++qo8lgwrKzvhfMdylEB/WMyg9eKgvGpVS9MsW8x5f1ZWBLqnD50SZTg8xnqZ6ER61XfyuPmPrbh8ZR+lorNyVn4BLTCNySdvB1F9DRy73B2EGdF3lhZ9/Hd7Qd/peQMdXwY9kbovaXg3okxw1Zh1zJ3s+qCnyeflJ8GMTaO6mBl2MB/Qz/vKYmdzZLRwkUIvvif94zGzu2UnXX0DA5uxQy5cl3erYTfHWFGdR7V+Wo17TDx3i/f2QKjP5QxKXCRr3fogvdnzq4mtWOpUe4TsXVdEru3dj8PubNp1+qrZT7OUbUgVYdM2DDc2NehgMXCAX+iSPd1rdSNqigo3M8aSMYlTccD4pbadTfV1EFvPon+f3accpJQoqMqWZJ17X8SaPqda4oyJVzr3QOyx08qonWtyXfK3myCWxflkPOz37n0QMvdNUNR3d4arreOWBW+J/YuczBHqE3JPsXXNwd4ITZ9DKYvGqOrlXJPr8jV+waG/zXob6XbQ7zhgtK3/9W1UsQtWsdCSf/9e1FOv64AhMfGrTo427GxsstpjPXkWanJdGk2SOoRG2dJ0Bsmrmn4d0tP0a159uuLDbDvJ7PCqeP+i4bPzei58suhsxQvaGEfsvdTnyLPBs3LNpj8eu7vkcgFGv/ffZJet25Tfd5qEM/nRQIfnB1O+faMO8/LmU45dUajy0fXVY4WE415BbSd+qpWtZ6VDqJtX0Uv4P/tczuoylU9rNbL188uhJRKT3R8/0g7z9GohZ2JRMNHuVSYo4tgVBT/7fMTlidV0PGb3u9W06sqY60srVU2STp6eJnf9WfUwiL9w+DHLTvu5Nmc2nCx4Jf+sIzZXlye6X5lsecBMf1/fged3XHilAJWwxoWzLPn6Px49Tb2c4ytyPc9bGx8avzbnucaHQ+3QqsoiDwRP6ne4h9EBG9tzW88Ulckzvvbo58TRdf6fysI6dUrxGVtVdmOr/+ju+3v08FrDKxbuPcrpfCuFLP6FcArLadFVxfmW5R8+wWFdjZIfvORIH6pwlpPZRkWJVGyNL5kqQd1PRla/xHuPcfQCrtAbQJ8kTWA5zwokhpAQ4jIv6E3KgcDR3Vx79vZccuBxCf3aaDzJemj8LHnitZw3xGxfF9aenr08/3ERP6E/f9XVVL6u3pixyrST16b1PWhm4DpgcIBz0KsK+v2rsUYyGVHy7Asl8c7nh5u49urjtfxw/usGDr0rSZ/Bclp8TXltFLif5HQMjZc3nkpDJjtxJt99EBu1gOvW3dh9zMwIQRGt6M9vrjqeHWnmatGLt96/5K7rsVrdiEw1qq9k+l1JT8tksiz3SbNcgkWl9BMuh9xI2ZJrlrmentnItRdz5QW/ejbWlm+8MMv9SlFg6BMnxzhdbsx2EXUvf/uw++9wtp1wy7lC36C8FQsi0ZA7PkX0UyaTaZIt5rzV5QdmhaOhCYtOFfCC8x2XR7Os47ZkEEGVf7x85dmZK8/2OUYjbtK6y3gaX6I+Kj6EGC5BWUVVGNm5EFDUs65sffm0eZ6k6/yiXSHv/K+WzNlYNJMmW9Vfy0oqXqsu0ipFK3tcqBnr5PHHxOHpaVxNRIsdTRHqbLZ2o5339iETB5qPMFXKFiZatrOXDrtbz01b7Hm7Ri3n6iE9cy+BE55RuDx4z0Tenol7xhsgZOLggqfxxWPFe0IvHm83QahvaLZCL9Yf64/QpJlVxFZSiYYN7T1y6shTLnZ7p5sYIWSzcbVcxe4vXNMF6ZpYOG62x6Ma1POvHkrZYogKD4yQLY0lx0wa0wEZDxx4eM+UAFe7XeM76SLDrUHyzi9V2cpeuLYT6uu4ihSL3C0mSKfHuSRFjdYd6afUrxJXC4QsAlLlW8ksiv/rkS3NUdXLGcteuacP0uGYOWzEu2vn92Ejg96XiCAxCS5bFoNt3XYNt+cgq/5912z9a9NgPWTAFWTicTaFJFk1TEPLFqb5DJJ3Af06pKeZ7hFyGyFbdluLJrm9PXPrnbt7YQ87ydiLX+U3/7eq/cslJguLnELenQ99u2H9I87Up+de/pIX+/r91CmS3htenbz9IUTw7oBzfle7fBex/EZpvGxVVIXefh9w+72782OOXeHWW3gaXxKrVO59NbIlkxWEPOHYP7v4XlH1755rlfpFyFbhjN2Fq8+X+Ye+XeeQx7F/ckrxacZY30Z/MuChYOKDp0xY+0YtjuT5Ck86+vVnO9tuLaTGiWJi15PGum6T1xPdLgtPdme5LrhcSVYBF4heZ3a5px6Y7Mbp77XSIfHMVt9eLNcN0WqeC4paU4mq2OWHOUYnl7skB5wVejjwLFl7JvuQulWVdSUtwC8twDWwP8tpwnohnsaXnBw552rhRncO6+CkdfFneUnOU3hTRrs3WLaqckLvhwTdDwmKnm9cV7aaUjJVM3U/62H1OGEcy3lGgBysTCZ75uGp1C9CLyZNCrRbHO3re+fIMk8LlvO446XUc7ApJJlpfLgwfg+nq8/mI2mXgu76OQfadnCy/veZUlXU1VS+rp6Yq0VOJ7rouc/dmnDuzJ0jK717sfZN4VGyLWOokVy27OwD/loY6ctL2T/zmCnLxe5kaT3Dn8mwCpImsJxWhin9qeiEF4d1KUz+1wWhRCP9Foy57O4l9Nt/ZUJnJ+PB8Xly0N+THA5zOrjP2pxwjrjq5kykyxZzjZhLlsnon430tEwmexu3x76XAduoX13l+m3ZUmiWfo9xjj6xRVLqE1Mmk0beQ9xknxLqnNZUhvLyPNPlbYCVURm63KSTL6j9v5SuG8/vdvQdtTfxU4NsMef9lpypz41amUR9Zvyo2Dudr7OpmD6Urqljth6/4daRrW93io3t8g/kyWtU86JsvL2yZUsUNUjlTz1d5/+xzodQrYC16k3/BW8U8ebqIgPHAHlnXzV/3ECklK2PHn11kenxCNyuavBn8yKHrqjbsiUKh6jJddHUvdUQ2TKyn0E2FGGSLUHjWIreKOmp/jqo067Lu8gDVYePt9VRyhZzVKRsaSq5wsMKoW5esZQwiddccxx16txG8kCEbPU4dduxON6xMGzx2RnGbJN+N4iGK7z6cRNH6qBRuzfIaQjGWyPWXA95M1JTZIs5KvJwmjh/Pt2fjTrtplhhwpmzOsq7PknZGr5zfU2uy701RmjE5LcS5x8XBhshk+MROIGmkJRD0CBbDGeQfgU2Jk3IVg/Xcury/nHVKZez9G0eUdanxBdd7Qp5r6h7/+vnrfMk/XjyG7Qq4QXHrvDcW+qwNV/Dgt6eEclv58bLFlWe+jFb1FaZTKZWtmSl7ybZSybfoD5VistG2+UuT5A/JAjZyluRSD0HPlUsmSqxOSdvf2Oub6M/GWQy2bc8RwOnPqtyKV2sebjvBEc3KJRE+eWhg56TrcsLqqmr6tYcV07/2IdEXXGBGHWnSCaTiSJtWOeC3slkvwp3d3Yad6r2ZzANjDJZ8yZ0d/iJGOqwsm+357lwBifUamjS1PlVnbuhg1P/zVQjS03paVunBsuWIoTiQxZ1ZKt5SlYcQpmoj1W5/xhnztjUYnmOMq9BTqbzKbckxKXHghzK06tuzdnHsYzOIXduCkllgOpoSHOWs5zseYrG2J/5oXFHvAreKHNpTjHHXJmzooPTX6feUb5YnbL+MMc8/F5DakSU3H1uVhm5868PZ0c7c7hxuZpjUW5piGx1vniTqvGHSxdMWR5HyMv9q3itrtMgZ6p1vabUa6izsmWLuUYyQrY0layMT1PqW4kwYMdUS0MV5fo92XoduWO0uZ5BL/stfonFVEeq4ohYapY+N+ofvlSqaL1RbJPJsr3j0IjMW6VfSuTLp9Or+Gj9c8X9i++rQbaY8xYFpSBu+hWaW5Xmv43N+kxbIdOGbBVdL+TYveBTn2wyWZXLHKVsVb7LSCxIUV1e1d+CWpPrQrS4WF4VUfIhWbqVo5Qt0brOyNA6NB6XD2JZe3I4QmOnfaB1pWmSgIbIlkJcanJdchyNEYsbQQy0L9jRDSGr60TrC245RFSKtxGZoyJlS1PJ388M1EcdF7uvq6gzor8m14WQLWWnKMuk14kr20mrIMLYfH60Duo3Lp+oPl5xvX43qX7SpsgWc1TMsoWHwbaOpKqDSRw9ByGdSTOlEmdStsbvcazJdXngaIzG/10uccZChpsiY3c+fsabQpJZthjOIO1ObVSSkC2lmshkuUEFnIkvyRZ/8YV8zoyXgrLq1/Llm+92CWf3R7JpAMt4ZWb3eG3Md2WrLy2EPyZbsh/BO3M5a8ueEcHgxjb1RQTVm0nI1tMA+RNEJpPh7V7GbhWkmjHXt9GfDDKZrOjOxNqdbrLSksS4omfkZx2uO3scYymnlclKfHgc3UthRF8SLhB2aa9lMtnD+BGswGt4a9jz/WZOI44qNJeGXW2yprqiVN5aH7/ZnWN0M4m+mybZIjoKl4RS1iqTif51ax7Zap6S6XWQp+tl9S7wfFeWpyfZH41XfN9qPtWEROjFFD/lgw1v99INCVcCkMkaR1IZqTrZwh5vMXCyWiKiN4AoczCnmGPOjhnM2u8YpuyoKfA8y2EFXFFWUXONiJIn+VJ/hMlk4j1HOB2uxzHHQ25tiGwplVcmE8cNZ7k4xhDX/9MUO5bT8ptK6PhVp3gbsZ4aEbKlqeSGRI7vU/3m7kXn6f2McOXyyfwmk/2ebGXus9LvPccno4z6g672cX9UnFwSiazDdQZHWc5Nnb1X4pdRpajsvRMxasZOrS6q9WeVBtlizlsQkIS4GbcUR6odFPmbNmSrzl/Mv/U2orooiXU1uS51lAifZEExZittlaFSPRQpooFEoSBNkS17102Kcj7cnn/t+NIXD3EJUCmTPry6JteFOSpStjSVjOWsPm6rhxDS0dO37N9j1uwRvhccv1LuSMiW6Q7PRXH+iyI9px2aaqyvb34iTN7Ahg/M8uirhzgHbzpjkrVulshoxtzPVN6myBZzVMyyhdMwsE2kwsAkW86OQGQjVr2y1RSSzLLFcAY1Xo4N3ECO2RIob8LKok9hiVUlxAefyC+fPmqKTHP+/SD/2//HV96mR/+zzzWe8miww7Mlx95cyFaOf/pzsiWrSHzRza7AA7etb8dXSXq4VypGwJBjtkKUT5tq3w0Szt5y8i/QeurbQKTqdqvz+Km1U0YEl5pNhlz//vw5DtmIJZPVKxC1ilL95UfRtVuTzFxqjc1SPLrInTXJVp2Y8aHKDR2zpYhDnV40T8mKQygT9bOqyFnR0WnY4de/ZDJ8IFHnq9GKxgdCL+hTP7z09OGwgqhhh00gqQxQHQ1ZTd4pXk+8O2Vvn76e0+eEup0trDVWTJm9Too55owIrppeGqJxFC+JsUZ1Sq49Jq9OJPQVdc6vmm7EyXeVf/FUvI0PfXCfbECvczXWGiBfT40I2dJUMj3CetM/Xsc5je7Knh5U/ruyVSkO2T6ljwG704A5ey6rHQP2ozpfVBJ8tWD/0ex5C6NZ3OgNQrmY4cI08p733dIE+pKrtDE8bgbZ0py3dcpWvSMzNJ0nfIj3v6b4yCpqZDomWbGLNmYLfxgbWXn64/KhXK470t+wU3msKuSpjsapGbNFVyJFxgbJluao6soWvWS8gSpna17QnIt7J+xbZjPX2oCFDNaflU8Apjpm6+HGM8NZOoPsihQqI5q3zAD1XrO8OmxsP6S37qxypoOmyBZzVGT8mjg3VbaaQBIPW0M3okq0dF3WdDU2dH0d2aJnFPnlc2a+OJv5OYW+5CuNSvYDeyKuuM4vO8J7tXzD4y52jxVjPf+gbMm+Va6fLhl0rupnUelwu0fbRMoW+3pli6G+jf5kkMlkdR4/dMwyrcnWr9yEsWwny4kRIYJ8srX+wj+HlO0EZBB1Hm/y2AqT7VhOK24p/0DPcW74mC1F/dTpRfOUrDiEMlG/bMmq41a4ciwjs36+OcF16rkhn2rXooaE0+bZostWk0gqA1RHA99aU57/LCok3edA+Nb5Pv3YTv0c8+kdPMoCVFJ1lIgeM3FdHVjuo9JR84o0uXpqVKdkLcoWvVJ1rkZV2WJprJGM7Eakyxa95Aamq9/cv+Qyu38ndlfbf9xji3/8rmwRh/leIrxAKJdRvxm7L917rfxjViWKnxUHpvM7uLwme3rxrsCh2YnEX7oqOyp/1SBbzHnJbsTLtOk3SsQlt9IqqVGjePHaaNl6do2pG7HRIzNqcl3Kj1oi1PWogOpGTJ/+N0vZsoV3M+nbxBOtTSrKovhV5bGqWN+wtxGVLVuKjJQCMnYjao6qXtmiHwgTr3btjTrMmkcOzFeRrZpcl6wNHMQeGK2QLcmu+EUdkclQX0djxLFNypFzU/c24i7hbu6ydfPeEHnfHOyFkMX5OxTn2lJLDwk3mNpRkVs1ccbXN6UbsWkkNckWIfHqz6DyHmxcilG28G61aa/uMN/7iuP+/Hp0hcT0aCX5ufEugnjvT9mGVHVgoaTHadrdLpPJ1L6NSBVYpwWa2kD9VD9mC9/6647nY86C1xeCCjhzStKUuiCrvxtRc30b/clAdSMuvKJoYZP9KnkhCMvPJz/r8AeMVroRX3nxOCxff8VwXJks28m9obL1KWspy2nMcUUDxJfQGc7Klq2yjHksp1mBSiWopWLUKZLJ1OlF85SsPIYi1QDZklUn3erLct97NnYky21nKjWcCR8ijU9qqqkbsUkkFfGppaHcSqZ+PTp4gqN/PZYWmuouit8ZY5bhnW77tiWpv3/rqVFTZKthbyMqLixFbfAEIeKM3Ygaa9RU2fqKD9maZmlIaNatvArqBPxeNyKtNgrlMrTaEkeOZHh5W2Qz+4FiWINMJvWYx9fdKW/JrIi8p8uN25VDHbm6nOecse423Yhkskd5vbiC9ULVs8qclxwgvyKRsr4f5S7T+KzNxdT4CjxqQsjuhSo/pGhVaUhS7QD5lNoD5IvLxtk1z5gtLHbSGF3UZdiosOsO+TcXnp7SzayTUrY+eFjpok47guXtN1j2Su+ZfR0Or6XLQeEuM4Qsr1GjvhSb5PNs+deaZ2vI9nXkDsxKJD3Vr9YAecH4QUg5QJ45KuaSnx/uP7CvbTg10AqTrDvaH+lSs2GpyBb20JE3nIUsx+ZRslWT61J9eYQF0jPuhLovW6KYQAE3JGKerfnHlfNsbeyG2H/PIVsBsYtDu6AOi0/Jt1YLxtsiNNYFH01Vk+vCHBW5jybOnz0HsGkvE5AD5Mk3KOvtRmwKSfl51NCyxXAGG3ITMO3DKFuVCS+62uW75lItQz+++B95sTVa3hhQEl08Zk1JrPJ2/e7lIOl6SD7+SSZ+3ccub+0d+cj0muKy8XaSaSqDBvApWnK3iVQ/N8iAn4c+5dg9D1M2PajWQ7NsyWoevRlo96j3LAmXJ6U+ufDshGzlraw9QH7QeXkdmOvblDFb5AD5lcoB8uI9xznsizfIA395uE7Pyda59gD5AbESosINEQiZ7Mdj/yvTRp3fE6181U4mk30I8OewTp/MpwBXl3oOd1KVLWI82VLa2CyK88cL4104Jn7ugleFT14neQfbdT+olC1Z0R4TJ4slYrlN15R5DXXiTBDSvI4sRp1syZpesvr6NohVzYuDvZx6dz3IsQi/R782CL3oviCHmhqCGCDfJyqbqEfTSFJE1crWS9Fa29M7I5XXedFxL06Hy7SufbzLT+35JQVRU8yyipzlHZwG7X5OFY2JeddWrhc9aUiNGiRbGqIi59naWED10BLzbA1PfirHUKezT4FHJpN9Fa+pNUC+zGsI7YplrFGTZKsoeH7PjqqaRQbWaNkisxPK5R4pH+ial9dvIN9s+YNj+NQPhft3JhpyBbPCKcH59n7H1HA0KnkNr/BM8ON1/0Qjm4SDEvpVKpN9K1s/jm8wN/NEKDGh/M2iFPKmY85bXb5/Vjgahk/94BuS77gihmUdt+0+5V5EpD+yxOZcgc2ufB459UNiJXXh0E+Qavrd4wr5FNXE1A/TfYnpqiM/xL8gHhtfPm2aJ+m6oGg3PvXD63mOzyYtVMqWalkN/h1XBMmuhwf79tElB2R1GL154kYzpWxhoqXbe+qgTt1WO9rxnMY4DOqIdLvsv6Ycw1ST6/Lt4lBzxBo4faw3OfWD9xr55A7EDPI6xKQS+AzyvYkZ5BVNO/LZsNS3bGH3F6wmpn7YuMXeZ/vQyTbdR3ZTyhZzVMyy9f366L4sZDbU9gg+9YP9vmldDRF7prs8DEK2yBnkp551Hus40oiNOkxzc6R/Yw/2cM3+3gghI+er8pc05dohXu81RBfpd1m45i8fJ3wGeR2Wset1OStMvP70YF3U0WTpBjvv7UMnmuqgLlxBuryhizkqsnyNnHNWuVrp6HDM8akfdo5YYMlGhn0uE29Q1itbTSHJPIM8wxls8OWpYUdG2ZJ9q9q7TMKZVbgp6F3AzdKtGx9zJhUcy5e7F1bwdthESf+tJZ7E1A9HDj3pbpf3Txx1//787rcpl/P3k3WBxAQrC3M5817G127Ykn37vG2epLvDSx+B/A4V0t7B+vHw9QC73DHupf7k1A/Cryr3PoNsyX59PbZCwrHLP0TO0ULVnmzZmuFUuDaAmvph4hMvxavWjPWlymjUT0x84JQJyxWf+uEMPvXDALaz7fZCCkeN5OCpLrpuU/CpH+4cWnSyO2v/YmIkvKyhY7aeu3Yj5rUih9IrQizOmGvo1K1/kOvptPOnYzaO9pppV+fLT34U7e3hZGp75SSPnPohV9G19j0vY6UVMd6L5WQxLt5/yxGabP0q8vbtxnIdtzzWj5fkMsW9K+vwBsUAqLLiMHzeB/nUDyZ2AiJ9PySmlHysNL5kedXU17dBsiX79djtBIflZLO3mPorgiiU0Ivxo8/+tST6jG/qkeXE1A8eb+VPuqaQZKaBvTo6wJnT3W+XBz71w7kDl8d2cuo+O7NUcRLxhPr6krKlMWZZtWinRxfWQfu1cWf9hB7reX1ZLqPcXspfDWOuUYNkS0NUMmIGeV1i0hDFDPI3FI2gjLIl+564lpj6YUuCv2/Snmm8aWPobbGMNWpKN2Je0E53WmsWHX4TZYteFJ6M7roAACAASURBVN5j/DQhb/7CuK5DwpFNhPl04brg9++oP4bwOWLKyo7tvtN7pEB/RMzANdm8zK+1LlKisI/iwmULYzvZ8MnR9MsT5PmZ8/6sLL/gnj5kMj6pKZc+qakywOqMINGQCQIWOcepQ5Hy9QjlPqqpbH81A3v/Z587m/prQVr0ccf2gr5/5w1Y9+Lso8+/892IqsdS/E4+xWtyXaqE67NClmbGbq+WLN9pgjotok1qmrjoyHTz3ka6+oaG1iNtvIM20ZtzCF3blr6r/2ATNosUttFT31HtQN/vLPOaa2FtqmfI6TR0wrCrtO9GZFaimlyXirBpjsONTTviU616Xl6k8t2I3zVHxVwyJtlV4D1qnnXnrno6SLeDee8eDk5L31L9pIRsyV8EwEfQD+izw331R2or1Zbz7xV7Fuo56kHt9XijV9rKgCW9bbvj341oPXygZ+3vRqwWrjizoOdAnEbnERNH3Y5Wjvdijoo6rkbO3+IXHv7brJehLlsPn9T0fGitSU0Z3kbEJzVtNMn6vhtR0xlUXH6NTDDLlkyGvf/s6f500Mxcsxn5o3e88hdX0+79n0XCtys25FtOlXAm5Q1Y8Wzrzar3tM+Nn5+qAk8VjVn4qPuc/Imub6Nf07JS4ZY/erduQ77FJPnXHdZuHcdEocUT5ud1IeY45ez6oOyTJLIzyZas5qZrLmfZW2qCF/nxCNkqulz46cDuAsu/8UlNj9yjDUGrp75U0I36+bNKHMhfMOxYn077BwysM6npj4rkI1cm99nfTW+f1cDzOwNLFC1UDROIr8LdXn06u88/pzIT0q936Xccx3tYGe3r089vS2DJ/QMeqi1bMllFxh2HYe7d2YSuqUxz863q+YPnopyPn34SXZCcW8S3whIEflY9OHdzjq17z05uQ0Zfchd8UMqw2i5XXef/0cfTNK5kOXv19W0YK1nV9Ysm+FwDtGuV6kacHfAydhc+jSc+uWitSU2bQLI+Gt+fStwX+Aw23deF5WLR48TM9cL79OcvXmX19ZVPPaoxZpkMq0z1uDrV8kA3g/3cQf7beM9KlTchY40aJFsaosKdgfhuxEH4tWE7QuW7EZllSyb7/ObqxrMjzFx79PBa7fMiVeW7EZlqVF/Jjbpxf/NtxMYdA3L9FgGFbCkS2N0ZM1nIdltjvlRHUUj7TmBpM2aw0cDNa9p3NbVXu9+6RP9DO38qXzxZMiaYap6nai6XLRVro7bCTyYCX2/OduEMTSI7oZh2/O1t2itZbShVN2bt4djGt5rveVIbJKxsNQSat2Wr1VSrLQdCPlCx5GXBxLcIn987bsNgfcTudpKYI157j9s2XfJrt14sZHIiUjk0vk1Xp+WDb8t3jBZjL4ss6mL3hFdnBBEpW7SpH7QYQ3so+pPoCtEbGJju6ehrydpj76mYf7yJ1dNeyfUFVnZ/Pttp/OlacxfVlwe2/4cJgGy1upNPPmixi0ONia4zHb2OVoMGHLuw8TvVD9jyT+JWfkRMspE3BKFBds8BETG0vxHnq9XdBq0ioOrzWyScje/quBY5QL7oPyJbwmfJX6rxQcpfqr80Ml20pwv5FYf7LPvz1rk/epb8NKmpZRLxpAqXKkq2ODnD/dEzrGFxNvn6envmjDGLd/ZlkwuCAv4jBEC2Wt2JbsSTErIAgSYSaHW3AQTUagi8r3onfJbcnv5vNWghkP8QAZCtVneym/jUhOxAoBEEWt1tAAG1JgKNb9NqWDtTC5ffmtBCLP8VAiBbre5MN+JJCVmAQBMJtLrbAAICAkAACLQjAiBbre5kNvGpCdmBQCMItLrbAAICAkAACLQjAiBbre5kNuJJCVmAQBMJtLrbAAICAkAACLQjAvXL1vsPlfXuBDsAASAABIAAEAACQAAINI4AAtlqHDjIBQSAABAAAkAACACBhhAA2cptCCbYBwgAASAABIAAEAACjSMAsgWyBQSAABAAAkAACAABLRIA2dIi3Mb5L+QCAkAACAABIAAE2hMBkC2QLSAABIAAEAACQAAIaJEAyJYW4bYnK4e6AAEgAASAABAAAo0jALIFsgUEgAAQAAJAAAgAAS0SaNuy9eRcNLIOly9cwTahpHHKyZDrbVraMd97jz81f8kMB4VNQAAIAAEgAASAQLsh0LZlqzznXsDlNHw5EmugHdmS+EQhbnxYJciWFpW/3dxOUBEgAASAABAAAnUJtG3ZUtQHEyYZt0rZ+hQ8lc2eFFoGrgauBgSAABAAAkDgP0qgVcgWJn1YnJS6dFGk6dBwNEhgMTtuNz9LKlUKyvfn9z12RFuODNcfGmGzJumCSPyDtrWmKpdBtpjzVr/ODDgYN2SSwHCYgPtPvEdCThVRMpZzx4rLV/ZRKjorZ9x5XPvQCuFTmwDZUosFVgIBIAAEgAAQ+O8QaB2ylS8cY8s3npdwODAt4FLqLocIXa5ga+pD8jRgH0Q7p4az/4rd5CPknUtZPk+AhsR45SpVjEG2mPNi5SLXGXw0NGrh0VSfgNQNSwQs64hNyWK8wFei4EAhL1C4x0GAuFEOF/A0vtwSva9PtjCpSBLln/8aL6fq8t9s9rSbHyWYVPxBHJCQJfrvXFtQUyAABIAAEAACQKCmKrdVyFbFzTjEjfZ6IvcnrDLr2umUUwk55Bn6eCtelxt1/BG19V2Gwzh+N7da1qKpZYs5b1V0gj5XsCIKtyJcsCoyXabxdTakV9B0qhFjtrD3vBWd2exOFpPXO8WcmWdsMi/wtpOjfc9ObHbnpT70Fju4BIEAEAACQAAIAIF2T6BVyNb3WFx6Fl/PrlD30p/oRAQanhBalFMsX7JOLuejNWkfaEqkSbaY8xaei0bcuJBSZSNZSXZGlDCrqbIlFX8UBwS4zLbrx9Fjs//v//6PrccZMH6W6xn/AqK5q91fVVBBIAAEgAAQAAJAQEGgVcgWVpF5fJEAWYfrDBZYzo6ZtTvZNznnK+VSae74JtVlhfAttQNDNyJz3se++JuGoR+VsqXgokg0omVLkRd7H3pgqGGnTkbD9lz9TItWsQMkgAAQAAJAAAgAgXZPoFXIFtGFJ85LvXcxKHWfW+LceQIWV7A+Xt67hwvTiDjPxIw4+iLK+ULTF00tW8x5tSpbmFQYscqCbfFPRNjSnmzztbdS2/3FBBUEAkAACAABIAAE6hJoLbJFjwz7lOk6jd9h571qQqfwrsChifGfmdqfNMkWc16yGzH4LTUaTCopvnc3ND6rnKZxjW7ZKg2d1Z3NmReUhEnvXJtrzDb7O+w5UxXoBCANBIAAEAACQAAItBsCrUK2nl+LHzgzKZyajAqTZh+dw9fddpdsu/pwM06XG7EjnXo5sVzkvSPe4VoW/RxgmSm9uOHr4lVthjkvOUB+eaRigLzIaQqf5ZheSZMtQsjir71XLZl+9LppTHo3bnPfnrOOviKKwgqPzjLrvfG2sO6esAYIAAEgAASAABBo3wRahWx9F6X0Hcg3W5J0BJ/6QbhvW5QhN3xm6AMSPfZBtH1yOBoZvfq0kBdwx2GhANlE7b8vdy9qn/vrxvINZid4XCImlL+clliA6xFzXqxctI+a+oF3IXXD0giWdcSWFLl7kSV/EyaZc8MHbkv1Jqd+iMwiJ+Kq97LApJmfaYpW8Saj3iywAxAAAkAACAABIND+CLQK2cKkDwsiUubNi+g6JBzZCMynxToEiN7S+g2/F90/sj2m94hw/eEC65WJ3sIHZA8j/XyU3RMunRfRyUY+E+myCHlbFHPe6tei8wfjBk8UGA6LGECb1FRRMiYVp5+LHzw+nEXOcbo67R2t3UuxGySAABAAAkAACAABIKCWQKuQLbWRwUogAASAABAAAkAACLQDAiBb/9HvaWoH1y5UAQgAASAABIBAmyAAsgWyBQSAABAAAkAACAABLRIA2dIi3Dah2xAkEAACQAAIAAEgoFUCIFsgW0AACAABIAAEgAAQ0CIBkC0twtWqJkPhQAAIAAEgAASAQJsgALIFsgUEgAAQAAJAAAgAAS0SANnSItw2odsQJBAAAkAACAABIKBVAiBbIFtAAAgAASAABIAAENAiAZAtLcLVqiZD4UAACAABIAAEgECbIACyBbIFBIAAEAACQAAIAAEtEgDZ0iLcNqHbECQQAAJAAAgAASCgVQIgWyBbQAAIAAEgAASAABDQIgGQLS3C1aomQ+FAAAgAASAABIBAmyAAsgWyBQSAABAAAkAACAABLRIA2dIi3Dah2xAkEAACQAAIAAEgoFUCrUi2MOnDpxHJk6cK9K35yDoccePDKiVarXxDCn+b4HbssPfjT38sEkwa6twT6a/ya0i0sA8QAAJAAAgAASDQ2gi0Jtl6njbJlm/hkMILSQu4nBZw+f6zz39McRTnSXLACqGpYRV/LBKQLcW5gAQQAAJAAAgAgbZIoBXJ1o/4RD1uxIHsP6Y1as8fyJZaLLASCAABIAAEgAAQaCCBViRb3yPiETfS/aGqbGEv0+y5fPuLmZHH4vqNDu/8V9T0I3efflDu9vVpxqHt0b1HhHcYKhiwKtFfJCYrj0kzVtnwl/ilL5os6Do3KaYo6+QqQecx0atvZldLldnVksIyHK2Qun/Wmx/Xl5cs8Gv+2UOLBvXurNfBwHjAxIX+wnTFgbDnbvYI2Xtfj9w5tl+Xjp27W03ffvrpe2VIFaLDGyb0MTU0tBg23S8taE+vWt2I358GeiwZbMnR0zc0sZm85IIw/QcVUr0lK2KABBAAAkAACAABINAyBP68bGGfxKVFOcVFOUUhcYgbuSsJTxPLg8+EQ5CyNWxJ3MityacupO7dFmXE5dt4ZpLChJWL9vzN1xkd7eAp9DmbPP/vcDQ07tJzXFxI2bL4J8nNP9l+NN9qTvwannDTYgEaGi+guZpa0NiLK8Gn9/BO79kztStC/R1O4ml8Cbr2njIbtRnJldjH0D39dXS6DHLYt9vnyJr5/fWR4dhLT+U6RSrRsLFjRy5wOHVy195F/Y2Qjs2+m/IalZ5bY4p0zYY7HnDyPrx04oiRf/VWyhb27vLOvix2j1GbDjrxjq1fPsQIdbT1yqH8ktA4TSUzBAybgAAQAAJAAAgAAS0RaAWyVZo+nUuMiLcOx8fFKxZqgDwpW0aOd8tI95KKg9aGo8kpD4hfPwvi2dyI3fcekoCwV+mzhvKtTmUqZGv4ueyaqtx7RyPQCuFbqeRHcqIRN+r4I2UzEjPZxnUjfr4yjY26707GD41H8sJjlgGycgmV/0ookdEsD6pGwqApbNRnPVkj6eWpOsh8V5I8b3X2NlsdpWx9DJqoiwYcF1N2Vebv0A1123SxISUz1xS2AgEgAASAABAAAtog0Apkq/JBVmJGXGJGzOlYxI1YFYKniSXzNTFAnpStUefl8lFTlZtzOhLZJEQQbwhKfKLQoIRI6m1BTJrjuZCvszFdKpWQLVvjA3NqqnIfnI5EDunlUgl2N9lUXWelJriNky08V4dZtKjiPUcgnTnHpaQvErI16niM4qA5e3sh3ZlkjQqOWCNkf53qVcSkwVu7KmVL5NQDdZoVWhBfLF/4JycgNPnQhwaUrDgcJIAAEAACQAAIAIEWI/DnZUtR1XrGbF16oNjzgzjjWpjoBaFiae4CNDQxkVANojVLfHYFn2zE+oOylbbNBBkupEWVevYvhP5yfUtTInufZGWNRGeuXbxE1khF71TeRsRLrvuvYSUrDgcJIAAEgAAQAAJAoMUItEnZotNpH7JFr1H9stXZ3lPgH0dfhPFfNGgcvWRIAwEgAASAABAAAi1PoM3LVtvtRqS3bNFPfL47t55uRIP58RpmIJO/jUhrM6OXDGkgAASAABAAAkCg5Qm0edkiB8jvultrgHxf2gD5Jo7ZKjw2ECG7a2UNHVBPnsLPV/9mo+6KQe7kAPm+e26QW5mVSBoyRWWA/CCkHLP1IcheF5nvSMTfAMC7TT9e914yyeFceENKJveB/4EAEAACQAAIAIGWJNDmZQuryHSdEa4zOgaf+uFcyoLp4WhY3OUXyqkfmihb3+KXmyP2wEWbvcmpH0L5VdT4MIbzhJXfcLVm6XS1xad+OLp2wQB9ZDT+8rNaUz9oatnCSs+uNkW65sM3HnT2Obxs8vDBI3soZQt7F7zdkoU4A1fv3c074egwwhixLfenUq89kjN4QcsWYaIMJwg2AQEgAASAABBoMQJtXrZqqnK/Pcs4vD261/Bw9hDBgFVJ5zOpaRGISU2bKFuYND392LTBZh1Z5LD0SW7v8PccM8ueKN4HpCeSy8vlRvUt/9zhRYN6derA7sgZMHHR+bS7ipPK3LJVU5VbITrsOKG3qYGB+eApnskBKt+N+L0w4Mjiwb07d9DvZGJtN987LkkxR2u9JStigAQQAAJAAAgAASDQMgRakWy1TIWb5SiY1G+Vbt13AhFCvd0zf6/DsVnigUKAABAAAkAACACBVksAZAsf+fS7CyYVPoys/T6g/N3A4MJSkK3f5vm7/GF/IAAEgAAQAAJtiADIFpgBEAACQAAIAAEgAAS0SABkS4tw25B0Q6hAAAgAASAABICAlgiAbIFsAQEgAASAABAAAkBAiwRAtrQIV0uCDMUCASAABIAAEAACbYgAyBbIFhAAAkAACAABIAAEtEgAZEuLcNuQdEOoQAAIAAEgAASAgJYIgGyBbAEBIAAEgAAQAAJAQIsEQLa0CFdLggzFAgEgAASAABAAAm2IAMgWyBYQAAJAAAgAASAABLRIAGRLi3DbkHRDqEAACAABIAAEgICWCIBsgWwBASAABIAAEAACQECLBEC2tAhXS4IMxQIBIAAEgAAQAAJtiADIFshWcxL4XpJZWdYmv4obk4qlr5JLSrK1ffdWlwlfPhN+qmiTlLQNB8oHAkAACLRLAiBbzaka7fISaXilsAcCv86eh3qFPnnflkwCk+bkX1o6oXsHhFD3bSENr2/j9iy/YIcQ0jHsMe1fXnFlWwLVuPpCLiAABIAAEGgDslVyKRZxYwNe/rceS5VJMXeOJZZ+aku1xvJjr1h6e4zmv2RstsGkaXH9Pd3XJ7XM7fchYAIa4/JKipPMd+ey5p+qItKKo2O5ziN0kZm9Q1Do2ZQH6Yr1DAksbX0vpPpvyplUtVkwaahzT6S/yo/c+v3pjdiwU74O1gaIPTNAqDYLrAQCQAAIAIH2RABkq5W2bL1x93czuJzLaC1t9EJsYdm6t8Os8/qAmqpcTCoOX9qB6xqmwg0TLNRHpi6pv+G12Itr1864BZw5sGEIQl3H78fTbpHZmSolk7+qyJZ8ZbnnQoRsDvLVZoGVQAAIAAEg0J4IgGyBbLU0gZaULUx6N2gKmuCZQMhW5NFBrH+uZKncwFjKGnNkuDnmN2SLLAGTikMXINRn/YPaTWWq5ddu2ZLnfew8AqF5QSKVneFXIAAEgAAQaH8E/rxsfQyNQ2OS0qQSTCr2X8lHI5Pu4OmHgt3h3Q7hjyKyG9E/K2PX6sguQwW95sQdjM/5Rnu8fX9+32NHtOXIcP2hETZrki6IxD+ordjLNHsu3/5iZuSxuH6jwzv/FTX9yN2nH5SPVYa89Z7sHyVpoq2XznJ5R7r58uyvpkaKvlPH/eAZ6GZwKeet/ECY9F6irafbikSyTEz68GOM4MaEsydMvNw4PqdHXoq9eo+sESa67WPgeej/eaksbsP4pVTh1fnJScsveJl7u5vweNNDRWk5VLFJYZ08b3jEhg70OT4qNP9JunD6mWM9z4ddul+tyPvsTuqqQG9zb3fTM74zQzPTc5SsXsQEGXgG+aY9drno08PnmJV/yO749w0bfYXdDfOiwnYz8BZEKQmTsVVlxgimnDthyjs99krG3dT4AVrvRsSk4oqi+OICX0dz/RVB8cUF8cX57vM7dN8hiH9ZUsu3MMJ7FlxS9Z7qV6EBjuOG9OYYGplwx8zwEMSp9j9qlq0K0eENE/qYGhpaDJvulxa0p5eyG5EEUi1YYIDMXdNVQZFb4X8gAASAABBoTwT+vGxhGcnm3LjLZRJMKto2VmAyOvbcCwkmzfFezJ8U8oCSregJq6PmHxV6nU2ePjEc2UR7SCiP+SDaOTWc/VfsJh8h71zK8nkCNCTGK5faSsjWsCVxI7cmn7qQundblBGXb+OZScoHxpiX+TRjH9Pih3m5mfhfdxbc9QwXTPQ9ZOgniJV7Tz2ylRcVYOzpMeZask+06IwgZrbfYYMzkfFivPWlWJjjE3nPJzJ+tq+bwXm+F57Gl+A0KSFM+HEHex7qcYHvFnH3+K1rg73dTC9mP8Pri0lx2TptF5p46maQhaf3yJDbRyIEf/HcTK8+IpwJeyeMHuR1uG+QwD3i7smwm6N5bl0D08UUK0K2zk286L80TOgliF9+/qiBp69bukLUGIBgxWli/xiRf4xo78VjdWQLK02+3cvzcB/8uOnHbgSNDwriNlS2vpQkv3ySoLo8F9UbFSaNPTlUdVgV+bux4wV6XbAS96kITfa9U2vlx1BXa11kYLlwxw6fE5s3jO3K0um+KepurX00yBZWem6NKdI1G+54wMn78NKJI0b+1VtVtt6eGY3QiIDncvj0YiENBIAAEAAC7YxAK5CtkrRJ3MjDYglWkjZpRPzC1YKtQly8No/GE5Rshc8OxcWrpir3R75whDW/32l548THW/G63KjjjyhjeJfhMI7fzU3eSkG2bBk53i0jTUUqDlobjiankP0+zHmZz/S3sKvuBrxbt6hWpfK0OFvPQ/PkjR/MslV1KdjN4EL6Yyrminvig2HCyFotK5rGbH29fuWwgV/sHdzMCDmLu2Li6b0/TSFb507cr6nKfeHs5zY1qlIq+REbetTgfCphVFXBIYepNL5/WTK/t+fJ7fJh3RghW0cXxH+Ws8rOmuXlZh1WQrWKMQORxyMMO1VHtr5du3zIwC8mRR5z9QOBn2FDZev+7p7/V+cfe+rhd/VFhUkzi1L8405O6WIw/rjAP07gH71vlG6PGecF/knZQkz68NMLvLnrueR20pHxHHb/oyJ5eGRFqm7M0kedV4TKx8tj5aEu/ZDOjKMVtONq6kaUXp6qg8x3JclnkajO3maroypbX1McrFidph+5IJYQrW5P01WazRpCG/YBAkAACACBNkGgFciWVLR5FH9VjARLTzb9R3jxgMD+0gPsTfpUbszZFwrZivZ5SqmJVORkx9fdlUHyFZ2IQMMTQotyiuVL1snlfLQm7QNpDETL1qjzysmTck5HIpuECOItP+a8zOfv3ckAekdhTVVuRUZyfkIG+chklq3q8GvuBrzQwIwqzS8bapItfD3n6mMqIyYVpY33PLQo/hve94q3bAX6EH2vB8+5zY6tkkqwlFsnDM4lZ+P0Xu7zczO7+vCJqFy+3BVO8XSbGSNvMyNk6/xp3NXIpeTgWbdOymMp1jMkMHWyVXY8wM0gWEz1SGJSYaRFQ2Xro/hSfMR51SUtgd6PzBDPG9/RyP4A2QP7cL+l/hKfr+SFIRWFzCDbuVhdBk3j3bmnUkjhsYEIjQ95I7/qcOm/ezYqPqIhslVwxBoh++vK+gZv7aoqW5hUXBg03UqPanszWZZG0ziVYOBXIAAEgAAQaNMEWoNsPeAt4Y+9kFN6JbbT3ozngTFdD4qwrJTew5KSiMePytQPmDTr4DQ+2i5/Oqa5C5B1uOqyQviWJlv2l+StYjVVuR/EGdfCRC8+4w9R5rzM57X02Hk3g5CHtOFf9P2ZZQsrT0+d4IOPyurC8x4ZdGXtrXuxqv1immTr+S5fN9PQQurBjEmz7k/1JBux6pWt57t8VYaCHfp/XmRevKGLHLN1RvlKnTQrSRyS+pFgRa8dQ1qtbKnUpWUGyFeXCYsL4oMXdezleAYfsFUgOG2HRrheLS4QfiYGCL66SzR33Th+anEffYu5ka+UXlVTlfv4cH+EJoVqOL8kAU0tW5IDVghNDaPeJFX/NmL+4clGrH4Ld1y5cTZO4B8XK3hPnVMGvLAJCAABIAAE2iKBPy9bNVW5sXsFJm4ioXvEmAs51QmJHVcIXwjidRYLixsoWyPiPBMz4uiLKOeLBtminyRctjTnpe9ZN90U2cLNpjz7bXxiNk8Qv/361dG+hwx8wwVKI6ypylURFEUATZQtN/PgtKjkAvqSJh/XX1e2FAdteKLZZavRY7be+Y+nWo1Ufio1iKwXVnTgL4RmX6g1HkvbslXqNwahIX5Ue23DCcOeQAAIAAEg0OYItArZenY+GjkIT60O35DwEMtPHToq6ZxvlOGe++SLcswtW3hX4NDEeA2tL/K3EWktW/QzxJyXvmfdtLwbkepmwqSS8jvxDyPukd2IlecuuhkEiajhz5g0LcbK8+jG5Lrl4OL1KT3e1tN9dSJ90Lcm2cLXN6Ub0eT6E02s6rRsqY2WeaVa2SrzaHw3YqPHbH0rDI0TbJ7ENlnug7dgxV1dOQRZbbnkHye4+bo2Aey5mz1CKlOSEt2I44Jfy5u7MOnD4uTToeH8clr7k6aWrXx3br3diMQ88taeebWa05jZwlYgAASAABBoowRahWx9j0vo8HfcZLtorycSrDJj+aDYuY4CxUArZtn6cDNOlxuxI/0heQKwcpH3jniHa/Lh88yyxZyX+YySA+Rv3lQOkI+18Tw0P07eopZw47gBL/QaNUT6gcDPwDPASz4E/uOFy77DQ/NKFQ/yjDsjPQ8vi1fMHFFTlUvIXLC4zvcMfg3FB8grBptjxfgAeZ8D+DjuersRpZeCDxv4RSdTg+s/pqWvCuFfkHfIaq9l69tV1QHyZwxaYswW9shpuI79NYIhlurQw2hBQm3Nkl8z2Vu5CC27XqtlkRwgv1w5QP66kxVizTxW2QDZkoZMURkgPwjVGbOVuNIEGWysM0cG81UHW4EAEAACQKAtEmgVsoXlpdoMFXQamhDzSYJJs91nCoxHhjvEyV2EWbawD6LtSoXQXgAACr1JREFUk8PRyOjVp4W8gDsOCwXIJmr/fcq9yHm2NLRsMedlPp21pn7wChdMOnPI0C8ijnKvT/eFf3m7mZy/sV+AT3Zg5enW6+qjEnmNqtNv+xh5npwYmoJP/RARv8z/iIHP5SDlYKmaqtzqxBunDLx8l4enk1M/3KQm4ipPjx/mdcgiEJ/64UTY9SHebt0uPSjCS65XtrB3wqiBXm7mF8IORtzzvM0fz3Pr7J8gpNyrCS1blcJ4fN4H+dQPXoH/Emn/mMc5eOFYaXJYL8/DlkEC98i7x25cHBfo37ehssV8Fpi3frs1W6+v40NCj/BexXF71b5ZicUt46DO2+PlZ4csE/sYuo+a+oF3cvOGcSYsne5bohViyjSDPFZ6drUp0jUfvvGgs8/hZZOHDx7Zo45sPXMdX2e+CebqwFYgAASAABBoowRah2yV31tsw0fzhEXEdKahW/mIG3Uyv0GyVVOV+73o/pHtMb1HhOsPF1ivTPQWPlD0xzG3bDHnrfeMEpOaXvQbwDvS7YzKpKb4FBWv0jIcg3ytfI5YnPVfGJabq5xZAJOKy26EXRvtd7yrl1tn3inbIL5namXtRhdMmvP85BW/Pj6HiMlC3WbEkDMy4B5WkJy8/IKXmffhrsSkpncpw6vvbUQ879OUlBWB+ISoZr68adfT4zNVJzWlDZBXEMCk4s+FincY6YnMqnL8NBW7+NUden/o/3kFUaXJJzU18Tk16nLanZSW+W7ER4f6sxeeJtsahVtNujoGKWpET2ARizqibnuIeUbo66tfhZ53HDu4V2dDI5MBtSc1rfe7EStEhx0n9DY1MDAfPMUzOYD+3YjkIbAK78UI1f3uIHoAkAYCQAAIAIH2QaBVyFb7QNmOa0G2mdXVKTdqUok2XXfs8Z7RushysVtaTuyrEuUsIVqqVHWZ8EVuWOyhMcaIPScQnyANFiAABIAAEGjfBEC24FFXPwFMmv0mpvY7jPL3GYXvqJFnbfc+waTZD7wnWurjLy123xai7YoQQ+MRQnr9Fh15Qk0Poe2DQvlAAAgAASDwBwmAbNWvGn/w9MChW4zAl5JYcVLgnQfyKeO1d9zvT2/Ex4TkPL6n6OzW3rGgZCAABIAAEGgNBEC2QLaAABAAAkAACAABIKBFAiBbWoTbGmwaYgACQAAIAAEgAAT+LAGQLZAtIAAEgAAQAAJAAAhokQDIlhbh/lmPhqMDASAABIAAEAACrYEAyBbIFhAAAkAACAABIAAEtEgAKYxPBv+AABAAAkAACAABIAAEmpsAyFZzE4XygAAQAAJAAAgAASBAIwCyRYMBSSAABIAAEAACQAAINDcBkK3mJgrlAQEgAASAABAAAkCARgBkiwYDkkAACAABIAAEgAAQaG4CIFvNTRTKAwJAAAgAASAABIAAjUBTZCvvkDVbf+alD7TiIAkEgAAQAAJAAAgAASBAJ9B42fr14GA/dscF18vpxUEaCAABIAAEgAAQAAJAgE6g0bL1876LFdtocdgnemmNST8LSkbW4fKFG/lvVmMKYc7zLrvoeEBJwU/mvWArEAACQAAIAAEgAASan0BjZQu7+29PNmdleFWTQ/qU/zrwZhG+nBQaaEe2Hp1LRFxReE2TY4UCgAAQAAJAAAgAASDwmwTql61fNTW/6hRanbLVjG28PuZrnS1NWJElNm5Z2aqpAf9qwvmCrEAACAABIAAEgEADCDDJ1q+qoljvDaNXBtcZllUd52jKNnVMrKYf4VfJvfxlS+JNh4ajQZEWc+86x36iuxhWVnbC+Y7lKIH+sJhB68VBedWqDqdZtpjz/qysCHRPHzolynB4jPUy0Yn0qu9kXPmPrbh8ZR+lorNyVn4BsUOW+6RZLsGi0lrVoFcJ0kAACAABIAAEgAAQaCIB9bIl1yxzPT2zkWsv5qrKyNeYNV3Y3bem/KAf/NWzsbZ844VZ7leKAkOfODnG6XJjtouopqNvH3b/Hc62E245V+gblLdiQSQacsenqLZuaZIt5rzV5QdmhaOhCYtOFfCC8x2XR7Os47ZkECGXf7x85dmZK8/2OUYjbtK6y3gaX6I+VhCRv43bY9/LgG3UD5SLfiYhDQSAABAAAkAACDQjAVXZUmiWfo9xjj6xRdLaPkQcWRq+shPbYvddjB6HNPIe4ib7lFDraipDeXme6V/I3yujMnS5SSdfUKV9KV03nt/t6Dtqb+KnBtlizvstOVOfG7UyiRLCHxV7p/N1NhVLaUUzjdn6ViIM2DHV0hCUiwYMkkAACAABIAAEgECzEaglW68jd4w21zPoZb/FL7FYrkl1j/T5xmIjtqVLVu2X+7DULH1u1D98qbT2ejJ/tnccGpF5q/RLiXz5dHoVH61/TrYwyY+hQbaY8xYFpSBu+hWaW5Xmv43N+kxbIWOSLfLY1W/uXnSe3s8IVy6fzG91Kw1rgAAQAAJAAAgAASDQKAK1ZCtzn5V+7zk+GWW1+gdVyi2/PseAPeDgA6qRitr8o+LkkkhkHa4zOMpybursvRK/jCqquUl270SMmrFTq4tqNW1pkC3mvAUBSYibcUtxJCoc+s/6ZYvY+8frOKfRXdnTg+qMUaMXBmkgAASAABAAAkAACPwGgVqyVSkO2T6ljwG704A5ey5rGDdedmmmPtv66CN1x/hRnS8qCb5asP9o9ryF0Sxu9AahXNtwYRp5z/tuaQJ9yVXaGF4cg2xpztssslX95v4ll9n9O7G72v7jHlvM5Jrq6g3rgAAQAAJAAAgAASCgiUAt2SJ2+l4ivEAol1G/Gbsv3Xtdu82o7PxkPfYQj0JN5SnW/6w4MJ3fweU1OUIe7wocmp2o2hqm2JtIaJAt5rxkN+Llz8qiSsQlt9Iq6ZOtMrRsfcWHbE2zNCQ061ZeBTWgX1kcpIAAEAACQAAIAAEg0AQCdWWLLEyhXIZWW+KUM5eWnJvQgT3aq6juEV/eFtnMfhCh3FXqMY+vu7OEdLWKyHu63LhdOZTLVJfznDPW3aYbkUz2KK8XV7BeqGpkzHnJAfIrFLNQ/Ch3mcZnbS5WBiKTEUJ2L5Q+EQVRgaLg+T07gmbVPZmwBggAASAABIAAEGg2AppkizwAoVzukZXU4Z77jGWzx/m9on6n/cTy8voN5Jstf3AMn/qhcP/OREOuYFY4JTjf3u+YGo5GJa/hFZ4Jfrzun2hkk3BQQrkXWc63svXj+AZzM0+EEhPK3yxKId9tZM5bXb5/Vjgahk/94BuS77gihmUdt+1+rfa4H1lic67AZlc+j5z6IbGSHAKfF7TTHVqzaCcRkkAACAABIAAEgECzE2CWLZXDPTsxjN1hkv9bldXyX2ueJuTNXxjXdUg4sokwny5cF/z+Ha2VCisrO7b7Tu+RAv0RMQPXZPMyv9Z9bfGjuHDZwthONvKZSJcnyPMz5/1ZWX7BPX3IZHxSUy59UlNlnNUZQaIhEwQsco5ThyIYAq9kAykgAASAABAAAkBAmwR+R7YeH7Nh6824WKbNeKBsIAAEgAAQAAJAAAi0KwK/IVtiNy6746yrH9tV/aEyQAAIAAEgAASAABDQKoHfkC2txgGFAwEgAASAABAAAkCgXRIA2WqXpxUqBQSAABAAAkAACLQWAiBbreVMQBxAAAgAASAABIBAuyQAstUuTytUCggAASAABIAAEGgtBP4/H5g+FdsmMCYAAAAASUVORK5CYII=;" parent="1" vertex="1">
          <mxGeometry x="-17" y="1080" width="684" height="126.76" as="geometry" />
        </mxCell>
        <mxCell id="-ubOXBx0BQUR7QONxQG7-20" value="&lt;font style=&quot;font-size: 19px;&quot;&gt;方法无终结，一直调用就是stackoverflow&lt;/font&gt;" style="text;html=1;align=center;verticalAlign=middle;resizable=0;points=[];autosize=1;strokeColor=none;fillColor=none;" parent="1" vertex="1">
          <mxGeometry x="240" y="1255" width="370" height="40" as="geometry" />
        </mxCell>
        <mxCell id="-ubOXBx0BQUR7QONxQG7-21" value="resultType：默认封装，不管关联关系，不再触发继续往下查" style="rounded=0;whiteSpace=wrap;html=1;fontSize=16;fillColor=#e1d5e7;strokeColor=#9673a6;" parent="1" vertex="1">
          <mxGeometry x="250" y="1129" width="437" height="40" as="geometry" />
        </mxCell>
        <mxCell id="-ubOXBx0BQUR7QONxQG7-22" value="resultMap：自定义封装，启动继续往下查，关联封装&lt;div&gt;危险行为！！！！！&lt;/div&gt;" style="rounded=0;whiteSpace=wrap;html=1;fontSize=16;fillColor=#f8cecc;strokeColor=#b85450;" parent="1" vertex="1">
          <mxGeometry x="250" y="1180" width="437" height="40" as="geometry" />
        </mxCell>
        <mxCell id="nhhfM1b7QlanT2N0q-d--1" value="" style="endArrow=none;html=1;rounded=0;" edge="1" parent="1">
          <mxGeometry width="50" height="50" relative="1" as="geometry">
            <mxPoint y="1360" as="sourcePoint" />
            <mxPoint x="800" y="1360" as="targetPoint" />
          </mxGeometry>
        </mxCell>
        <mxCell id="nhhfM1b7QlanT2N0q-d--2" value="&lt;font style=&quot;font-size: 32px;&quot;&gt;CPU执行指令&lt;/font&gt;" style="edgeLabel;html=1;align=center;verticalAlign=middle;resizable=0;points=[];" vertex="1" connectable="0" parent="nhhfM1b7QlanT2N0q-d--1">
          <mxGeometry x="-0.1575" y="6" relative="1" as="geometry">
            <mxPoint as="offset" />
          </mxGeometry>
        </mxCell>
        <mxCell id="nhhfM1b7QlanT2N0q-d--3" value="CPU" style="rounded=0;whiteSpace=wrap;html=1;fillColor=#fff2cc;strokeColor=#d6b656;fontSize=16;verticalAlign=top;" vertex="1" parent="1">
          <mxGeometry x="160" y="1780" width="70" height="70" as="geometry" />
        </mxCell>
        <mxCell id="nhhfM1b7QlanT2N0q-d--9" style="edgeStyle=orthogonalEdgeStyle;rounded=0;orthogonalLoop=1;jettySize=auto;html=1;" edge="1" parent="1" source="nhhfM1b7QlanT2N0q-d--7" target="nhhfM1b7QlanT2N0q-d--8">
          <mxGeometry relative="1" as="geometry" />
        </mxCell>
        <mxCell id="nhhfM1b7QlanT2N0q-d--7" value="硬盘&lt;div&gt;1024G&lt;/div&gt;" style="rounded=0;whiteSpace=wrap;html=1;fontSize=16;" vertex="1" parent="1">
          <mxGeometry x="275" y="1380" width="120" height="60" as="geometry" />
        </mxCell>
        <mxCell id="nhhfM1b7QlanT2N0q-d--35" style="edgeStyle=orthogonalEdgeStyle;rounded=0;orthogonalLoop=1;jettySize=auto;html=1;entryX=0.5;entryY=0;entryDx=0;entryDy=0;" edge="1" parent="1" source="nhhfM1b7QlanT2N0q-d--8" target="nhhfM1b7QlanT2N0q-d--34">
          <mxGeometry relative="1" as="geometry" />
        </mxCell>
        <mxCell id="nhhfM1b7QlanT2N0q-d--8" value="内存&lt;div&gt;32G&lt;/div&gt;" style="rounded=0;whiteSpace=wrap;html=1;fontSize=16;fillColor=#dae8fc;strokeColor=#6c8ebf;" vertex="1" parent="1">
          <mxGeometry x="275" y="1490" width="120" height="60" as="geometry" />
        </mxCell>
        <mxCell id="nhhfM1b7QlanT2N0q-d--10" value="加载" style="text;html=1;align=center;verticalAlign=middle;resizable=0;points=[];autosize=1;strokeColor=none;fillColor=none;" vertex="1" parent="1">
          <mxGeometry x="331" y="1460" width="50" height="30" as="geometry" />
        </mxCell>
        <mxCell id="nhhfM1b7QlanT2N0q-d--11" value="" style="shape=image;verticalLabelPosition=bottom;labelBackgroundColor=default;verticalAlign=top;aspect=fixed;imageAspect=0;image=data:image/png,iVBORw0KGgoAAAANSUhEUgAAAJkAAABACAIAAACGD0IKAAAGO0lEQVR4Ae2c79WrLAzAO1fneU7n6Aj97hztGh2gA3QM35NA/hpfFatXPPTDFRAC5GeCQu5z6dvvLBq4nGUibR59Y3meh6CxbCzPo4HzzKTZZWM5oYF399e9XZ1394c/c+P7vA9ruoYtO08Dk3Y5pmwgc39+417eXbpF+DxDU54Iu39HRccdri/9PK4X/t1eSuDrdrlcHx8pgYL0M8Vc4XW7iIAkF/PS7uIkctNViQKWQPfvr+u6MZbfZ/f89ukhSAZKD8TbtfH5VVNZ1/h1s8BAWuZwM7deNyYIcIQa969Ymhq6C3ODW65LFLDMHY5yeHfgRRFoaH9icgD6iU+Gs0rjhtdNcG5rBcA30QzsvfgOiQJezL3ve10bHpPgMbDiF+Z+zzLzY2Lf5z1G833euRKNGhvn6mDMgwpU8ddX7WK9jjUD0++IcSFLEKhBWpZboJzeKyD3aCYBmVG77Pv++8WFFNoGP2SF9wxkz87nByPYpmAIIWaJ9D12HBIgjlbEXP5/S+2qKf3eLpFyIghWFVkfeGCkHHtYaLybQQba8+x8Pi+kzupEUPKx3sNaHwsO99dOdgOW1mD9kommiO+5/rtl1BmLlvZJeXYuP0mB1ktvuVaOzf1iZhuw1MNCq3zKF4o2tymWu/rYz4c+OibsacZKRyzTEinmZ+hNPhFajfPSs1jKmqdYWPOzvSUXer/Ty0vKm9URXbEp8Xa5L0v5vBz4zgGDtOLlf4dLpmJJOFEm4JPfsJ3V4fLcJMvFIhkBsOnSXk96BMjdZoJil3RDPSmLu20Npt9jm46q0cDv7bKaqZ9uoI3leZA2lo3leTRwnpk0u2wsz6OB88yk2WVjeR4NnGcmG9ml7OmIqmh3x2/ctXgf0dGq1CRL2JIz2k9Hl3mLdmTXrcJ4H9LicGs93eHN1MF2LdzHIxF/9mw2YylDG7KhGBpE2bWAJYHKUD3oHB5SW7xPUt8IEyjOyo/PN7DC9eoAJWnU0sSIxGLKGFKrApbUFK7RYUmd8T4wm8/jen08TKQWThaY8LGGyZAusPChqwXi9HlLKIWkFV7XsYQl0NtlXhbZ+/qjLB5oFHGAjbNEPnDhFtsmsnq1xnOHg0MsZ3/Jx95exvJyRolTyS1QTp+TROtlmiLcGZDMt+qL92FFc4KfHKf4YQVmqSI/qJGqzUsurJmDx4G7K04U2iVyZNNzvdMLKwbtRNZ3vHgfq3Gv59l2maBCcxbIiWPG+0SeVeG0ayiDzW++6ECPFu8jQQX0mmnsRvEQE1QzNoVYWRZd1VYl01utf2aMyOWZ5XY57nSD3quJ95Gxi8bBTSZ1k8McRaAqoJ8Ng3xEcv5A4fcp6X1NahZLE+/jDS1aMtEF/9UU7yM6FI0Ly2R4yWZDAJolfmxyLRGXIZPlcw3pemVqkuVi+cARV9IW77NYd+sa/J7luvG01uUaaCzLdXe0lo3l0YiUj6exLNfd0Vo2lkcjUj6exrJcd0dr2VgejUj5eBrLct0drWVjeTQi5ePZiGWL9ylHUtxykmW4lc57sv4gOo+Dwki4HuzoqrqmXHZ7VWrsPK14orMawgmjP7yQU8fhDirf842wN9ikHcrDsy8pZhHrDzULWEqgACBRhEhdNf59n6T3m/1TPu7IkeaXr2rrHYAMSWOFHYOACliqKdmjynyj3ngfzw7jf+j/vqtpYxJIMT+ToZpYuGMQ0CqWIyjRVbKTFDOmOeZrFHGAzjebOh+4uHZbZtUJFZ5zYShXOqXybnR2sIGRmTKqSCXDB2LBbItYpuPJ0L+mrqv9+z5Ks3ldy6YHejY0neJNw6x/qiIeWJWQsH+7XsqTAlbE9meL2TYj6ztevA8N3iAxGYngyXVn22U6yAZ2LJATzqsLdRrQkmuRXUoHkZe1Zf6VFR3o0eJ9eEJKydnH8nJpbvlgETI4FgQJVYiNtw4CWs5SrX/TK1pt8T4WGMDIvpCTnBigYuoEVLHcJQhoFkv57qPgDyoJvkhgJmlBrTDex7LMIVYmzkdYJsMzN4liumqWmrxxrGa9lBdjK2lebpLlPDGqFhtri/dRWtkj+XuWe4y69RFpoLGMtFJnWWNZJ7do1I1lpJU6yxrLOrlFo24sI63UWdZY1sktGvV/yNGB14stA6AAAAAASUVORK5CYII=;" vertex="1" parent="1">
          <mxGeometry y="1490" width="153" height="64" as="geometry" />
        </mxCell>
        <mxCell id="nhhfM1b7QlanT2N0q-d--13" value="1级缓存" style="rounded=0;whiteSpace=wrap;html=1;fillColor=#d5e8d4;strokeColor=#82b366;" vertex="1" parent="1">
          <mxGeometry x="164" y="1820" width="56" height="20" as="geometry" />
        </mxCell>
        <mxCell id="nhhfM1b7QlanT2N0q-d--14" value="CPU" style="rounded=0;whiteSpace=wrap;html=1;fillColor=#fff2cc;strokeColor=#d6b656;fontSize=16;verticalAlign=top;" vertex="1" parent="1">
          <mxGeometry x="255" y="1780" width="70" height="70" as="geometry" />
        </mxCell>
        <mxCell id="nhhfM1b7QlanT2N0q-d--15" value="1级缓存" style="rounded=0;whiteSpace=wrap;html=1;fillColor=#d5e8d4;strokeColor=#82b366;" vertex="1" parent="1">
          <mxGeometry x="259" y="1820" width="56" height="20" as="geometry" />
        </mxCell>
        <mxCell id="nhhfM1b7QlanT2N0q-d--17" value="CPU" style="rounded=0;whiteSpace=wrap;html=1;fillColor=#fff2cc;strokeColor=#d6b656;fontSize=16;verticalAlign=top;" vertex="1" parent="1">
          <mxGeometry x="350" y="1780" width="70" height="70" as="geometry" />
        </mxCell>
        <mxCell id="nhhfM1b7QlanT2N0q-d--18" value="1级缓存" style="rounded=0;whiteSpace=wrap;html=1;fillColor=#d5e8d4;strokeColor=#82b366;" vertex="1" parent="1">
          <mxGeometry x="354" y="1820" width="56" height="20" as="geometry" />
        </mxCell>
        <mxCell id="nhhfM1b7QlanT2N0q-d--19" value="CPU" style="rounded=0;whiteSpace=wrap;html=1;fillColor=#fff2cc;strokeColor=#d6b656;fontSize=16;verticalAlign=top;" vertex="1" parent="1">
          <mxGeometry x="440" y="1780" width="70" height="70" as="geometry" />
        </mxCell>
        <mxCell id="nhhfM1b7QlanT2N0q-d--20" value="1级缓存" style="rounded=0;whiteSpace=wrap;html=1;fillColor=#d5e8d4;strokeColor=#82b366;" vertex="1" parent="1">
          <mxGeometry x="444" y="1820" width="56" height="20" as="geometry" />
        </mxCell>
        <mxCell id="nhhfM1b7QlanT2N0q-d--22" style="edgeStyle=orthogonalEdgeStyle;rounded=0;orthogonalLoop=1;jettySize=auto;html=1;entryX=0;entryY=0.75;entryDx=0;entryDy=0;" edge="1" parent="1" source="nhhfM1b7QlanT2N0q-d--21" target="nhhfM1b7QlanT2N0q-d--3">
          <mxGeometry relative="1" as="geometry" />
        </mxCell>
        <mxCell id="nhhfM1b7QlanT2N0q-d--21" value="即将执行的指令" style="rounded=0;whiteSpace=wrap;html=1;" vertex="1" parent="1">
          <mxGeometry y="1815" width="110" height="30" as="geometry" />
        </mxCell>
        <mxCell id="nhhfM1b7QlanT2N0q-d--24" value="2级缓存（8倍）" style="rounded=0;whiteSpace=wrap;html=1;fillColor=#f8cecc;strokeColor=#b85450;" vertex="1" parent="1">
          <mxGeometry x="160" y="1690" width="350" height="40" as="geometry" />
        </mxCell>
        <mxCell id="nhhfM1b7QlanT2N0q-d--29" style="edgeStyle=orthogonalEdgeStyle;rounded=0;orthogonalLoop=1;jettySize=auto;html=1;entryX=0.5;entryY=0;entryDx=0;entryDy=0;" edge="1" parent="1" source="nhhfM1b7QlanT2N0q-d--26" target="nhhfM1b7QlanT2N0q-d--3">
          <mxGeometry relative="1" as="geometry">
            <Array as="points">
              <mxPoint x="455" y="1750" />
              <mxPoint x="195" y="1750" />
            </Array>
          </mxGeometry>
        </mxCell>
        <mxCell id="nhhfM1b7QlanT2N0q-d--30" style="edgeStyle=orthogonalEdgeStyle;rounded=0;orthogonalLoop=1;jettySize=auto;html=1;" edge="1" parent="1" source="nhhfM1b7QlanT2N0q-d--26" target="nhhfM1b7QlanT2N0q-d--14">
          <mxGeometry relative="1" as="geometry">
            <Array as="points">
              <mxPoint x="455" y="1750" />
              <mxPoint x="290" y="1750" />
            </Array>
          </mxGeometry>
        </mxCell>
        <mxCell id="nhhfM1b7QlanT2N0q-d--31" style="edgeStyle=orthogonalEdgeStyle;rounded=0;orthogonalLoop=1;jettySize=auto;html=1;" edge="1" parent="1" source="nhhfM1b7QlanT2N0q-d--26" target="nhhfM1b7QlanT2N0q-d--17">
          <mxGeometry relative="1" as="geometry" />
        </mxCell>
        <mxCell id="nhhfM1b7QlanT2N0q-d--32" style="edgeStyle=orthogonalEdgeStyle;rounded=0;orthogonalLoop=1;jettySize=auto;html=1;entryX=0.5;entryY=0;entryDx=0;entryDy=0;" edge="1" parent="1" source="nhhfM1b7QlanT2N0q-d--26" target="nhhfM1b7QlanT2N0q-d--19">
          <mxGeometry relative="1" as="geometry" />
        </mxCell>
        <mxCell id="nhhfM1b7QlanT2N0q-d--26" value="更多指令" style="rounded=0;whiteSpace=wrap;html=1;" vertex="1" parent="1">
          <mxGeometry x="420" y="1695" width="70" height="30" as="geometry" />
        </mxCell>
        <mxCell id="nhhfM1b7QlanT2N0q-d--33" value="指令同步" style="text;html=1;align=center;verticalAlign=middle;resizable=0;points=[];autosize=1;strokeColor=none;fillColor=none;" vertex="1" parent="1">
          <mxGeometry x="466" y="1738" width="70" height="30" as="geometry" />
        </mxCell>
        <mxCell id="nhhfM1b7QlanT2N0q-d--36" style="edgeStyle=orthogonalEdgeStyle;rounded=0;orthogonalLoop=1;jettySize=auto;html=1;entryX=0.5;entryY=0;entryDx=0;entryDy=0;" edge="1" parent="1" source="nhhfM1b7QlanT2N0q-d--34" target="nhhfM1b7QlanT2N0q-d--24">
          <mxGeometry relative="1" as="geometry" />
        </mxCell>
        <mxCell id="nhhfM1b7QlanT2N0q-d--34" value="消息总线" style="rounded=0;whiteSpace=wrap;html=1;" vertex="1" parent="1">
          <mxGeometry x="257.5" y="1600" width="155" height="40" as="geometry" />
        </mxCell>
        <mxCell id="nhhfM1b7QlanT2N0q-d--37" value="&lt;font style=&quot;font-size: 24px;&quot;&gt;多级缓存：&lt;/font&gt;&lt;div style=&quot;font-size: 24px;&quot;&gt;&lt;font style=&quot;font-size: 24px;&quot;&gt;缓存就是为了加速系统访问速度&lt;/font&gt;&lt;/div&gt;&lt;div style=&quot;font-size: 24px;&quot;&gt;&lt;font style=&quot;font-size: 24px;&quot;&gt;&lt;br&gt;&lt;/font&gt;&lt;/div&gt;&lt;div style=&quot;font-size: 24px;&quot;&gt;&lt;font style=&quot;font-size: 24px;&quot;&gt;【回源】如果缓存中没有，&lt;/font&gt;&lt;/div&gt;&lt;div style=&quot;font-size: 24px;&quot;&gt;&lt;font style=&quot;font-size: 24px;&quot;&gt;就要去数据库查询原始数据，然后放到缓存&lt;/font&gt;&lt;/div&gt;" style="text;html=1;align=left;verticalAlign=middle;resizable=0;points=[];autosize=1;strokeColor=none;fillColor=none;" vertex="1" parent="1">
          <mxGeometry x="440" y="1442" width="480" height="160" as="geometry" />
        </mxCell>
        <mxCell id="nhhfM1b7QlanT2N0q-d--39" value="&lt;div style=&quot;forced-color-adjust: none; color: rgb(0, 0, 0); font-family: Helvetica; font-style: normal; font-variant-ligatures: normal; font-variant-caps: normal; font-weight: 400; letter-spacing: normal; orphans: 2; text-align: left; text-indent: 0px; text-transform: none; widows: 2; word-spacing: 0px; -webkit-text-stroke-width: 0px; white-space: nowrap; background-color: rgb(251, 251, 251); text-decoration-thickness: initial; text-decoration-style: initial; text-decoration-color: initial; font-size: 24px;&quot;&gt;&lt;font style=&quot;forced-color-adjust: none; font-size: 24px;&quot;&gt;N级缓存；&lt;/font&gt;&lt;/div&gt;&lt;div style=&quot;forced-color-adjust: none; color: rgb(0, 0, 0); font-family: Helvetica; font-style: normal; font-variant-ligatures: normal; font-variant-caps: normal; font-weight: 400; letter-spacing: normal; orphans: 2; text-align: left; text-indent: 0px; text-transform: none; widows: 2; word-spacing: 0px; -webkit-text-stroke-width: 0px; white-space: nowrap; background-color: rgb(251, 251, 251); text-decoration-thickness: initial; text-decoration-style: initial; text-decoration-color: initial; font-size: 24px;&quot;&gt;&lt;font style=&quot;forced-color-adjust: none; font-size: 24px;&quot;&gt;N越大，离我越远，访问越慢，容量越大，造价越低&lt;/font&gt;&lt;/div&gt;&lt;div style=&quot;forced-color-adjust: none; color: rgb(0, 0, 0); font-family: Helvetica; font-style: normal; font-variant-ligatures: normal; font-variant-caps: normal; font-weight: 400; letter-spacing: normal; orphans: 2; text-align: left; text-indent: 0px; text-transform: none; widows: 2; word-spacing: 0px; -webkit-text-stroke-width: 0px; white-space: nowrap; background-color: rgb(251, 251, 251); text-decoration-thickness: initial; text-decoration-style: initial; text-decoration-color: initial; font-size: 24px;&quot;&gt;&lt;font style=&quot;forced-color-adjust: none; font-size: 24px;&quot;&gt;越小反之；&lt;/font&gt;&lt;/div&gt;" style="text;whiteSpace=wrap;html=1;" vertex="1" parent="1">
          <mxGeometry x="76" y="1870" width="560" height="110" as="geometry" />
        </mxCell>
        <mxCell id="nhhfM1b7QlanT2N0q-d--40" value="" style="rounded=0;whiteSpace=wrap;html=1;fillColor=#f5f5f5;fontColor=#333333;strokeColor=#666666;" vertex="1" parent="1">
          <mxGeometry x="160" y="2180" width="140" height="240" as="geometry" />
        </mxCell>
        <mxCell id="nhhfM1b7QlanT2N0q-d--41" value="事务1&lt;div&gt;默认开启一级缓存&lt;/div&gt;" style="rounded=0;whiteSpace=wrap;html=1;fillColor=#fff2cc;strokeColor=#d6b656;" vertex="1" parent="1">
          <mxGeometry x="180" y="2160" width="100" height="40" as="geometry" />
        </mxCell>
        <mxCell id="nhhfM1b7QlanT2N0q-d--42" value="1员工" style="rounded=0;whiteSpace=wrap;html=1;" vertex="1" parent="1">
          <mxGeometry x="192.5" y="2230" width="75" height="40" as="geometry" />
        </mxCell>
        <mxCell id="nhhfM1b7QlanT2N0q-d--43" value="1员工" style="rounded=0;whiteSpace=wrap;html=1;" vertex="1" parent="1">
          <mxGeometry x="192.5" y="2330" width="75" height="40" as="geometry" />
        </mxCell>
        <mxCell id="nhhfM1b7QlanT2N0q-d--59" style="edgeStyle=orthogonalEdgeStyle;rounded=0;orthogonalLoop=1;jettySize=auto;html=1;" edge="1" parent="1" source="nhhfM1b7QlanT2N0q-d--44" target="nhhfM1b7QlanT2N0q-d--56">
          <mxGeometry relative="1" as="geometry" />
        </mxCell>
        <mxCell id="nhhfM1b7QlanT2N0q-d--44" value="" style="rounded=0;whiteSpace=wrap;html=1;fillColor=#f5f5f5;fontColor=#333333;strokeColor=#666666;" vertex="1" parent="1">
          <mxGeometry x="485" y="2180" width="140" height="240" as="geometry" />
        </mxCell>
        <mxCell id="nhhfM1b7QlanT2N0q-d--45" value="事务2&lt;div&gt;默认开启一级缓存&lt;/div&gt;" style="rounded=0;whiteSpace=wrap;html=1;fillColor=#fff2cc;strokeColor=#d6b656;" vertex="1" parent="1">
          <mxGeometry x="505" y="2160" width="100" height="40" as="geometry" />
        </mxCell>
        <mxCell id="nhhfM1b7QlanT2N0q-d--46" value="1员工" style="rounded=0;whiteSpace=wrap;html=1;" vertex="1" parent="1">
          <mxGeometry x="515" y="2230" width="75" height="40" as="geometry" />
        </mxCell>
        <mxCell id="nhhfM1b7QlanT2N0q-d--54" style="edgeStyle=orthogonalEdgeStyle;rounded=0;orthogonalLoop=1;jettySize=auto;html=1;entryX=0.5;entryY=1;entryDx=0;entryDy=0;" edge="1" parent="1" source="nhhfM1b7QlanT2N0q-d--47">
          <mxGeometry relative="1" as="geometry">
            <mxPoint x="240" y="2400" as="sourcePoint" />
            <mxPoint x="401.5" y="2090" as="targetPoint" />
          </mxGeometry>
        </mxCell>
        <mxCell id="nhhfM1b7QlanT2N0q-d--55" value="事务结束&lt;div&gt;把查询结果共享到二级缓存&lt;/div&gt;" style="edgeLabel;html=1;align=center;verticalAlign=middle;resizable=0;points=[];" vertex="1" connectable="0" parent="nhhfM1b7QlanT2N0q-d--54">
          <mxGeometry x="-0.6734" y="-7" relative="1" as="geometry">
            <mxPoint x="36" y="-37" as="offset" />
          </mxGeometry>
        </mxCell>
        <mxCell id="nhhfM1b7QlanT2N0q-d--47" value="事务结束&lt;div&gt;缓存清空&lt;/div&gt;" style="rounded=0;whiteSpace=wrap;html=1;fillColor=#f8cecc;strokeColor=#b85450;" vertex="1" parent="1">
          <mxGeometry x="180" y="2400" width="105" height="40" as="geometry" />
        </mxCell>
        <mxCell id="nhhfM1b7QlanT2N0q-d--48" value="1员工" style="rounded=0;whiteSpace=wrap;html=1;" vertex="1" parent="1">
          <mxGeometry x="515" y="2330" width="75" height="40" as="geometry" />
        </mxCell>
        <mxCell id="nhhfM1b7QlanT2N0q-d--49" value="事务结束&lt;div&gt;缓存清空&lt;/div&gt;" style="rounded=0;whiteSpace=wrap;html=1;fillColor=#f8cecc;strokeColor=#b85450;" vertex="1" parent="1">
          <mxGeometry x="502.5" y="2400" width="105" height="40" as="geometry" />
        </mxCell>
        <mxCell id="nhhfM1b7QlanT2N0q-d--50" value="二级缓存" style="rounded=0;whiteSpace=wrap;html=1;fontSize=16;verticalAlign=top;fillColor=#d5e8d4;strokeColor=none;" vertex="1" parent="1">
          <mxGeometry x="148" y="2010" width="492" height="80" as="geometry" />
        </mxCell>
        <mxCell id="nhhfM1b7QlanT2N0q-d--52" style="edgeStyle=orthogonalEdgeStyle;rounded=0;orthogonalLoop=1;jettySize=auto;html=1;entryX=0.5;entryY=0;entryDx=0;entryDy=0;" edge="1" parent="1" source="nhhfM1b7QlanT2N0q-d--51" target="nhhfM1b7QlanT2N0q-d--41">
          <mxGeometry relative="1" as="geometry" />
        </mxCell>
        <mxCell id="nhhfM1b7QlanT2N0q-d--51" value="查询1" style="ellipse;whiteSpace=wrap;html=1;aspect=fixed;" vertex="1" parent="1">
          <mxGeometry x="6" y="2100" width="60" height="60" as="geometry" />
        </mxCell>
        <mxCell id="nhhfM1b7QlanT2N0q-d--53" value="1员工" style="rounded=0;whiteSpace=wrap;html=1;fillColor=#e1d5e7;strokeColor=#9673a6;" vertex="1" parent="1">
          <mxGeometry x="267.5" y="2040" width="75" height="40" as="geometry" />
        </mxCell>
        <mxCell id="nhhfM1b7QlanT2N0q-d--57" style="edgeStyle=orthogonalEdgeStyle;rounded=0;orthogonalLoop=1;jettySize=auto;html=1;entryX=1;entryY=0.5;entryDx=0;entryDy=0;" edge="1" parent="1" source="nhhfM1b7QlanT2N0q-d--56" target="nhhfM1b7QlanT2N0q-d--50">
          <mxGeometry relative="1" as="geometry" />
        </mxCell>
        <mxCell id="nhhfM1b7QlanT2N0q-d--58" value="发现二级缓存有&lt;div&gt;就直接使用缓存中的数据&lt;/div&gt;&lt;div&gt;无需查库&lt;/div&gt;" style="edgeLabel;html=1;align=center;verticalAlign=middle;resizable=0;points=[];" vertex="1" connectable="0" parent="nhhfM1b7QlanT2N0q-d--57">
          <mxGeometry x="0.1875" y="-4" relative="1" as="geometry">
            <mxPoint x="19" y="44" as="offset" />
          </mxGeometry>
        </mxCell>
        <mxCell id="nhhfM1b7QlanT2N0q-d--56" value="查询1" style="ellipse;whiteSpace=wrap;html=1;aspect=fixed;" vertex="1" parent="1">
          <mxGeometry x="740" y="2020" width="60" height="60" as="geometry" />
        </mxCell>
        <mxCell id="nhhfM1b7QlanT2N0q-d--60" value="MyBatis：缓存流程：二一库&lt;div&gt;其他逻辑：优一库&lt;/div&gt;" style="rounded=1;whiteSpace=wrap;html=1;fontSize=16;align=left;fillColor=#dae8fc;strokeColor=#6c8ebf;" vertex="1" parent="1">
          <mxGeometry x="255" y="1950" width="310" height="50" as="geometry" />
        </mxCell>
      </root>
    </mxGraphModel>
  </diagram>
</mxfile>
